Mazius Display Extra Italic.glyphspackage
{
color = 1;
glyphname = AE;
layers = (
{
components = (
{
name = E;
transform = "{1, 0, 0, 1, 368, 0}";
}
);
hints = (
{
origin = "{0, 0}";
scale = "{1.24, 1}";
type = Corner;
name = _corner.rightSerif.cap;
options = 1;
},
{
origin = "{0, 7}";
scale = "{1.24, 1}";
type = Corner;
name = _corner.rightSerif.cap;
options = 1;
},
{
origin = "{0, 8}";
scale = "{0.88, 1}";
type = Corner;
name = _corner.leftSerif.cap;
}
);
layerId = "B4D6250A-EC24-4DD5-8C49-5E627D155568";
paths = (
{
closed = 1;
nodes = (
"20 0 LINE",
"516 614 LINE",
"524 608 LINE",
"764 710 LINE",
"724 706 OFFCURVE",
"672 700 OFFCURVE",
"635 700 CURVE",
"552 700 LINE",
"-25 0 LINE"
);
},
{
closed = 1;
nodes = (
"459 238 LINE",
"463 264 LINE",
"196 264 LINE",
"112 388 LINE",
"68 384 LINE",
"8 292 LINE",
"64 258 OFFCURVE",
"121 238 OFFCURVE",
"173 238 CURVE"
);
}
);
width = 900;
},
{
components = (
{
name = E;
transform = "{1, 0, 0, 1, 354, 0}";
}
);
hints = (
{
origin = "{0, 7}";
scale = "{1.24, 1}";
type = Corner;
name = _corner.rightSerif.cap;
options = 1;
},
{
origin = "{0, 8}";
scale = "{0.88, 1}";
type = Corner;
name = _corner.leftSerif.cap;
},
{
origin = "{0, 0}";
scale = "{1.24, 1}";
type = Corner;
name = _corner.rightSerif.cap;
options = 1;
}
);
layerId = "4AEC2A2F-21E0-4005-B5C4-61417F12BD89";
paths = (
{
closed = 1;
nodes = (
"20 0 LINE",
"520 614 LINE",
"526 610 LINE",
"718 714 LINE",
"692 709 OFFCURVE",
"665 700 OFFCURVE",
"639 700 CURVE",
"560 700 LINE",
"-20 0 LINE"
);
},
{
closed = 1;
nodes = (
"463 244 LINE",
"467 262 LINE",
"197 262 LINE",
"85 368 LINE",
"61 364 LINE",
"17 296 LINE",
"59 264 OFFCURVE",
"123 244 OFFCURVE",
"183 244 CURVE SMOOTH"
);
}
);
width = 894;
},
{
associatedMasterId = "4AEC2A2F-21E0-4005-B5C4-61417F12BD89";
components = (
{
name = E;
transform = "{1, 0, 0, 1, 400, 0}";
}
);
layerId = "181D6CA1-E16A-4233-8C01-82C5C45DDC8A";
name = "14 apr 22, 01:40";
paths = (
{
closed = 1;
nodes = (
"-4 -245 OFFCURVE",
"104 -170 OFFCURVE",
"152 -76 CURVE SMOOTH",
"394 396 LINE SMOOTH",
"444 493 OFFCURVE",
"521 569 OFFCURVE",
"590 604 CURVE",
"606 628 LINE",
"446 552 OFFCURVE",
"362 460 OFFCURVE",
"294 336 CURVE SMOOTH",
"22 -156 LINE SMOOTH",
"5 -187 OFFCURVE",
"-26 -220 OFFCURVE",
"-62 -232 CURVE",
"-184 -144 LINE",
"-212 -148 LINE",
"-251 -212 LINE",
"-207 -248 OFFCURVE",
"-160 -266 OFFCURVE",
"-124 -266 CURVE"
);
},
{
closed = 1;
nodes = (
"448 128 LINE",
"452 146 LINE",
"186 146 LINE",
"78 252 LINE",
"54 248 LINE",
"10 180 LINE",
"52 148 OFFCURVE",
"116 128 OFFCURVE",
"176 128 CURVE SMOOTH"
);
}
);
width = 940;
},
{
associatedMasterId = "4AEC2A2F-21E0-4005-B5C4-61417F12BD89";
background = {
paths = (
{
closed = 1;
nodes = (
"211 272 OFFCURVE",
"179 337 OFFCURVE",
"179 341 CURVE",
"83 284 LINE",
"83 282 OFFCURVE",
"106 255 OFFCURVE",
"205 255 CURVE",
"603 248 LINE",
"628 271 LINE",
"281 272 LINE"
);
},
{
closed = 1;
nodes = (
"751 346 OFFCURVE",
"586 323 OFFCURVE",
"573 174 CURVE",
"587 70 OFFCURVE",
"685 -9 OFFCURVE",
"792 -8 CURVE",
"1064 132 LINE",
"1056 146 LINE",
"1034 135 OFFCURVE",
"860 38 OFFCURVE",
"832 38 CURVE SMOOTH",
"765 38 OFFCURVE",
"684 118 OFFCURVE",
"692 218 CURVE",
"703 339 OFFCURVE",
"758 336 OFFCURVE",
"882 375 CURVE",
"876 385 LINE"
);
},
{
closed = 1;
nodes = (
"-138 -78 OFFCURVE",
"-98 -96 OFFCURVE",
"-54 -101 CURVE",
"309 -101 OFFCURVE",
"407 406 OFFCURVE",
"702 604 CURVE",
"694 589 OFFCURVE",
"687 547 OFFCURVE",
"685 530 CURVE",
"685 421 OFFCURVE",
"862 363 OFFCURVE",
"952 333 CURVE",
"953 343 LINE",
"887 376 OFFCURVE",
"781 472 OFFCURVE",
"781 589 CURVE SMOOTH",
"781 625 OFFCURVE",
"803 652 OFFCURVE",
"828 669 CURVE",
"839 676 LINE",
"861 689 OFFCURVE",
"884 695 OFFCURVE",
"895 695 CURVE",
"981 667 OFFCURVE",
"1035 580 OFFCURVE",
"1059 550 CURVE",
"1070 580 LINE",
"1017 709 LINE",
"978 711 LINE",
"474 711 OFFCURVE",
"301 -45 OFFCURVE",
"32 -45 CURVE",
"-17 -45 OFFCURVE",
"-44 -21 OFFCURVE",
"-46 32 CURVE",
"-55 33 LINE",
"-157 -56 LINE"
);
}
);
};
layerId = "529FAC0E-63AC-4CE8-9B06-82FA697D52C9";
name = "13 apr 22, 12:14";
paths = (
{
closed = 1;
nodes = (
"210 183 OFFCURVE",
"179 248 OFFCURVE",
"179 252 CURVE",
"83 195 LINE",
"83 193 OFFCURVE",
"104 168 OFFCURVE",
"205 166 CURVE SMOOTH",
"603 158 LINE",
"628 181 LINE",
"281 183 LINE SMOOTH"
);
},
{
closed = 1;
nodes = (
"708 617 LINE",
"399 391 OFFCURVE",
"246 -164 OFFCURVE",
"32 -164 CURVE SMOOTH",
"-17 -164 OFFCURVE",
"-44 -140 OFFCURVE",
"-46 -87 CURVE",
"-55 -86 LINE",
"-157 -175 LINE",
"-138 -197 OFFCURVE",
"-98 -215 OFFCURVE",
"-54 -220 CURVE",
"309 -220 OFFCURVE",
"407 286 OFFCURVE",
"701 603 CURVE"
);
},
{
closed = 1;
nodes = (
"922 710 LINE",
"795 700 OFFCURVE",
"681 639 OFFCURVE",
"673 550 CURVE SMOOTH",
"670 479 OFFCURVE",
"741 434 OFFCURVE",
"816 403 CURVE",
"698 365 OFFCURVE",
"563 308 OFFCURVE",
"551 174 CURVE",
"565 70 OFFCURVE",
"663 -9 OFFCURVE",
"770 -8 CURVE",
"1042 132 LINE",
"1034 146 LINE",
"1012 135 OFFCURVE",
"838 38 OFFCURVE",
"810 38 CURVE SMOOTH",
"743 38 OFFCURVE",
"662 118 OFFCURVE",
"670 218 CURVE SMOOTH",
"680 330 OFFCURVE",
"728 361 OFFCURVE",
"833 396 CURVE",
"868 383 OFFCURVE",
"903 372 OFFCURVE",
"930 363 CURVE",
"931 373 LINE",
"865 406 OFFCURVE",
"759 472 OFFCURVE",
"759 589 CURVE SMOOTH",
"759 662 OFFCURVE",
"847 695 OFFCURVE",
"912 700 CURVE",
"915 700 OFFCURVE",
"918 700 OFFCURVE",
"922 699 CURVE"
);
},
{
closed = 1;
nodes = (
"922 699 LINE",
"969 692 OFFCURVE",
"1007 633 OFFCURVE",
"1007 566 CURVE SMOOTH",
"1007 544 OFFCURVE",
"1002 521 OFFCURVE",
"993 495 CURVE",
"1002 495 LINE",
"1092 688 LINE",
"1050 705 OFFCURVE",
"1002 711 OFFCURVE",
"956 711 CURVE SMOOTH",
"945 711 OFFCURVE",
"933 711 OFFCURVE",
"922 710 CURVE"
);
}
);
width = 1081;
},
{
anchors = (
{
name = bottom;
position = "{554, 0}";
},
{
name = top;
position = "{768, 700}";
}
);
associatedMasterId = "B4D6250A-EC24-4DD5-8C49-5E627D155568";
components = (
{
name = E;
transform = "{1, 0, 0, 1, 525, 0}";
}
);
layerId = "CB825BA1-2158-4165-A89E-AFD78A3D9878";
name = "14 apr 22, 01:43";
paths = (
{
closed = 1;
nodes = (
"134 191 OFFCURVE",
"95 255 OFFCURVE",
"95 259 CURVE",
"-1 190 LINE",
"-1 188 OFFCURVE",
"20 163 OFFCURVE",
"121 161 CURVE SMOOTH",
"589 153 LINE",
"614 188 LINE",
"232 190 LINE SMOOTH"
);
},
{
closed = 1;
nodes = (
"730 645 LINE",
"421 419 OFFCURVE",
"232 -124 OFFCURVE",
"18 -124 CURVE SMOOTH",
"-31 -124 OFFCURVE",
"-58 -100 OFFCURVE",
"-60 -47 CURVE",
"-69 -46 LINE",
"-181 -215 LINE",
"-162 -237 OFFCURVE",
"-122 -255 OFFCURVE",
"-78 -260 CURVE",
"285 -260 OFFCURVE",
"393 286 OFFCURVE",
"687 603 CURVE"
);
}
);
width = 1048;
}
);
leftKerningGroup = A;
rightKerningGroup = E;
rightMetricsKey = E;
unicode = 00C6;
}
{
glyphname = Eth;
layers = (
{
components = (
{
name = D;
}
);
layerId = "4AEC2A2F-21E0-4005-B5C4-61417F12BD89";
paths = (
{
closed = 1;
nodes = (
"424 362 LINE",
"426 378 LINE",
"56 378 LINE",
"54 362 LINE"
);
}
);
width = 656;
},
{
components = (
{
name = D;
}
);
layerId = "B4D6250A-EC24-4DD5-8C49-5E627D155568";
paths = (
{
closed = 1;
nodes = (
"420 360 LINE",
"422 380 LINE",
"56 380 LINE",
"54 360 LINE"
);
}
);
width = 682;
}
);
leftKerningGroup = H;
leftMetricsKey = H;
rightKerningGroup = O;
rightMetricsKey = O;
unicode = 00D0;
}
{
glyphname = Oslash;
layers = (
{
components = (
{
name = O;
}
);
layerId = "4AEC2A2F-21E0-4005-B5C4-61417F12BD89";
paths = (
{
closed = 1;
nodes = (
"746 700 LINE",
"734 716 LINE",
"-22 14 LINE",
"-10 -2 LINE"
);
}
);
width = 644;
},
{
components = (
{
name = O;
}
);
layerId = "B4D6250A-EC24-4DD5-8C49-5E627D155568";
paths = (
{
closed = 1;
nodes = (
"748 700 LINE",
"732 718 LINE",
"-24 14 LINE",
"-8 -4 LINE"
);
}
);
width = 648;
}
);
leftKerningGroup = O;
rightKerningGroup = O;
rightMetricsKey = O;
unicode = 00D8;
}
{
color = 3;
glyphname = Thorn;
layers = (
{
hints = (
{
origin = "{0, 0}";
scale = "{1.24, 1}";
type = Corner;
name = _corner.rightSerif.cap;
options = 1;
},
{
origin = "{0, 2}";
type = Corner;
name = _corner.rightSerif.cap;
options = 1;
},
{
origin = "{0, 3}";
type = Corner;
name = _corner.leftSerif.cap;
},
{
origin = "{0, 1}";
type = Corner;
name = _corner.leftSerif.cap;
}
);
layerId = "4AEC2A2F-21E0-4005-B5C4-61417F12BD89";
paths = (
{
closed = 1;
nodes = (
"136 0 LINE",
"336 700 LINE",
"238 700 LINE",
"38 0 LINE"
);
},
{
closed = 1;
nodes = (
"344 182 LINE",
"500 214 OFFCURVE",
"604 300 OFFCURVE",
"604 420 CURVE SMOOTH",
"604 516 OFFCURVE",
"536 582 OFFCURVE",
"436 582 CURVE SMOOTH",
"282 582 LINE",
"275 556 LINE",
"301 561 OFFCURVE",
"341 564 OFFCURVE",
"366 564 CURVE SMOOTH",
"448 564 OFFCURVE",
"500 498 OFFCURVE",
"500 402 CURVE SMOOTH",
"500 306 OFFCURVE",
"448 230 OFFCURVE",
"368 202 CURVE",
"302 202 OFFCURVE",
"229 210 OFFCURVE",
"180 222 CURVE",
"168 182 LINE"
);
}
);
width = 592;
},
{
hints = (
{
origin = "{0, 0}";
scale = "{1.24, 1}";
type = Corner;
name = _corner.rightSerif.cap;
options = 1;
},
{
origin = "{0, 1}";
type = Corner;
name = _corner.leftSerif.cap;
},
{
origin = "{0, 2}";
type = Corner;
name = _corner.rightSerif.cap;
options = 1;
},
{
origin = "{0, 3}";
type = Corner;
name = _corner.leftSerif.cap;
}
);
layerId = "B4D6250A-EC24-4DD5-8C49-5E627D155568";
paths = (
{
closed = 1;
nodes = (
"190 0 LINE",
"390 700 LINE",
"240 700 LINE",
"40 0 LINE"
);
},
{
closed = 1;
nodes = (
"382 161 LINE",
"542 189 OFFCURVE",
"658 284 OFFCURVE",
"658 404 CURVE SMOOTH",
"658 499 OFFCURVE",
"585 567 OFFCURVE",
"482 567 CURVE SMOOTH",
"332 567 LINE",
"322 534 LINE",
"340 539 OFFCURVE",
"364 542 OFFCURVE",
"382 542 CURVE SMOOTH",
"453 542 OFFCURVE",
"498 484 OFFCURVE",
"498 395 CURVE SMOOTH",
"498 298 OFFCURVE",
"443 216 OFFCURVE",
"358 186 CURVE",
"313 186 OFFCURVE",
"262 195 OFFCURVE",
"229 208 CURVE",
"216 161 LINE"
);
}
);
width = 648;
}
);
leftKerningGroup = H;
leftMetricsKey = H;
rightKerningGroup = Thorn;
unicode = 00DE;
}
{
color = 3;
glyphname = ae;
layers = (
{
components = (
{
name = e;
transform = "{1, 0, 0, 1, 250, 0}";
}
);
layerId = "4AEC2A2F-21E0-4005-B5C4-61417F12BD89";
paths = (
{
closed = 1;
nodes = (
"167 32 OFFCURVE",
"224 142 OFFCURVE",
"283 270 CURVE",
"287 270 LINE",
"448 444 LINE",
"414 461 OFFCURVE",
"345 484 OFFCURVE",
"307 484 CURVE",
"147 432 OFFCURVE",
"9 272 OFFCURVE",
"9 128 CURVE SMOOTH",
"9 60 OFFCURVE",
"47 2 OFFCURVE",
"103 -14 CURVE"
);
},
{
closed = 1;
nodes = (
"116 72 OFFCURVE",
"99 119 OFFCURVE",
"99 180 CURVE SMOOTH",
"99 290 OFFCURVE",
"153 400 OFFCURVE",
"252 441 CURVE",
"288 441 OFFCURVE",
"307 432 OFFCURVE",
"334 416 CURVE",
"294 317 OFFCURVE",
"204 112 OFFCURVE",
"144 64 CURVE"
);
}
);
width = 622;
},
{
background = {
paths = (
{
closed = 1;
nodes = (
"115 31 OFFCURVE",
"88 64 OFFCURVE",
"89 124 CURVE SMOOTH",
"94 265 OFFCURVE",
"208 466 OFFCURVE",
"258 466 CURVE SMOOTH",
"299 466 OFFCURVE",
"308 433 OFFCURVE",
"306 379 CURVE SMOOTH",
"302 264 OFFCURVE",
"219 31 OFFCURVE",
"126 31 CURVE SMOOTH"
);
},
{
closed = 1;
nodes = (
"216 1 OFFCURVE",
"327 124 OFFCURVE",
"420 392 CURVE",
"420 470 OFFCURVE",
"339 494 OFFCURVE",
"302 494 CURVE SMOOTH",
"152 495 OFFCURVE",
"-28 275 OFFCURVE",
"-33 114 CURVE SMOOTH",
"-36 45 OFFCURVE",
"20 4 OFFCURVE",
"79 3 CURVE SMOOTH"
);
},
{
closed = 1;
nodes = (
"258 68 OFFCURVE",
"317 5 OFFCURVE",
"403 -7 CURVE",
"458 11 OFFCURVE",
"545 70 OFFCURVE",
"575 88 CURVE",
"571 107 LINE",
"540 87 OFFCURVE",
"497 60 OFFCURVE",
"452 34 CURVE",
"402 40 OFFCURVE",
"373 74 OFFCURVE",
"373 153 CURVE SMOOTH",
"373 164 OFFCURVE",
"373 176 OFFCURVE",
"374 189 CURVE",
"436 189 OFFCURVE",
"673 318 OFFCURVE",
"673 432 CURVE SMOOTH",
"673 466 OFFCURVE",
"611 493 OFFCURVE",
"600 493 CURVE",
"458 504 OFFCURVE",
"265 311 OFFCURVE",
"260 140 CURVE SMOOTH"
);
},
{
closed = 1;
nodes = (
"379 313 OFFCURVE",
"474 466 OFFCURVE",
"554 466 CURVE SMOOTH",
"561 466 OFFCURVE",
"566 457 OFFCURVE",
"566 442 CURVE SMOOTH",
"566 377 OFFCURVE",
"420 201 OFFCURVE",
"375 201 CURVE"
);
}
);
};
components = (
{
name = e;
transform = "{1, 0, 0, 1, 282, 0}";
}
);
layerId = "B4D6250A-EC24-4DD5-8C49-5E627D155568";
paths = (
{
closed = 1;
nodes = (
"197 32 OFFCURVE",
"247 131 OFFCURVE",
"300 263 CURVE",
"308 261 LINE",
"516 448 LINE",
"468 476 OFFCURVE",
"402 496 OFFCURVE",
"342 504 CURVE",
"174 452 OFFCURVE",
"12 304 OFFCURVE",
"12 140 CURVE SMOOTH",
"12 54 OFFCURVE",
"59 -6 OFFCURVE",
"133 -14 CURVE"
);
},
{
closed = 1;
nodes = (
"169 108 OFFCURVE",
"155 143 OFFCURVE",
"155 184 CURVE SMOOTH",
"155 317 OFFCURVE",
"212 424 OFFCURVE",
"292 464 CURVE",
"314 460 OFFCURVE",
"332 450 OFFCURVE",
"348 436 CURVE",
"308 328 OFFCURVE",
"256 180 OFFCURVE",
"192 96 CURVE"
);
}
);
width = 710;
}
);
leftKerningGroup = o;
leftMetricsKey = a;
rightKerningGroup = c;
rightMetricsKey = e;
unicode = 00E6;
}
{
glyphname = brokenbar;
layers = (
{
layerId = "4AEC2A2F-21E0-4005-B5C4-61417F12BD89";
paths = (
{
closed = 1;
nodes = (
"150 310 LINE",
"285 750 LINE",
"243 750 LINE",
"108 310 LINE"
);
},
{
closed = 1;
nodes = (
"-21 -250 LINE",
"113 190 LINE",
"71 190 LINE",
"-63 -250 LINE"
);
}
);
width = 213;
},
{
layerId = "B4D6250A-EC24-4DD5-8C49-5E627D155568";
paths = (
{
closed = 1;
nodes = (
"-3 -250 LINE",
"131 189 LINE",
"68 189 LINE",
"-67 -251 LINE"
);
},
{
closed = 1;
nodes = (
"168 310 LINE",
"302 750 LINE",
"239 750 LINE",
"105 310 LINE"
);
}
);
width = 233;
}
);
leftKerningGroup = brokenbar;
rightKerningGroup = brokenbar;
unicode = 00A6;
}
{
glyphname = cent;
layers = (
{
components = (
{
name = c;
}
);
layerId = "4AEC2A2F-21E0-4005-B5C4-61417F12BD89";
paths = (
{
closed = 1;
nodes = (
"341 688 LINE",
"63 -206 LINE",
"86 -206 LINE",
"364 688 LINE"
);
}
);
width = 364;
},
{
components = (
{
name = c;
}
);
layerId = "B4D6250A-EC24-4DD5-8C49-5E627D155568";
paths = (
{
closed = 1;
nodes = (
"134 -188 LINE",
"395 706 LINE",
"360 706 LINE",
"99 -188 LINE"
);
}
);
width = 412;
}
);
leftKerningGroup = o;
leftMetricsKey = c;
rightKerningGroup = c;
rightMetricsKey = c;
unicode = 00A2;
}
{
glyphname = copyright;
layers = (
{
layerId = "4AEC2A2F-21E0-4005-B5C4-61417F12BD89";
paths = (
{
closed = 1;
nodes = (
"543 -12 OFFCURVE",
"725 190 OFFCURVE",
"725 459 CURVE SMOOTH",
"725 604 OFFCURVE",
"622 713 OFFCURVE",
"471 713 CURVE SMOOTH",
"256 713 OFFCURVE",
"59 505 OFFCURVE",
"59 237 CURVE SMOOTH",
"59 89 OFFCURVE",
"166 -12 OFFCURVE",
"323 -12 CURVE SMOOTH"
);
},
{
closed = 1;
nodes = (
"197 33 OFFCURVE",
"112 116 OFFCURVE",
"112 247 CURVE SMOOTH",
"112 462 OFFCURVE",
"285 668 OFFCURVE",
"461 668 CURVE SMOOTH",
"589 668 OFFCURVE",
"672 576 OFFCURVE",
"672 450 CURVE SMOOTH",
"672 220 OFFCURVE",
"519 33 OFFCURVE",
"334 33 CURVE SMOOTH"
);
},
{
closed = 1;
nodes = (
"498 207 LINE",
"494 215 LINE",
"469 195 OFFCURVE",
"436 177 OFFCURVE",
"404 165 CURVE",
"344 165 OFFCURVE",
"308 216 OFFCURVE",
"308 311 CURVE SMOOTH",
"308 445 OFFCURVE",
"361 503 OFFCURVE",
"440 547 CURVE",
"469 529 OFFCURVE",
"490 485 OFFCURVE",
"502 441 CURVE",
"527 441 LINE",
"560 513 LINE",
"542 544 OFFCURVE",
"503 567 OFFCURVE",
"465 573 CURVE",
"321 521 OFFCURVE",
"227 411 OFFCURVE",
"227 263 CURVE SMOOTH",
"227 170 OFFCURVE",
"279 115 OFFCURVE",
"362 115 CURVE"
);
}
);
width = 721;
},
{
layerId = "B4D6250A-EC24-4DD5-8C49-5E627D155568";
paths = (
{
closed = 1;
nodes = (
"516 -18 OFFCURVE",
"696 135 OFFCURVE",
"742 342 CURVE SMOOTH",
"787 549 OFFCURVE",
"683 710 OFFCURVE",
"487 714 CURVE SMOOTH",
"290 718 OFFCURVE",
"110 564 OFFCURVE",
"64 357 CURVE SMOOTH",
"18 151 OFFCURVE",
"122 -9 OFFCURVE",
"319 -14 CURVE SMOOTH"
);
},
{
closed = 1;
nodes = (
"167 49 OFFCURVE",
"100 181 OFFCURVE",
"138 356 CURVE SMOOTH",
"177 532 OFFCURVE",
"305 659 OFFCURVE",
"472 655 CURVE SMOOTH",
"639 652 OFFCURVE",
"706 519 OFFCURVE",
"667 343 CURVE SMOOTH",
"628 169 OFFCURVE",
"501 42 OFFCURVE",
"334 45 CURVE SMOOTH"
);
},
{
closed = 1;
nodes = (
"508 214 LINE",
"500 228 LINE",
"474 210 OFFCURVE",
"449 196 OFFCURVE",
"420 185 CURVE",
"375 192 OFFCURVE",
"346 231 OFFCURVE",
"346 301 CURVE SMOOTH",
"346 416 OFFCURVE",
"392 504 OFFCURVE",
"453 544 CURVE",
"479 526 OFFCURVE",
"489 468 OFFCURVE",
"498 418 CURVE",
"528 418 LINE",
"566 515 LINE",
"546 544 OFFCURVE",
"506 565 OFFCURVE",
"469 569 CURVE",
"317 536 OFFCURVE",
"228 423 OFFCURVE",
"228 279 CURVE SMOOTH",
"228 184 OFFCURVE",
"287 133 OFFCURVE",
"382 133 CURVE"
);
}
);
width = 746;
}
);
leftKerningGroup = copyright;
leftMetricsKey = O;
rightKerningGroup = copyright;
rightMetricsKey = O;
unicode = 00A9;
}
{
glyphname = currency;
layers = (
{
layerId = "4AEC2A2F-21E0-4005-B5C4-61417F12BD89";
paths = (
{
closed = 1;
nodes = (
"257 178 OFFCURVE",
"322 229 OFFCURVE",
"339 293 CURVE SMOOTH",
"357 357 OFFCURVE",
"319 410 OFFCURVE",
"258 412 CURVE SMOOTH",
"197 413 OFFCURVE",
"132 361 OFFCURVE",
"115 297 CURVE SMOOTH",
"97 233 OFFCURVE",
"135 181 OFFCURVE",
"196 179 CURVE SMOOTH"
);
},
{
closed = 1;
nodes = (
"170 224 OFFCURVE",
"147 256 OFFCURVE",
"159 296 CURVE SMOOTH",
"169 336 OFFCURVE",
"209 368 OFFCURVE",
"247 367 CURVE SMOOTH",
"284 366 OFFCURVE",
"306 333 OFFCURVE",
"295 294 CURVE SMOOTH",
"284 253 OFFCURVE",
"245 222 OFFCURVE",
"207 223 CURVE SMOOTH"
);
},
{
closed = 1;
nodes = (
"309 337 LINE",
"420 425 LINE",
"397 459 LINE",
"285 370 LINE"
);
},
{
closed = 1;
nodes = (
"206 370 LINE",
"135 470 LINE",
"100 443 LINE",
"172 344 LINE"
);
},
{
closed = 1;
nodes = (
"250 227 LINE",
"319 127 LINE",
"354 154 LINE",
"284 252 LINE"
);
},
{
closed = 1;
nodes = (
"147 253 LINE",
"33 171 LINE",
"56 139 LINE",
"168 223 LINE"
);
}
);
width = 423;
},
{
layerId = "B4D6250A-EC24-4DD5-8C49-5E627D155568";
paths = (
{
closed = 1;
nodes = (
"278 177 OFFCURVE",
"346 231 OFFCURVE",
"365 299 CURVE SMOOTH",
"383 367 OFFCURVE",
"343 424 OFFCURVE",
"277 426 CURVE SMOOTH",
"210 427 OFFCURVE",
"142 373 OFFCURVE",
"123 305 CURVE SMOOTH",
"105 237 OFFCURVE",
"145 180 OFFCURVE",
"211 178 CURVE SMOOTH"
);
},
{
closed = 1;
nodes = (
"192 235 OFFCURVE",
"171 267 OFFCURVE",
"181 303 CURVE SMOOTH",
"191 341 OFFCURVE",
"227 371 OFFCURVE",
"261 370 CURVE SMOOTH",
"296 369 OFFCURVE",
"317 337 OFFCURVE",
"307 301 CURVE SMOOTH",
"297 263 OFFCURVE",
"260 233 OFFCURVE",
"227 234 CURVE SMOOTH"
);
},
{
closed = 1;
nodes = (
"326 326 LINE",
"453 428 LINE",
"415 482 LINE",
"286 381 LINE"
);
},
{
closed = 1;
nodes = (
"241 379 LINE",
"160 492 LINE",
"101 446 LINE",
"182 334 LINE"
);
},
{
closed = 1;
nodes = (
"251 231 LINE",
"329 117 LINE",
"388 163 LINE",
"308 273 LINE"
);
},
{
closed = 1;
nodes = (
"164 278 LINE",
"33 183 LINE",
"73 126 LINE",
"203 223 LINE"
);
}
);
width = 453;
}
);
leftKerningGroup = currency;
rightKerningGroup = currency;
unicode = 00A4;
}
{
glyphname = degree;
layers = (
{
layerId = "4AEC2A2F-21E0-4005-B5C4-61417F12BD89";
paths = (
{
closed = 1;
nodes = (
"296 549 OFFCURVE",
"351 596 OFFCURVE",
"365 655 CURVE SMOOTH",
"378 714 OFFCURVE",
"345 763 OFFCURVE",
"293 764 CURVE SMOOTH",
"240 765 OFFCURVE",
"184 717 OFFCURVE",
"170 660 CURVE SMOOTH",
"156 602 OFFCURVE",
"190 551 OFFCURVE",
"244 550 CURVE SMOOTH"
);
},
{
closed = 1;
nodes = (
"313 725 OFFCURVE",
"329 694 OFFCURVE",
"320 655 CURVE SMOOTH",
"311 616 OFFCURVE",
"282 588 OFFCURVE",
"252 589 CURVE SMOOTH",
"221 590 OFFCURVE",
"203 620 OFFCURVE",
"212 657 CURVE SMOOTH",
"220 695 OFFCURVE",
"253 726 OFFCURVE",
"283 725 CURVE SMOOTH"
);
}
);
width = 277;
},
{
layerId = "B4D6250A-EC24-4DD5-8C49-5E627D155568";
paths = (
{
closed = 1;
nodes = (
"309 529 OFFCURVE",
"364 577 OFFCURVE",
"379 645 CURVE SMOOTH",
"395 712 OFFCURVE",
"359 763 OFFCURVE",
"297 764 CURVE SMOOTH",
"237 765 OFFCURVE",
"180 717 OFFCURVE",
"164 650 CURVE SMOOTH",
"148 584 OFFCURVE",
"185 531 OFFCURVE",
"248 530 CURVE SMOOTH"
);
},
{
closed = 1;
nodes = (
"312 704 OFFCURVE",
"322 681 OFFCURVE",
"314 645 CURVE SMOOTH",
"306 612 OFFCURVE",
"282 588 OFFCURVE",
"256 589 CURVE SMOOTH",
"231 590 OFFCURVE",
"219 614 OFFCURVE",
"226 647 CURVE SMOOTH",
"234 679 OFFCURVE",
"261 705 OFFCURVE",
"287 705 CURVE SMOOTH"
);
}
);
width = 297;
}
);
leftKerningGroup = ringcomb;
rightKerningGroup = ringcomb;
unicode = 00B0;
}
{
glyphname = divide;
layers = (
{
layerId = "4AEC2A2F-21E0-4005-B5C4-61417F12BD89";
paths = (
{
closed = 1;
nodes = (
"410 216 LINE",
"422 256 LINE",
"46 256 LINE",
"34 216 LINE"
);
},
{
closed = 1;
nodes = (
"281 318 OFFCURVE",
"305 338 OFFCURVE",
"312 364 CURVE SMOOTH",
"318 388 OFFCURVE",
"305 409 OFFCURVE",
"280 410 CURVE SMOOTH",
"257 410 OFFCURVE",
"231 390 OFFCURVE",
"225 366 CURVE SMOOTH",
"218 340 OFFCURVE",
"232 319 OFFCURVE",
"256 318 CURVE SMOOTH"
);
},
{
closed = 1;
nodes = (
"201 63 OFFCURVE",
"225 83 OFFCURVE",
"232 109 CURVE SMOOTH",
"238 133 OFFCURVE",
"225 154 OFFCURVE",
"200 155 CURVE SMOOTH",
"177 155 OFFCURVE",
"151 135 OFFCURVE",
"145 111 CURVE SMOOTH",
"138 85 OFFCURVE",
"152 64 OFFCURVE",
"176 63 CURVE SMOOTH"
);
}
);
width = 456;
},
{
background = {
paths = (
{
closed = 1;
nodes = (
"448 216 LINE",
"448 256 LINE",
"72 256 LINE",
"72 216 LINE"
);
},
{
closed = 1;
nodes = (
"287 317 OFFCURVE",
"307 338 OFFCURVE",
"307 365 CURVE SMOOTH",
"307 390 OFFCURVE",
"287 411 OFFCURVE",
"260 411 CURVE SMOOTH",
"235 411 OFFCURVE",
"213 390 OFFCURVE",
"213 365 CURVE SMOOTH",
"213 338 OFFCURVE",
"235 317 OFFCURVE",
"260 317 CURVE SMOOTH"
);
},
{
closed = 1;
nodes = (
"287 62 OFFCURVE",
"307 83 OFFCURVE",
"307 110 CURVE SMOOTH",
"307 135 OFFCURVE",
"287 156 OFFCURVE",
"260 156 CURVE SMOOTH",
"235 156 OFFCURVE",
"213 135 OFFCURVE",
"213 110 CURVE SMOOTH",
"213 83 OFFCURVE",
"235 62 OFFCURVE",
"260 62 CURVE SMOOTH"
);
}
);
};
layerId = "B4D6250A-EC24-4DD5-8C49-5E627D155568";
paths = (
{
closed = 1;
nodes = (
"406 207 LINE",
"422 265 LINE",
"46 265 LINE",
"30 207 LINE"
);
},
{
closed = 1;
nodes = (
"202 47 OFFCURVE",
"230 71 OFFCURVE",
"238 100 CURVE SMOOTH",
"246 129 OFFCURVE",
"231 153 OFFCURVE",
"202 153 CURVE SMOOTH",
"176 154 OFFCURVE",
"146 131 OFFCURVE",
"138 102 CURVE SMOOTH",
"130 73 OFFCURVE",
"147 48 OFFCURVE",
"174 48 CURVE SMOOTH"
);
},
{
closed = 1;
nodes = (
"277 315 OFFCURVE",
"305 339 OFFCURVE",
"313 368 CURVE SMOOTH",
"321 397 OFFCURVE",
"306 421 OFFCURVE",
"277 422 CURVE SMOOTH",
"251 422 OFFCURVE",
"221 399 OFFCURVE",
"213 370 CURVE SMOOTH",
"205 341 OFFCURVE",
"222 316 OFFCURVE",
"249 316 CURVE SMOOTH"
);
}
);
width = 458;
}
);
leftKerningGroup = divide;
rightKerningGroup = divide;
unicode = 00F7;
}
{
color = 1;
glyphname = eth;
layers = (
{
layerId = "4AEC2A2F-21E0-4005-B5C4-61417F12BD89";
paths = (
{
closed = 1;
nodes = (
"352 31 OFFCURVE",
"478 199 OFFCURVE",
"478 390 CURVE SMOOTH",
"478 559 OFFCURVE",
"384 708 OFFCURVE",
"252 752 CURVE",
"246 744 LINE",
"324 674 OFFCURVE",
"380 548 OFFCURVE",
"380 440 CURVE",
"376 438 LINE",
"272 484 LINE",
"112 432 OFFCURVE",
"26 318 OFFCURVE",
"26 172 CURVE SMOOTH",
"26 88 OFFCURVE",
"83 -14 OFFCURVE",
"174 -14 CURVE"
);
},
{
closed = 1;
nodes = (
"155 29 OFFCURVE",
"120 79 OFFCURVE",
"120 176 CURVE SMOOTH",
"120 286 OFFCURVE",
"174 396 OFFCURVE",
"273 437 CURVE",
"314 437 OFFCURVE",
"362 424 OFFCURVE",
"396 404 CURVE",
"384 420 LINE",
"384 239 OFFCURVE",
"324 112 OFFCURVE",
"201 10 CURVE"
);
},
{
closed = 1;
nodes = (
"496 696 LINE",
"492 708 LINE",
"200 584 LINE",
"204 572 LINE"
);
}
);
width = 488;
},
{
background = {
paths = (
{
closed = 1;
nodes = (
"83 258 OFFCURVE",
"83 92 CURVE SMOOTH",
"83 25 OFFCURVE",
"119 -5 OFFCURVE",
"155 -13 CURVE",
"343 -14 OFFCURVE",
"554 216 OFFCURVE",
"554 418 CURVE SMOOTH",
"554 596 OFFCURVE",
"433 723 OFFCURVE",
"340 750 CURVE",
"330 736 LINE",
"410 723 OFFCURVE",
"465 606 OFFCURVE",
"465 510 CURVE SMOOTH",
"465 498 OFFCURVE",
"464 486 OFFCURVE",
"462 474 CURVE",
"440 479 LINE",
"273 449 OFFCURVE"
);
}
);
};
layerId = "B4D6250A-EC24-4DD5-8C49-5E627D155568";
paths = (
{
closed = 1;
nodes = (
"398 33 OFFCURVE",
"530 200 OFFCURVE",
"530 390 CURVE SMOOTH",
"530 552 OFFCURVE",
"422 703 OFFCURVE",
"270 754 CURVE",
"262 742 LINE",
"340 672 OFFCURVE",
"378 568 OFFCURVE",
"378 460 CURVE",
"370 458 LINE",
"310 504 LINE",
"138 464 OFFCURVE",
"32 350 OFFCURVE",
"32 202 CURVE SMOOTH",
"32 81 OFFCURVE",
"107 -14 OFFCURVE",
"212 -14 CURVE"
);
},
{
closed = 1;
nodes = (
"204 34 OFFCURVE",
"182 103 OFFCURVE",
"182 190 CURVE SMOOTH",
"182 301 OFFCURVE",
"229 405 OFFCURVE",
"302 456 CURVE",
"338 447 OFFCURVE",
"372 435 OFFCURVE",
"390 424 CURVE",
"378 440 LINE",
"378 265 OFFCURVE",
"323 98 OFFCURVE",
"238 14 CURVE"
);
},
{
closed = 1;
nodes = (
"518 684 LINE",
"510 702 LINE",
"218 578 LINE",
"226 560 LINE"
);
}
);
width = 536;
},
{
associatedMasterId = "4AEC2A2F-21E0-4005-B5C4-61417F12BD89";
components = (
{
name = endash;
transform = "{-0.86603, -0.5, 0.17235, -0.29852, 572, 845}";
}
);
layerId = "266150B1-4FA0-49AF-98A5-AFEA4F16F40F";
name = "13 apr 22, 14:26";
paths = (
{
closed = 1;
nodes = (
"379 501 OFFCURVE",
"377 477 OFFCURVE",
"376 474 CURVE",
"354 479 LINE",
"187 449 OFFCURVE",
"-3 258 OFFCURVE",
"-3 92 CURVE SMOOTH",
"-3 25 OFFCURVE",
"33 -5 OFFCURVE",
"69 -13 CURVE",
"257 -14 OFFCURVE",
"468 216 OFFCURVE",
"468 418 CURVE SMOOTH",
"468 563 OFFCURVE",
"374 715 OFFCURVE",
"254 750 CURVE",
"244 736 LINE",
"324 723 OFFCURVE",
"379 606 OFFCURVE",
"379 510 CURVE SMOOTH"
);
},
{
closed = 1;
nodes = (
"90 217 OFFCURVE",
"205 449 OFFCURVE",
"309 449 CURVE SMOOTH",
"351 449 OFFCURVE",
"366 412 OFFCURVE",
"366 369 CURVE SMOOTH",
"366 230 OFFCURVE",
"257 7 OFFCURVE",
"136 19 CURVE SMOOTH",
"105 22 OFFCURVE",
"90 55 OFFCURVE",
"90 97 CURVE SMOOTH"
);
}
);
width = 461;
}
);
leftKerningGroup = eth;
leftMetricsKey = d;
rightKerningGroup = eth;
rightMetricsKey = O;
unicode = 00F0;
}
{
color = 3;
glyphname = exclamdown;
layers = (
{
components = (
{
name = period;
transform = "{1, 0, 0, 1, 102, 374}";
}
);
layerId = "4AEC2A2F-21E0-4005-B5C4-61417F12BD89";
paths = (
{
closed = 1;
nodes = (
"36 -250 LINE",
"94 -51 OFFCURVE",
"95 110 OFFCURVE",
"147 288 CURVE",
"127 288 LINE",
"76 112 OFFCURVE",
"-10 -47 OFFCURVE",
"-68 -250 CURVE"
);
}
);
width = 244;
},
{
components = (
{
name = period;
transform = "{1, 0, 0, 1, 114, 374}";
}
);
layerId = "B4D6250A-EC24-4DD5-8C49-5E627D155568";
paths = (
{
closed = 1;
nodes = (
"77 -250 LINE",
"135 -51 OFFCURVE",
"110 110 OFFCURVE",
"161 288 CURVE",
"135 288 LINE",
"85 112 OFFCURVE",
"-22 -47 OFFCURVE",
"-80 -250 CURVE"
);
}
);
width = 280;
}
);
leftKerningGroup = exclamdown;
rightKerningGroup = exclamdown;
unicode = 00A1;
}
{
color = 3;
glyphname = germandbls;
layers = (
{
background = {
paths = (
{
closed = 1;
nodes = (
"-179 -250 OFFCURVE",
"-146 -259 OFFCURVE",
"-112 -258 CURVE SMOOTH",
"-75 -258 OFFCURVE",
"91 -46 OFFCURVE",
"110 -6 CURVE",
"141 103 OFFCURVE",
"256 507 OFFCURVE",
"306 661 CURVE",
"306 663 OFFCURVE",
"367 694 OFFCURVE",
"394 694 CURVE SMOOTH",
"452 694 OFFCURVE",
"484 680 OFFCURVE",
"476 602 CURVE SMOOTH",
"473 573 OFFCURVE",
"396 469 OFFCURVE",
"357 422 CURVE",
"366 417 LINE",
"431 494 OFFCURVE",
"560 550 OFFCURVE",
"567 614 CURVE SMOOTH",
"577 705 OFFCURVE",
"534 754 OFFCURVE",
"438 762 CURVE",
"372 744 OFFCURVE",
"186 574 OFFCURVE",
"166 502 CURVE SMOOTH",
"59 124 LINE",
"48 76 OFFCURVE",
"-7 -133 OFFCURVE",
"-22 -168 CURVE",
"-31 -176 OFFCURVE",
"-73 -161 OFFCURVE",
"-119 -187 CURVE SMOOTH",
"-198 -231 LINE"
);
},
{
closed = 1;
nodes = (
"93 438 LINE",
"151 445 LINE",
"233 446 LINE",
"228 459 LINE",
"156 463 LINE",
"88 462 LINE"
);
},
{
closed = 1;
nodes = (
"357 422 LINE",
"333 394 OFFCURVE",
"317 363 OFFCURVE",
"313 334 CURVE SMOOTH",
"300 223 OFFCURVE",
"469 170 OFFCURVE",
"459 89 CURVE",
"438 60 OFFCURVE",
"396 29 OFFCURVE",
"355 29 CURVE",
"321 33 OFFCURVE",
"274 55 OFFCURVE",
"251 90 CURVE",
"198 44 LINE",
"199 6 OFFCURVE",
"273 -28 OFFCURVE",
"307 -20 CURVE SMOOTH",
"415 5 OFFCURVE",
"497 89 OFFCURVE",
"511 198 CURVE SMOOTH",
"516 241 OFFCURVE",
"366 320 OFFCURVE",
"366 417 CURVE"
);
}
);
};
layerId = "4AEC2A2F-21E0-4005-B5C4-61417F12BD89";
paths = (
{
closed = 1;
nodes = (
"-71 -240 OFFCURVE",
"24 -148 OFFCURVE",
"88 -64 CURVE",
"276 592 LINE SMOOTH",
"299 672 OFFCURVE",
"355 721 OFFCURVE",
"412 740 CURVE",
"451 740 OFFCURVE",
"476 699 OFFCURVE",
"476 636 CURVE SMOOTH",
"476 496 OFFCURVE",
"308 448 OFFCURVE",
"308 340 CURVE SMOOTH",
"308 236 OFFCURVE",
"452 172 OFFCURVE",
"452 92 CURVE",
"436 64 OFFCURVE",
"408 44 OFFCURVE",
"368 36 CURVE",
"264 100 LINE",
"240 96 LINE",
"205 44 LINE",
"227 16 OFFCURVE",
"266 -8 OFFCURVE",
"300 -14 CURVE",
"404 10 OFFCURVE",
"500 86 OFFCURVE",
"500 166 CURVE SMOOTH",
"500 266 OFFCURVE",
"352 328 OFFCURVE",
"352 412 CURVE",
"401 475 OFFCURVE",
"566 535 OFFCURVE",
"566 652 CURVE SMOOTH",
"566 723 OFFCURVE",
"509 764 OFFCURVE",
"424 764 CURVE",
"348 734 OFFCURVE",
"250 661 OFFCURVE",
"188 588 CURVE",
"-15 -116 LINE",
"-30 -166 OFFCURVE",
"-56 -200 OFFCURVE",
"-96 -220 CURVE",
"-243 -144 LINE",
"-272 -148 LINE",
"-309 -212 LINE",
"-258 -245 OFFCURVE",
"-207 -264 OFFCURVE",
"-159 -264 CURVE"
);
},
{
closed = 1;
nodes = (
"217 456 LINE",
"221 470 LINE",
"88 470 LINE",
"84 456 LINE"
);
}
);
width = 556;
},
{
background = {
anchors = (
{
name = bottom;
position = "{227, 0}";
},
{
name = top;
position = "{456, 750}";
}
);
paths = (
{
closed = 1;
nodes = (
"-206 -250 OFFCURVE",
"-173 -259 OFFCURVE",
"-139 -258 CURVE SMOOTH",
"-102 -258 OFFCURVE",
"105 -46 OFFCURVE",
"124 -6 CURVE",
"155 103 OFFCURVE",
"270 507 OFFCURVE",
"320 661 CURVE",
"320 663 OFFCURVE",
"381 694 OFFCURVE",
"394 694 CURVE SMOOTH",
"452 694 OFFCURVE",
"484 680 OFFCURVE",
"476 602 CURVE SMOOTH",
"473 573 OFFCURVE",
"396 469 OFFCURVE",
"357 422 CURVE SMOOTH",
"333 394 OFFCURVE",
"317 363 OFFCURVE",
"313 334 CURVE SMOOTH",
"300 223 OFFCURVE",
"457 170 OFFCURVE",
"447 89 CURVE",
"426 60 OFFCURVE",
"384 49 OFFCURVE",
"355 49 CURVE",
"321 53 OFFCURVE",
"284 75 OFFCURVE",
"261 110 CURVE",
"198 34 LINE",
"199 -4 OFFCURVE",
"273 -38 OFFCURVE",
"307 -30 CURVE SMOOTH",
"415 -5 OFFCURVE",
"527 89 OFFCURVE",
"541 198 CURVE SMOOTH",
"546 241 OFFCURVE",
"391 334 OFFCURVE",
"391 431 CURVE",
"456 508 OFFCURVE",
"580 550 OFFCURVE",
"587 614 CURVE SMOOTH",
"597 705 OFFCURVE",
"554 754 OFFCURVE",
"438 762 CURVE",
"372 744 OFFCURVE",
"159 574 OFFCURVE",
"139 502 CURVE SMOOTH",
"32 124 LINE",
"21 76 OFFCURVE",
"-34 -133 OFFCURVE",
"-49 -168 CURVE",
"-58 -176 OFFCURVE",
"-100 -161 OFFCURVE",
"-146 -187 CURVE SMOOTH",
"-225 -231 LINE"
);
},
{
closed = 1;
nodes = (
"66 438 LINE",
"124 445 LINE",
"247 446 LINE",
"242 459 LINE",
"129 463 LINE",
"61 462 LINE"
);
}
);
};
layerId = "B4D6250A-EC24-4DD5-8C49-5E627D155568";
paths = (
{
closed = 1;
nodes = (
"-66 -241 OFFCURVE",
"68 -153 OFFCURVE",
"140 -52 CURVE",
"320 586 LINE SMOOTH",
"340 657 OFFCURVE",
"390 712 OFFCURVE",
"432 736 CURVE",
"456 724 OFFCURVE",
"468 680 OFFCURVE",
"468 640 CURVE SMOOTH",
"468 510 OFFCURVE",
"322 467 OFFCURVE",
"322 348 CURVE SMOOTH",
"322 228 OFFCURVE",
"478 180 OFFCURVE",
"482 84 CURVE",
"466 64 OFFCURVE",
"448 52 OFFCURVE",
"424 44 CURVE",
"282 132 LINE",
"250 124 LINE",
"206 36 LINE",
"238 12 OFFCURVE",
"296 -12 OFFCURVE",
"334 -14 CURVE",
"450 10 OFFCURVE",
"552 84 OFFCURVE",
"552 180 CURVE SMOOTH",
"552 300 OFFCURVE",
"388 348 OFFCURVE",
"384 448 CURVE",
"440 508 OFFCURVE",
"608 536 OFFCURVE",
"608 644 CURVE SMOOTH",
"608 710 OFFCURVE",
"542 760 OFFCURVE",
"448 764 CURVE",
"342 743 OFFCURVE",
"240 652 OFFCURVE",
"168 544 CURVE",
"-24 -132 LINE SMOOTH",
"-32 -160 OFFCURVE",
"-48 -182 OFFCURVE",
"-68 -196 CURVE",
"-224 -112 LINE",
"-264 -120 LINE",
"-316 -200 LINE",
"-272 -236 OFFCURVE",
"-219 -260 OFFCURVE",
"-183 -264 CURVE"
);
},
{
closed = 1;
nodes = (
"267 468 LINE",
"271 490 LINE",
"92 490 LINE",
"88 468 LINE"
);
}
);
width = 608;
},
{
anchors = (
{
name = bottom;
position = "{227, 0}";
},
{
name = top;
position = "{456, 750}";
}
);
associatedMasterId = "B4D6250A-EC24-4DD5-8C49-5E627D155568";
background = {
components = (
{
name = f;
transform = "{1, 0, 0, 1, -30, 0}";
}
);
};
layerId = "35992181-B50C-4316-AED1-723747CD82F7";
name = "13 apr 22, 11:55";
paths = (
{
closed = 1;
nodes = (
"-206 -250 OFFCURVE",
"-173 -259 OFFCURVE",
"-139 -258 CURVE SMOOTH",
"-102 -258 OFFCURVE",
"105 -46 OFFCURVE",
"124 -6 CURVE",
"155 103 OFFCURVE",
"270 507 OFFCURVE",
"320 661 CURVE",
"320 663 OFFCURVE",
"381 694 OFFCURVE",
"394 694 CURVE SMOOTH",
"452 694 OFFCURVE",
"484 680 OFFCURVE",
"476 602 CURVE SMOOTH",
"473 573 OFFCURVE",
"396 469 OFFCURVE",
"357 422 CURVE SMOOTH",
"333 394 OFFCURVE",
"317 363 OFFCURVE",
"313 334 CURVE SMOOTH",
"300 223 OFFCURVE",
"457 170 OFFCURVE",
"447 89 CURVE",
"426 60 OFFCURVE",
"384 49 OFFCURVE",
"355 49 CURVE",
"321 53 OFFCURVE",
"284 75 OFFCURVE",
"261 110 CURVE",
"198 34 LINE",
"199 -4 OFFCURVE",
"273 -38 OFFCURVE",
"307 -30 CURVE SMOOTH",
"415 -5 OFFCURVE",
"527 89 OFFCURVE",
"541 198 CURVE SMOOTH",
"546 241 OFFCURVE",
"391 334 OFFCURVE",
"391 431 CURVE",
"456 508 OFFCURVE",
"580 550 OFFCURVE",
"587 614 CURVE SMOOTH",
"597 705 OFFCURVE",
"554 754 OFFCURVE",
"438 762 CURVE",
"372 744 OFFCURVE",
"159 574 OFFCURVE",
"139 502 CURVE SMOOTH",
"32 124 LINE",
"21 76 OFFCURVE",
"-34 -133 OFFCURVE",
"-49 -168 CURVE",
"-58 -176 OFFCURVE",
"-100 -161 OFFCURVE",
"-146 -187 CURVE SMOOTH",
"-225 -231 LINE"
);
},
{
closed = 1;
nodes = (
"66 438 LINE",
"124 445 LINE",
"247 446 LINE",
"242 459 LINE",
"129 463 LINE",
"61 462 LINE"
);
}
);
width = 588;
},
{
associatedMasterId = "4AEC2A2F-21E0-4005-B5C4-61417F12BD89";
layerId = "F156633C-5EE4-4C59-BC23-058DBE22488F";
name = "13 apr 22, 11:55";
paths = (
{
closed = 1;
nodes = (
"-179 -250 OFFCURVE",
"-146 -259 OFFCURVE",
"-112 -258 CURVE SMOOTH",
"-75 -258 OFFCURVE",
"91 -46 OFFCURVE",
"110 -6 CURVE",
"141 103 OFFCURVE",
"256 507 OFFCURVE",
"306 661 CURVE",
"306 663 OFFCURVE",
"367 694 OFFCURVE",
"394 694 CURVE SMOOTH",
"452 694 OFFCURVE",
"484 680 OFFCURVE",
"476 602 CURVE SMOOTH",
"473 573 OFFCURVE",
"396 469 OFFCURVE",
"357 422 CURVE",
"366 417 LINE",
"431 494 OFFCURVE",
"560 550 OFFCURVE",
"567 614 CURVE SMOOTH",
"577 705 OFFCURVE",
"534 754 OFFCURVE",
"438 762 CURVE",
"372 744 OFFCURVE",
"186 574 OFFCURVE",
"166 502 CURVE SMOOTH",
"59 124 LINE",
"48 76 OFFCURVE",
"-7 -133 OFFCURVE",
"-22 -168 CURVE",
"-31 -176 OFFCURVE",
"-73 -161 OFFCURVE",
"-119 -187 CURVE SMOOTH",
"-198 -231 LINE"
);
},
{
closed = 1;
nodes = (
"93 438 LINE",
"151 445 LINE",
"233 446 LINE",
"228 459 LINE",
"156 463 LINE",
"88 462 LINE"
);
},
{
closed = 1;
nodes = (
"357 422 LINE",
"333 394 OFFCURVE",
"317 363 OFFCURVE",
"313 334 CURVE SMOOTH",
"300 223 OFFCURVE",
"469 170 OFFCURVE",
"459 89 CURVE",
"438 60 OFFCURVE",
"396 29 OFFCURVE",
"355 29 CURVE",
"321 33 OFFCURVE",
"274 55 OFFCURVE",
"251 90 CURVE",
"198 44 LINE",
"199 6 OFFCURVE",
"273 -28 OFFCURVE",
"307 -20 CURVE SMOOTH",
"415 5 OFFCURVE",
"497 89 OFFCURVE",
"511 198 CURVE SMOOTH",
"516 241 OFFCURVE",
"366 320 OFFCURVE",
"366 417 CURVE"
);
}
);
width = 556;
}
);
leftKerningGroup = f;
leftMetricsKey = f;
rightMetricsKey = s;
unicode = 00DF;
}
{
glyphname = logicalnot;
layers = (
{
layerId = "4AEC2A2F-21E0-4005-B5C4-61417F12BD89";
paths = (
{
closed = 1;
nodes = (
"389 60 LINE",
"446 256 LINE",
"46 256 LINE",
"35 218 LINE",
"391 218 LINE",
"346 60 LINE"
);
}
);
width = 483;
},
{
background = {
paths = (
{
closed = 1;
nodes = (
"448 207 LINE",
"448 265 LINE",
"72 265 LINE",
"72 207 LINE"
);
},
{
closed = 1;
nodes = (
"474 62 LINE",
"474 444 LINE",
"406 444 LINE",
"406 62 LINE"
);
}
);
};
layerId = "B4D6250A-EC24-4DD5-8C49-5E627D155568";
paths = (
{
closed = 1;
nodes = (
"391 60 LINE",
"446 265 LINE",
"46 265 LINE",
"31 207 LINE",
"362 207 LINE",
"323 60 LINE"
);
}
);
width = 488;
}
);
leftKerningGroup = logicalnot;
rightKerningGroup = logicalnot;
unicode = 00AC;
}
{
glyphname = micro;
layers = (
{
components = (
{
name = u;
}
);
layerId = "4AEC2A2F-21E0-4005-B5C4-61417F12BD89";
paths = (
{
closed = 1;
nodes = (
"32 105 LINE",
"-57 -208 LINE",
"50 -149 LINE",
"40 -127 OFFCURVE",
"51 39 OFFCURVE",
"61 76 CURVE"
);
}
);
width = 501;
},
{
components = (
{
name = u;
}
);
layerId = "B4D6250A-EC24-4DD5-8C49-5E627D155568";
paths = (
{
closed = 1;
nodes = (
"48 172 LINE",
"-58 -227 LINE",
"82 -149 LINE",
"72 -127 OFFCURVE",
"83 39 OFFCURVE",
"93 76 CURVE"
);
}
);
width = 584;
}
);
leftKerningGroup = micro;
leftMetricsKey = u;
rightKerningGroup = micro;
rightMetricsKey = idotless;
unicode = 00B5;
}
{
glyphname = multiply;
layers = (
{
layerId = "4AEC2A2F-21E0-4005-B5C4-61417F12BD89";
paths = (
{
closed = 1;
nodes = (
"195 207 LINE",
"286 72 LINE",
"322 100 LINE",
"230 234 LINE",
"382 355 LINE",
"360 385 LINE",
"208 265 LINE",
"116 397 LINE",
"81 370 LINE",
"173 238 LINE",
"19 116 LINE",
"42 84 LINE"
);
}
);
width = 403;
},
{
layerId = "B4D6250A-EC24-4DD5-8C49-5E627D155568";
paths = (
{
closed = 1;
nodes = (
"195 193 LINE",
"281 65 LINE",
"333 106 LINE",
"246 231 LINE",
"392 346 LINE",
"358 393 LINE",
"215 280 LINE",
"129 406 LINE",
"77 366 LINE",
"164 242 LINE",
"17 126 LINE",
"52 77 LINE"
);
}
);
width = 415;
}
);
leftKerningGroup = multiply;
rightKerningGroup = multiply;
unicode = 00D7;
}
{
glyphname = oslash;
layers = (
{
components = (
{
name = o;
}
);
layerId = "4AEC2A2F-21E0-4005-B5C4-61417F12BD89";
paths = (
{
closed = 1;
nodes = (
"482 472 LINE",
"472 486 LINE",
"-40 12 LINE",
"-30 -2 LINE"
);
}
);
width = 446;
},
{
components = (
{
name = o;
}
);
layerId = "B4D6250A-EC24-4DD5-8C49-5E627D155568";
paths = (
{
closed = 1;
nodes = (
"540 490 LINE",
"526 508 LINE",
"-44 14 LINE",
"-30 -4 LINE"
);
}
);
width = 494;
},
{
associatedMasterId = "4AEC2A2F-21E0-4005-B5C4-61417F12BD89";
components = (
{
name = o;
}
);
layerId = "D977EFDF-513C-4179-91CE-FA64CA39BB31";
name = "13 apr 22, 22:40";
paths = (
{
closed = 1;
nodes = (
"457 470 LINE",
"-76 0 LINE",
"-37 0 LINE",
"496 470 LINE"
);
}
);
width = 422;
}
);
leftKerningGroup = o;
leftMetricsKey = o;
rightKerningGroup = o;
rightMetricsKey = o;
unicode = 00F8;
}
{
glyphname = paragraph;
layers = (
{
hints = (
{
origin = "{0, 0}";
scale = "{0.8, 1}";
type = Corner;
name = _corner.rightSerif.cap;
options = 1;
},
{
origin = "{0, 1}";
scale = "{0.8, 1}";
type = Corner;
name = _corner.leftSerif.cap;
},
{
origin = "{0, 10}";
scale = "{0.8, 1}";
type = Corner;
name = _corner.leftSerif.cap;
}
);
layerId = "4AEC2A2F-21E0-4005-B5C4-61417F12BD89";
paths = (
{
closed = 1;
nodes = (
"336 0 LINE",
"550 700 LINE",
"382 700 LINE",
"213 701 OFFCURVE",
"118 582 OFFCURVE",
"118 452 CURVE SMOOTH",
"118 351 OFFCURVE",
"192 314 OFFCURVE",
"261 314 CURVE",
"331 313 LINE",
"236 0 LINE"
);
},
{
closed = 1;
nodes = (
"492 673 LINE",
"312 29 LINE",
"275 29 LINE",
"482 673 LINE"
);
}
);
width = 507;
},
{
hints = (
{
origin = "{0, 0}";
scale = "{0.8, 1}";
type = Corner;
name = _corner.rightSerif.cap;
options = 1;
},
{
origin = "{0, 1}";
scale = "{0.6, 1}";
type = Corner;
name = _corner.leftSerif.cap;
},
{
origin = "{0, 10}";
scale = "{0.8, 1}";
type = Corner;
name = _corner.leftSerif.cap;
options = 4;
}
);
layerId = "B4D6250A-EC24-4DD5-8C49-5E627D155568";
paths = (
{
closed = 1;
nodes = (
"383 0 LINE",
"595 700 LINE",
"399 700 LINE",
"210 701 OFFCURVE",
"115 582 OFFCURVE",
"115 452 CURVE SMOOTH",
"115 351 OFFCURVE",
"189 314 OFFCURVE",
"278 314 CURVE",
"328 313 LINE",
"230 0 LINE"
);
},
{
closed = 1;
nodes = (
"509 671 LINE",
"339 36 LINE",
"302 36 LINE",
"499 671 LINE"
);
}
);
width = 564;
}
);
leftKerningGroup = paragraph;
rightKerningGroup = paragraph;
unicode = 00B6;
}
{
glyphname = plusminus;
layers = (
{
layerId = "4AEC2A2F-21E0-4005-B5C4-61417F12BD89";
paths = (
{
closed = 1;
nodes = (
"424 260 LINE",
"435 298 LINE",
"59 298 LINE",
"48 260 LINE"
);
},
{
closed = 1;
nodes = (
"220 132 LINE",
"306 431 LINE",
"264 431 LINE",
"178 132 LINE"
);
},
{
closed = 1;
nodes = (
"370 55 LINE",
"382 95 LINE",
"6 95 LINE",
"-6 55 LINE"
);
}
);
width = 465;
},
{
background = {
paths = (
{
closed = 1;
nodes = (
"472 56 LINE",
"472 94 LINE",
"104 94 LINE",
"104 56 LINE"
);
},
{
closed = 1;
nodes = (
"472 261 LINE",
"472 298 LINE",
"100 298 LINE",
"100 261 LINE"
);
},
{
closed = 1;
nodes = (
"305 132 LINE",
"305 432 LINE",
"267 432 LINE",
"267 132 LINE"
);
}
);
};
layerId = "B4D6250A-EC24-4DD5-8C49-5E627D155568";
paths = (
{
closed = 1;
nodes = (
"356 21 LINE",
"372 73 LINE",
"14 73 LINE",
"-2 21 LINE"
);
},
{
closed = 1;
nodes = (
"423 265 LINE",
"440 323 LINE",
"64 323 LINE",
"47 265 LINE"
);
},
{
closed = 1;
nodes = (
"234 133 LINE",
"326 455 LINE",
"254 455 LINE",
"162 133 LINE"
);
}
);
width = 465;
}
);
leftKerningGroup = plusminus;
rightKerningGroup = plusminus;
unicode = 00B1;
}
{
color = 3;
glyphname = questiondown;
layers = (
{
components = (
{
name = period;
transform = "{1, 0, 0, 1, 202, 374}";
}
);
layerId = "4AEC2A2F-21E0-4005-B5C4-61417F12BD89";
paths = (
{
closed = 1;
nodes = (
"322 -144 LINE",
"314 -130 LINE",
"270 -158 OFFCURVE",
"232 -182 OFFCURVE",
"184 -206 CURVE",
"115 -206 OFFCURVE",
"70 -156 OFFCURVE",
"70 -78 CURVE SMOOTH",
"70 10 OFFCURVE",
"134 81 OFFCURVE",
"238 114 CURVE",
"256 288 LINE",
"240 288 LINE",
"178 106 LINE",
"46 62 OFFCURVE",
"-26 -20 OFFCURVE",
"-26 -112 CURVE SMOOTH",
"-26 -199 OFFCURVE",
"42 -264 OFFCURVE",
"138 -264 CURVE"
);
}
);
width = 412;
},
{
components = (
{
name = period;
transform = "{1, 0, 0, 1, 222, 374}";
}
);
layerId = "B4D6250A-EC24-4DD5-8C49-5E627D155568";
paths = (
{
closed = 1;
nodes = (
"344 -148 LINE",
"334 -130 LINE",
"293 -155 OFFCURVE",
"251 -177 OFFCURVE",
"208 -198 CURVE",
"152 -190 OFFCURVE",
"114 -142 OFFCURVE",
"114 -70 CURVE SMOOTH",
"114 17 OFFCURVE",
"171 86 OFFCURVE",
"267 114 CURVE",
"281 288 LINE",
"257 288 LINE",
"163 78 LINE",
"46 53 OFFCURVE",
"-40 -30 OFFCURVE",
"-40 -116 CURVE SMOOTH",
"-40 -205 OFFCURVE",
"45 -264 OFFCURVE",
"162 -264 CURVE"
);
}
);
width = 428;
}
);
leftKerningGroup = questiondown;
rightKerningGroup = questiondown;
unicode = 00BF;
}
{
glyphname = registered;
layers = (
{
hints = (
{
origin = "{2, 0}";
scale = "{0.6233, 0.59213}";
type = Corner;
name = _corner.rightSerif.cap;
options = 1;
},
{
origin = "{2, 11}";
scale = "{0.6233, 0.59213}";
type = Corner;
name = _corner.rightSerif.cap;
options = 1;
},
{
origin = "{2, 12}";
scale = "{0.6233, 0.59213}";
type = Corner;
name = _corner.leftSerif.cap;
},
{
origin = "{2, 13}";
scale = "{0.6233, 0.59213}";
type = Corner;
name = _corner.rightSerif.cap;
options = 1;
}
);
layerId = "4AEC2A2F-21E0-4005-B5C4-61417F12BD89";
paths = (
{
closed = 1;
nodes = (
"543 -12 OFFCURVE",
"725 190 OFFCURVE",
"725 459 CURVE SMOOTH",
"725 604 OFFCURVE",
"622 713 OFFCURVE",
"471 713 CURVE SMOOTH",
"256 713 OFFCURVE",
"59 505 OFFCURVE",
"59 237 CURVE SMOOTH",
"59 89 OFFCURVE",
"166 -12 OFFCURVE",
"323 -12 CURVE SMOOTH"
);
},
{
closed = 1;
nodes = (
"197 33 OFFCURVE",
"112 116 OFFCURVE",
"112 247 CURVE SMOOTH",
"112 462 OFFCURVE",
"285 668 OFFCURVE",
"461 668 CURVE SMOOTH",
"589 668 OFFCURVE",
"672 576 OFFCURVE",
"672 450 CURVE SMOOTH",
"672 220 OFFCURVE",
"519 33 OFFCURVE",
"334 33 CURVE SMOOTH"
);
},
{
closed = 1;
nodes = (
"512 164 LINE",
"449 330 LINE",
"392 342 LINE",
"392 344 LINE",
"417 344 LINE",
"521 363 OFFCURVE",
"579 413 OFFCURVE",
"579 477 CURVE SMOOTH",
"579 532 OFFCURVE",
"536 567 OFFCURVE",
"474 567 CURVE SMOOTH",
"336 567 LINE",
"211 153 LINE",
"277 153 LINE",
"401 567 LINE",
"385 549 LINE",
"402 552 OFFCURVE",
"418 554 OFFCURVE",
"436 554 CURVE SMOOTH",
"484 554 OFFCURVE",
"509 523 OFFCURVE",
"509 470 CURVE SMOOTH",
"509 417 OFFCURVE",
"483 373 OFFCURVE",
"434 357 CURVE",
"398 357 OFFCURVE",
"368 359 OFFCURVE",
"328 366 CURVE",
"322 342 LINE",
"387 342 LINE",
"375 347 LINE",
"444 154 LINE",
"478 143 LINE"
);
}
);
width = 721;
},
{
hints = (
{
origin = "{2, 0}";
scale = "{0.59874, 0.5688}";
type = Corner;
name = _corner.rightSerif.cap;
options = 1;
},
{
origin = "{2, 11}";
scale = "{0.59874, 0.5688}";
type = Corner;
name = _corner.rightSerif.cap;
options = 1;
},
{
origin = "{2, 12}";
scale = "{0.59874, 0.5688}";
type = Corner;
name = _corner.leftSerif.cap;
},
{
origin = "{2, 13}";
scale = "{0.74243, 0.5688}";
type = Corner;
name = _corner.rightSerif.cap;
options = 1;
}
);
layerId = "B4D6250A-EC24-4DD5-8C49-5E627D155568";
paths = (
{
closed = 1;
nodes = (
"516 -18 OFFCURVE",
"696 135 OFFCURVE",
"742 342 CURVE SMOOTH",
"787 549 OFFCURVE",
"683 710 OFFCURVE",
"487 714 CURVE SMOOTH",
"290 718 OFFCURVE",
"110 564 OFFCURVE",
"64 357 CURVE SMOOTH",
"18 151 OFFCURVE",
"122 -9 OFFCURVE",
"319 -14 CURVE SMOOTH"
);
},
{
closed = 1;
nodes = (
"167 49 OFFCURVE",
"100 181 OFFCURVE",
"138 356 CURVE SMOOTH",
"177 532 OFFCURVE",
"305 659 OFFCURVE",
"472 655 CURVE SMOOTH",
"639 652 OFFCURVE",
"706 519 OFFCURVE",
"667 343 CURVE SMOOTH",
"628 169 OFFCURVE",
"501 42 OFFCURVE",
"334 45 CURVE SMOOTH"
);
},
{
closed = 1;
nodes = (
"527 171 LINE",
"471 330 LINE",
"392 342 LINE",
"392 346 LINE",
"434 346 LINE",
"530 364 OFFCURVE",
"596 410 OFFCURVE",
"596 476 CURVE SMOOTH",
"596 526 OFFCURVE",
"554 562 OFFCURVE",
"494 562 CURVE SMOOTH",
"332 562 LINE",
"212 164 LINE",
"307 164 LINE",
"426 562 LINE",
"404 540 LINE",
"415 543 OFFCURVE",
"425 544 OFFCURVE",
"436 544 CURVE SMOOTH",
"475 544 OFFCURVE",
"495 516 OFFCURVE",
"495 467 CURVE SMOOTH",
"495 417 OFFCURVE",
"471 377 OFFCURVE",
"422 362 CURVE",
"396 362 OFFCURVE",
"373 366 OFFCURVE",
"349 375 CURVE",
"340 344 LINE",
"382 344 LINE",
"370 348 LINE",
"430 166 LINE",
"499 154 LINE"
);
}
);
width = 746;
}
);
leftKerningGroup = registered;
leftMetricsKey = O;
rightKerningGroup = registered;
rightMetricsKey = O;
unicode = 00AE;
}
{
glyphname = section;
layers = (
{
layerId = "4AEC2A2F-21E0-4005-B5C4-61417F12BD89";
paths = (
{
closed = 1;
nodes = (
"199 229 LINE",
"299 289 OFFCURVE",
"343 332 OFFCURVE",
"343 396 CURVE SMOOTH",
"343 492 OFFCURVE",
"191 570 OFFCURVE",
"191 658 CURVE",
"210 685 OFFCURVE",
"233 713 OFFCURVE",
"263 720 CURVE",
"375 660 LINE",
"395 664 LINE",
"415 736 LINE",
"395 752 OFFCURVE",
"360 764 OFFCURVE",
"335 764 CURVE",
"227 742 OFFCURVE",
"151 660 OFFCURVE",
"151 578 CURVE SMOOTH",
"151 478 OFFCURVE",
"297 405 OFFCURVE",
"297 325 CURVE",
"285 303 OFFCURVE",
"253 275 OFFCURVE",
"188 247 CURVE"
);
},
{
closed = 1;
nodes = (
"209 488 LINE",
"117 431 OFFCURVE",
"81 385 OFFCURVE",
"81 316 CURVE SMOOTH",
"81 216 OFFCURVE",
"227 140 OFFCURVE",
"227 60 CURVE",
"212 32 OFFCURVE",
"179 10 OFFCURVE",
"141 4 CURVE",
"37 68 LINE",
"13 64 LINE",
"-21 12 LINE",
"0 -16 OFFCURVE",
"39 -40 OFFCURVE",
"73 -46 CURVE",
"177 -22 OFFCURVE",
"273 58 OFFCURVE",
"273 134 CURVE SMOOTH",
"273 230 OFFCURVE",
"121 308 OFFCURVE",
"121 396 CURVE",
"143 427 OFFCURVE",
"170 452 OFFCURVE",
"217 476 CURVE"
);
}
);
width = 358;
},
{
background = {
paths = (
{
closed = 1;
nodes = (
"-67 -174 LINE",
"-66 -218 OFFCURVE",
"20 -258 OFFCURVE",
"60 -248 CURVE SMOOTH",
"185 -220 OFFCURVE",
"282 -115 OFFCURVE",
"298 -23 CURVE",
"298 59 OFFCURVE",
"129 114 OFFCURVE",
"129 260 CURVE",
"157 293 OFFCURVE",
"191 322 OFFCURVE",
"246 322 CURVE SMOOTH",
"273 322 OFFCURVE",
"351 297 OFFCURVE",
"370 253 CURVE",
"369 253 LINE",
"393 328 LINE",
"379 355 OFFCURVE",
"330 359 OFFCURVE",
"285 359 CURVE SMOOTH",
"192 359 OFFCURVE",
"79 253 OFFCURVE",
"67 164 CURVE SMOOTH",
"51 69 OFFCURVE",
"248 -25 OFFCURVE",
"237 -119 CURVE",
"213 -153 OFFCURVE",
"163 -192 OFFCURVE",
"116 -192 CURVE",
"76 -187 OFFCURVE",
"21 -161 OFFCURVE",
"-5 -120 CURVE"
);
},
{
closed = 0;
nodes = (
"382 662 LINE",
"409 662 OFFCURVE",
"459 625 OFFCURVE",
"497 593 CURVE",
"505 593 LINE",
"529 668 LINE",
"515 695 OFFCURVE",
"466 699 OFFCURVE",
"421 699 CURVE SMOOTH",
"328 699 OFFCURVE",
"215 593 OFFCURVE",
"203 504 CURVE SMOOTH",
"187 409 OFFCURVE",
"384 315 OFFCURVE",
"373 221 CURVE",
"349 187 OFFCURVE",
"299 148 OFFCURVE",
"252 148 CURVE",
"212 153 OFFCURVE",
"135 169 OFFCURVE",
"129 260 CURVE",
"69 166 LINE",
"70 122 OFFCURVE",
"156 82 OFFCURVE",
"196 92 CURVE SMOOTH",
"321 120 OFFCURVE",
"418 225 OFFCURVE",
"434 317 CURVE",
"434 399 OFFCURVE",
"265 454 OFFCURVE",
"265 600 CURVE"
);
}
);
};
layerId = "B4D6250A-EC24-4DD5-8C49-5E627D155568";
paths = (
{
closed = 1;
nodes = (
"243 246 LINE",
"326 273 OFFCURVE",
"392 337 OFFCURVE",
"392 410 CURVE SMOOTH",
"392 529 OFFCURVE",
"232 588 OFFCURVE",
"224 680 CURVE",
"234 692 OFFCURVE",
"243 700 OFFCURVE",
"256 708 CURVE",
"416 636 LINE",
"440 644 LINE",
"464 736 LINE",
"439 754 OFFCURVE",
"393 766 OFFCURVE",
"348 764 CURVE",
"228 736 OFFCURVE",
"160 660 OFFCURVE",
"160 576 CURVE SMOOTH",
"160 456 OFFCURVE",
"312 398 OFFCURVE",
"320 306 CURVE",
"305 291 OFFCURVE",
"290 284 OFFCURVE",
"235 261 CURVE"
);
},
{
closed = 1;
nodes = (
"238 479 LINE",
"115 436 OFFCURVE",
"90 366 OFFCURVE",
"90 306 CURVE SMOOTH",
"90 186 OFFCURVE",
"242 132 OFFCURVE",
"250 40 CURVE",
"234 24 OFFCURVE",
"217 12 OFFCURVE",
"197 2 CURVE",
"50 92 LINE",
"18 84 LINE",
"-26 -4 LINE",
"6 -28 OFFCURVE",
"64 -52 OFFCURVE",
"102 -54 CURVE",
"218 -30 OFFCURVE",
"322 48 OFFCURVE",
"322 140 CURVE SMOOTH",
"322 259 OFFCURVE",
"162 318 OFFCURVE",
"154 410 CURVE",
"168 427 OFFCURVE",
"193 447 OFFCURVE",
"247 462 CURVE"
);
}
);
width = 420;
}
);
leftKerningGroup = section;
rightKerningGroup = section;
unicode = 00A7;
}
{
glyphname = sterling;
layers = (
{
layerId = "4AEC2A2F-21E0-4005-B5C4-61417F12BD89";
paths = (
{
closed = 1;
nodes = (
"32 18 LINE",
"174 80 OFFCURVE",
"293 20 OFFCURVE",
"347 -14 CURVE",
"526 138 LINE",
"519 148 LINE",
"407 80 LINE",
"347 113 OFFCURVE",
"210 126 OFFCURVE",
"104 74 CURVE",
"102 77 LINE",
"200 184 OFFCURVE",
"264 239 OFFCURVE",
"285 312 CURVE SMOOTH",
"308 392 OFFCURVE",
"293 493 OFFCURVE",
"293 572 CURVE SMOOTH",
"293 628 OFFCURVE",
"333 649 OFFCURVE",
"371 658 CURVE",
"484 606 LINE",
"513 610 LINE",
"547 670 LINE",
"532 691 OFFCURVE",
"476 714 OFFCURVE",
"439 714 CURVE",
"329 672 OFFCURVE",
"220 602 OFFCURVE",
"178 515 CURVE",
"144 398 OFFCURVE",
"216 325 OFFCURVE",
"180 231 CURVE SMOOTH",
"155 166 OFFCURVE",
"78 96 OFFCURVE",
"-23 -11 CURVE",
"-9 -24 LINE"
);
},
{
closed = 1;
nodes = (
"502 337 LINE",
"508 360 LINE",
"97 360 LINE",
"91 337 LINE"
);
}
);
width = 516;
},
{
layerId = "B4D6250A-EC24-4DD5-8C49-5E627D155568";
paths = (
{
closed = 1;
nodes = (
"45 18 LINE",
"185 80 OFFCURVE",
"312 20 OFFCURVE",
"380 -14 CURVE",
"565 156 LINE",
"558 166 LINE",
"471 118 LINE",
"370 131 OFFCURVE",
"276 154 OFFCURVE",
"116 62 CURVE",
"114 65 LINE",
"239 153 OFFCURVE",
"327 208 OFFCURVE",
"350 289 CURVE SMOOTH",
"381 397 OFFCURVE",
"329 476 OFFCURVE",
"329 566 CURVE SMOOTH",
"329 612 OFFCURVE",
"346 643 OFFCURVE",
"400 656 CURVE",
"533 577 LINE",
"569 581 LINE",
"607 660 LINE",
"568 693 OFFCURVE",
"519 714 OFFCURVE",
"486 714 CURVE",
"384 694 OFFCURVE",
"243 604 OFFCURVE",
"182 514 CURVE",
"148 397 OFFCURVE",
"223 326 OFFCURVE",
"190 224 CURVE SMOOTH",
"167 151 OFFCURVE",
"90 87 OFFCURVE",
"-12 -10 CURVE",
"4 -24 LINE"
);
},
{
closed = 1;
nodes = (
"519 329 LINE",
"527 359 LINE",
"103 359 LINE",
"95 329 LINE"
);
}
);
width = 622;
}
);
leftKerningGroup = sterling;
rightKerningGroup = sterling;
unicode = 00A3;
}
{
glyphname = thorn;
layers = (
{
hints = (
{
origin = "{0, 17}";
type = Corner;
name = _corner.rightSerif;
options = 1;
}
);
layerId = "4AEC2A2F-21E0-4005-B5C4-61417F12BD89";
paths = (
{
closed = 1;
nodes = (
"80 0 LINE",
"66 -6 LINE",
"83 -10 OFFCURVE",
"117 -14 OFFCURVE",
"137 -14 CURVE",
"297 38 OFFCURVE",
"441 198 OFFCURVE",
"441 342 CURVE SMOOTH",
"441 414 OFFCURVE",
"401 468 OFFCURVE",
"341 484 CURVE",
"257 424 OFFCURVE",
"180 243 OFFCURVE",
"104 63 CURVE",
"100 64 LINE",
"298 760 LINE",
"280 766 LINE",
"204 736 LINE",
"-70 -248 LINE",
"14 -256 LINE"
);
},
{
closed = 1;
nodes = (
"169 36 OFFCURVE",
"142 40 OFFCURVE",
"114 52 CURVE",
"154 146 OFFCURVE",
"241 356 OFFCURVE",
"301 408 CURVE",
"332 408 OFFCURVE",
"351 367 OFFCURVE",
"351 302 CURVE SMOOTH",
"351 198 OFFCURVE",
"301 76 OFFCURVE",
"201 36 CURVE"
);
}
);
width = 457;
},
{
hints = (
{
origin = "{0, 17}";
type = Corner;
name = _corner.rightSerif;
options = 1;
}
);
layerId = "B4D6250A-EC24-4DD5-8C49-5E627D155568";
paths = (
{
closed = 1;
nodes = (
"138 4 LINE",
"120 -6 LINE",
"141 -11 OFFCURVE",
"165 -14 OFFCURVE",
"184 -14 CURVE",
"364 30 OFFCURVE",
"527 180 OFFCURVE",
"527 344 CURVE SMOOTH",
"527 432 OFFCURVE",
"476 496 OFFCURVE",
"400 504 CURVE",
"308 436 OFFCURVE",
"244 270 OFFCURVE",
"164 78 CURVE",
"156 80 LINE",
"344 740 LINE",
"284 768 LINE",
"202 736 LINE",
"-70 -248 LINE",
"68 -256 LINE"
);
},
{
closed = 1;
nodes = (
"220 35 OFFCURVE",
"198 40 OFFCURVE",
"176 52 CURVE",
"216 160 OFFCURVE",
"288 316 OFFCURVE",
"352 404 CURVE",
"372 388 OFFCURVE",
"384 356 OFFCURVE",
"384 316 CURVE SMOOTH",
"384 188 OFFCURVE",
"324 80 OFFCURVE",
"244 32 CURVE"
);
}
);
width = 548;
},
{
associatedMasterId = "4AEC2A2F-21E0-4005-B5C4-61417F12BD89";
layerId = "DC3EA388-DB25-4967-9007-2509A44FE9DD";
name = "13 apr 22, 14:11";
paths = (
{
closed = 1;
nodes = (
"144 -14 LINE",
"216 -10 OFFCURVE",
"460 184 OFFCURVE",
"460 347 CURVE SMOOTH",
"460 399 OFFCURVE",
"430 467 OFFCURVE",
"373 479 CURVE",
"326 421 OFFCURVE",
"135 153 OFFCURVE",
"104 75 CURVE",
"102 75 LINE",
"332 732 LINE",
"330 738 OFFCURVE",
"321 746 OFFCURVE",
"316 750 CURVE",
"124 667 LINE",
"124 659 LINE",
"225 701 LINE",
"20 73 LINE",
"-2 7 LINE"
);
},
{
closed = 1;
nodes = (
"114 75 LINE",
"143 148 OFFCURVE",
"329 397 OFFCURVE",
"337 400 CURVE",
"357 397 OFFCURVE",
"363 372 OFFCURVE",
"363 338 CURVE SMOOTH",
"363 253 OFFCURVE",
"257 29 OFFCURVE",
"209 29 CURVE",
"172 25 OFFCURVE",
"138 39 OFFCURVE",
"110 55 CURVE"
);
},
{
closed = 1;
nodes = (
"2 21 LINE",
"-77 -229 LINE",
"19 -255 LINE",
"34 -167 LINE",
"81 6 LINE",
"102 29 LINE"
);
}
);
width = 472;
},
{
anchors = (
{
name = bottom;
position = "{264, 0}";
},
{
name = top;
position = "{432, 495}";
}
);
associatedMasterId = "B4D6250A-EC24-4DD5-8C49-5E627D155568";
background = {
paths = (
{
closed = 1;
nodes = (
"-6 20 OFFCURVE",
"147 -19 OFFCURVE",
"185 -14 CURVE",
"340 -14 OFFCURVE",
"556 198 OFFCURVE",
"556 361 CURVE SMOOTH",
"556 413 OFFCURVE",
"533 482 OFFCURVE",
"414 493 CURVE",
"367 435 OFFCURVE",
"176 153 OFFCURVE",
"145 75 CURVE",
"143 75 LINE",
"375 750 LINE",
"365 757 LINE",
"209 704 LINE",
"8 73 LINE",
"-34 60 LINE",
"-40 37 LINE"
);
},
{
closed = 1;
nodes = (
"181 71 LINE",
"210 144 OFFCURVE",
"384 408 OFFCURVE",
"392 411 CURVE",
"403 408 OFFCURVE",
"408 397 OFFCURVE",
"408 373 CURVE SMOOTH",
"408 288 OFFCURVE",
"328 32 OFFCURVE",
"280 32 CURVE",
"256 32 OFFCURVE",
"204 49 OFFCURVE",
"179 60 CURVE"
);
}
);
};
layerId = "61A512C6-A056-4EBF-A852-7C840D205563";
name = "13 apr 22, 14:12";
paths = (
{
closed = 1;
nodes = (
"184 -14 LINE",
"324 -6 OFFCURVE",
"555 184 OFFCURVE",
"555 347 CURVE SMOOTH",
"555 399 OFFCURVE",
"527 493 OFFCURVE",
"414 493 CURVE",
"367 435 OFFCURVE",
"175 153 OFFCURVE",
"144 75 CURVE",
"172 75 LINE",
"402 732 LINE",
"400 738 OFFCURVE",
"391 746 OFFCURVE",
"386 750 CURVE",
"251 701 LINE",
"46 73 LINE",
"24 7 LINE"
);
},
{
closed = 1;
nodes = (
"181 71 LINE",
"210 144 OFFCURVE",
"384 408 OFFCURVE",
"392 411 CURVE",
"402 411 OFFCURVE",
"407 402 OFFCURVE",
"407 368 CURVE SMOOTH",
"407 283 OFFCURVE",
"308 36 OFFCURVE",
"260 36 CURVE",
"223 41 OFFCURVE",
"205 47 OFFCURVE",
"179 60 CURVE"
);
},
{
closed = 1;
nodes = (
"28 21 LINE",
"-51 -229 LINE",
"110 -255 LINE",
"125 -167 LINE",
"172 6 LINE",
"142 29 LINE"
);
}
);
width = 573;
}
);
leftKerningGroup = l;
leftMetricsKey = "=b-4";
rightKerningGroup = o;
rightMetricsKey = b;
unicode = 00FE;
}
{
glyphname = yen;
layers = (
{
components = (
{
name = Y;
}
);
layerId = "4AEC2A2F-21E0-4005-B5C4-61417F12BD89";
paths = (
{
closed = 1;
nodes = (
"547 267 LINE",
"547 290 LINE",
"173 290 LINE",
"173 267 LINE"
);
},
{
closed = 1;
nodes = (
"547 197 LINE",
"547 220 LINE",
"173 220 LINE",
"173 197 LINE"
);
}
);
width = 620;
},
{
components = (
{
name = Y;
}
);
layerId = "B4D6250A-EC24-4DD5-8C49-5E627D155568";
paths = (
{
closed = 1;
nodes = (
"576 260 LINE",
"576 290 LINE",
"152 290 LINE",
"152 260 LINE"
);
},
{
closed = 1;
nodes = (
"576 190 LINE",
"576 220 LINE",
"152 220 LINE",
"152 190 LINE"
);
}
);
width = 656;
}
);
leftKerningGroup = yen;
leftMetricsKey = Y;
rightKerningGroup = yen;
rightMetricsKey = Y;
unicode = 00A5;
}
{
color = 1;
glyphname = Germandbls;
layers = (
{
annotations = (
{
position = "{115.933, 2.184}";
type = Arrow;
}
);
layerId = "4AEC2A2F-21E0-4005-B5C4-61417F12BD89";
paths = (
{
closed = 1;
nodes = (
"-79 -242 OFFCURVE",
"22 -164 OFFCURVE",
"98 -64 CURVE",
"284 580 LINE SMOOTH",
"297 626 OFFCURVE",
"341 669 OFFCURVE",
"396 688 CURVE",
"450 676 OFFCURVE",
"484 626 OFFCURVE",
"484 560 CURVE SMOOTH",
"484 512 OFFCURVE",
"464 462 OFFCURVE",
"432 428 CURVE SMOOTH",
"372 364 LINE",
"460 280 OFFCURVE",
"524 196 OFFCURVE",
"524 124 CURVE",
"502 83 OFFCURVE",
"468 56 OFFCURVE",
"408 36 CURVE",
"252 120 LINE",
"220 116 LINE",
"188 52 LINE",
"222 12 OFFCURVE",
"278 -14 OFFCURVE",
"330 -14 CURVE",
"482 21 OFFCURVE",
"580 105 OFFCURVE",
"580 208 CURVE SMOOTH",
"580 280 OFFCURVE",
"528 348 OFFCURVE",
"448 420 CURVE",
"449 424 LINE",
"533 452 OFFCURVE",
"584 520 OFFCURVE",
"584 584 CURVE SMOOTH",
"584 660 OFFCURVE",
"514 714 OFFCURVE",
"416 714 CURVE",
"338 689 OFFCURVE",
"234 615 OFFCURVE",
"174 538 CURVE",
"-15 -116 LINE",
"-30 -166 OFFCURVE",
"-56 -200 OFFCURVE",
"-96 -220 CURVE",
"-235 -132 LINE",
"-264 -136 LINE",
"-309 -212 LINE",
"-261 -248 OFFCURVE",
"-207 -264 OFFCURVE",
"-159 -264 CURVE"
);
},
{
closed = 1;
nodes = (
"217 454 LINE",
"221 470 LINE",
"88 470 LINE",
"84 454 LINE"
);
}
);
width = 612;
},
{
background = {
paths = (
{
closed = 0;
nodes = (
"370 478 LINE SMOOTH",
"370 318 OFFCURVE",
"594 240 OFFCURVE",
"594 124 CURVE",
"572 92 OFFCURVE",
"533 66 OFFCURVE",
"494 56 CURVE",
"310 160 LINE",
"270 152 LINE",
"214 56 LINE",
"258 16 OFFCURVE",
"324 -14 OFFCURVE",
"372 -14 CURVE",
"548 18 OFFCURVE",
"672 110 OFFCURVE",
"672 222 CURVE SMOOTH",
"672 386 OFFCURVE",
"440 468 OFFCURVE",
"440 588 CURVE"
);
}
);
};
layerId = "B4D6250A-EC24-4DD5-8C49-5E627D155568";
paths = (
{
closed = 1;
nodes = (
"-63 -241 OFFCURVE",
"76 -153 OFFCURVE",
"148 -52 CURVE",
"320 552 LINE SMOOTH",
"337 612 OFFCURVE",
"382 661 OFFCURVE",
"436 684 CURVE",
"460 668 OFFCURVE",
"476 632 OFFCURVE",
"476 588 CURVE SMOOTH",
"476 540 OFFCURVE",
"460 495 OFFCURVE",
"428 448 CURVE SMOOTH",
"368 360 LINE",
"468 280 OFFCURVE",
"568 184 OFFCURVE",
"576 116 CURVE",
"556 89 OFFCURVE",
"531 70 OFFCURVE",
"488 52 CURVE",
"312 152 LINE",
"272 145 LINE",
"220 56 LINE",
"254 16 OFFCURVE",
"320 -14 OFFCURVE",
"372 -14 CURVE",
"524 21 OFFCURVE",
"652 117 OFFCURVE",
"652 220 CURVE SMOOTH",
"652 315 OFFCURVE",
"553 397 OFFCURVE",
"461 469 CURVE",
"462 473 LINE",
"564 473 OFFCURVE",
"632 526 OFFCURVE",
"632 596 CURVE SMOOTH",
"632 667 OFFCURVE",
"561 714 OFFCURVE",
"456 714 CURVE",
"350 693 OFFCURVE",
"226 602 OFFCURVE",
"154 494 CURVE",
"-24 -132 LINE SMOOTH",
"-32 -160 OFFCURVE",
"-48 -182 OFFCURVE",
"-68 -196 CURVE",
"-224 -112 LINE",
"-264 -120 LINE",
"-316 -200 LINE",
"-272 -236 OFFCURVE",
"-216 -260 OFFCURVE",
"-180 -264 CURVE"
);
},
{
closed = 1;
nodes = (
"268 468 LINE",
"272 490 LINE",
"92 490 LINE",
"88 468 LINE"
);
}
);
width = 676;
},
{
annotations = (
{
position = "{115.933, 2.184}";
type = Arrow;
}
);
associatedMasterId = "4AEC2A2F-21E0-4005-B5C4-61417F12BD89";
layerId = "5952463E-B174-4077-B7B1-8DB1FE1FDF06";
name = "13 apr 22, 19:57";
paths = (
{
closed = 1;
nodes = (
"185 514 OFFCURVE",
"-20 -160 OFFCURVE",
"-46 -199 CURVE",
"-63 -218 OFFCURVE",
"-80 -221 OFFCURVE",
"-104 -221 CURVE SMOOTH",
"-126 -221 OFFCURVE",
"-184 -187 OFFCURVE",
"-213 -169 CURVE",
"-305 -201 LINE",
"-252 -235 OFFCURVE",
"-195 -275 OFFCURVE",
"-139 -275 CURVE",
"-107 -255 OFFCURVE",
"-73 -231 OFFCURVE",
"-42 -205 CURVE",
"13 -141 OFFCURVE",
"102 -29 OFFCURVE",
"113 -6 CURVE",
"304 604 LINE",
"309 619 OFFCURVE",
"379 674 OFFCURVE",
"454 674 CURVE SMOOTH",
"501 674 OFFCURVE",
"539 626 OFFCURVE",
"528 590 CURVE",
"376 372 LINE",
"371 357 LINE",
"490 360 OFFCURVE",
"510 231 OFFCURVE",
"479 129 CURVE SMOOTH",
"461 72 OFFCURVE",
"415 22 OFFCURVE",
"375 22 CURVE SMOOTH",
"360 22 OFFCURVE",
"328 50 OFFCURVE",
"319 77 CURVE",
"319 180 LINE",
"300 180 LINE",
"254 30 LINE",
"267 14 OFFCURVE",
"305 -14 OFFCURVE",
"330 -14 CURVE SMOOTH",
"356 -14 OFFCURVE",
"544 84 OFFCURVE",
"583 213 CURVE SMOOTH",
"605 283 OFFCURVE",
"550 361 OFFCURVE",
"477 383 CURVE",
"626 593 LINE",
"643 646 OFFCURVE",
"567 713 OFFCURVE",
"496 713 CURVE",
"402 695 OFFCURVE",
"205 593 OFFCURVE",
"183 518 CURVE"
);
},
{
closed = 1;
nodes = (
"96 446 LINE",
"171 446 LINE",
"238 462 LINE",
"177 466 LINE",
"100 462 LINE"
);
}
);
width = 597;
},
{
anchors = (
{
name = bottom;
position = "{166, 0}";
},
{
name = top;
position = "{395, 750}";
}
);
associatedMasterId = "B4D6250A-EC24-4DD5-8C49-5E627D155568";
layerId = "8619BDA0-4E9C-42C4-B3BE-14AA0347D704";
name = "13 apr 22, 21:10";
paths = (
{
closed = 1;
nodes = (
"428 713 OFFCURVE",
"216 544 OFFCURVE",
"200 489 CURVE SMOOTH",
"193 465 LINE",
"124 464 LINE",
"106 424 LINE",
"182 431 LINE",
"85 82 OFFCURVE",
"39 -93 OFFCURVE",
"4 -172 CURVE",
"-1 -174 OFFCURVE",
"-5 -175 OFFCURVE",
"-10 -175 CURVE SMOOTH",
"-13 -175 OFFCURVE",
"-16 -174 OFFCURVE",
"-20 -174 CURVE SMOOTH",
"-103 -167 OFFCURVE",
"-152 -119 OFFCURVE",
"-175 -105 CURVE",
"-306 -168 LINE",
"-253 -202 OFFCURVE",
"-145 -263 OFFCURVE",
"-89 -263 CURVE",
"47 -190 OFFCURVE",
"184 -29 OFFCURVE",
"195 -6 CURVE",
"380 634 LINE",
"391 643 OFFCURVE",
"478 674 OFFCURVE",
"510 674 CURVE SMOOTH",
"542 672 OFFCURVE",
"554 646 OFFCURVE",
"554 619 CURVE",
"398 372 LINE",
"393 357 LINE",
"477 359 OFFCURVE",
"508 282 OFFCURVE",
"508 200 CURVE SMOOTH",
"508 166 OFFCURVE",
"442 14 OFFCURVE",
"412 14 CURVE SMOOTH",
"397 14 OFFCURVE",
"378 50 OFFCURVE",
"371 77 CURVE",
"371 180 LINE",
"352 180 LINE",
"306 30 LINE",
"319 14 OFFCURVE",
"357 -14 OFFCURVE",
"382 -14 CURVE SMOOTH",
"402 -14 OFFCURVE",
"652 82 OFFCURVE",
"652 251 CURVE SMOOTH",
"652 309 OFFCURVE",
"611 365 OFFCURVE",
"526 383 CURVE",
"690 607 LINE",
"690 657 OFFCURVE",
"613 713 OFFCURVE",
"548 713 CURVE SMOOTH"
);
}
);
width = 723;
}
);
leftMetricsKey = f;
unicode = 1E9E;
}
{
color = 3;
glyphname = asterisk;
layers = (
{
layerId = "4AEC2A2F-21E0-4005-B5C4-61417F12BD89";
paths = (
{
closed = 1;
nodes = (
"268 568 LINE",
"422 629 LINE",
"428 653 LINE",
"407 670 LINE",
"265 576 LINE",
"109 524 LINE",
"105 496 LINE",
"125 480 LINE"
);
},
{
closed = 1;
nodes = (
"250 429 LINE",
"271 572 LINE",
"335 724 LINE",
"316 737 LINE",
"288 726 LINE",
"264 572 LINE",
"203 430 LINE",
"225 418 LINE"
);
},
{
closed = 1;
nodes = (
"379 495 LINE",
"389 522 LINE",
"273 576 LINE",
"175 668 LINE",
"148 653 LINE",
"143 630 LINE",
"266 568 LINE",
"355 482 LINE"
);
}
);
width = 336;
},
{
background = {
paths = (
{
closed = 1;
nodes = (
"278 244 OFFCURVE",
"297 229 OFFCURVE",
"326 229 CURVE SMOOTH",
"356 229 OFFCURVE",
"377 246 OFFCURVE",
"380 255 CURVE SMOOTH",
"399 330 OFFCURVE",
"364 371 OFFCURVE",
"389 471 CURVE",
"416 570 OFFCURVE",
"473 609 OFFCURVE",
"492 684 CURVE SMOOTH",
"495 694 OFFCURVE",
"482 711 OFFCURVE",
"452 711 CURVE SMOOTH",
"423 711 OFFCURVE",
"396 696 OFFCURVE",
"393 686 CURVE SMOOTH",
"374 609 OFFCURVE",
"401 570 OFFCURVE",
"376 471 CURVE SMOOTH",
"349 371 OFFCURVE",
"300 330 OFFCURVE",
"281 254 CURVE SMOOTH"
);
},
{
closed = 1;
nodes = (
"287 633 OFFCURVE",
"260 617 OFFCURVE",
"238 589 CURVE SMOOTH",
"215 558 OFFCURVE",
"211 532 OFFCURVE",
"218 528 CURVE SMOOTH",
"264 490 OFFCURVE",
"324 516 OFFCURVE",
"385 467 CURVE",
"445 417 OFFCURVE",
"435 350 OFFCURVE",
"480 313 CURVE SMOOTH",
"487 308 OFFCURVE",
"509 316 OFFCURVE",
"532 347 CURVE SMOOTH",
"554 376 OFFCURVE",
"563 408 OFFCURVE",
"556 412 CURVE SMOOTH",
"510 451 OFFCURVE",
"457 432 OFFCURVE",
"396 481 CURVE SMOOTH",
"335 531 OFFCURVE",
"339 590 OFFCURVE",
"293 628 CURVE SMOOTH"
);
},
{
closed = 1;
nodes = (
"496 590 OFFCURVE",
"470 531 OFFCURVE",
"383 481 CURVE SMOOTH",
"296 432 OFFCURVE",
"253 451 OFFCURVE",
"187 412 CURVE SMOOTH",
"178 408 OFFCURVE",
"169 376 OFFCURVE",
"177 347 CURVE SMOOTH",
"184 316 OFFCURVE",
"202 308 OFFCURVE",
"211 313 CURVE SMOOTH",
"276 350 OFFCURVE",
"300 417 OFFCURVE",
"386 467 CURVE",
"473 516 OFFCURVE",
"519 490 OFFCURVE",
"585 528 CURVE SMOOTH",
"594 532 OFFCURVE",
"604 558 OFFCURVE",
"597 589 CURVE SMOOTH",
"591 617 OFFCURVE",
"572 633 OFFCURVE",
"562 628 CURVE SMOOTH"
);
}
);
};
layerId = "B4D6250A-EC24-4DD5-8C49-5E627D155568";
paths = (
{
closed = 1;
nodes = (
"279 568 LINE",
"438 617 LINE",
"450 656 LINE",
"422 680 LINE",
"276 577 LINE",
"110 533 LINE",
"100 488 LINE",
"136 470 LINE"
);
},
{
closed = 1;
nodes = (
"400 488 LINE",
"412 532 LINE",
"284 577 LINE",
"184 680 LINE",
"147 659 LINE",
"136 618 LINE",
"277 568 LINE",
"361 472 LINE"
);
},
{
closed = 1;
nodes = (
"270 417 LINE",
"282 572 LINE",
"360 736 LINE",
"328 750 LINE",
"288 738 LINE",
"275 572 LINE",
"198 418 LINE",
"230 401 LINE"
);
}
);
width = 360;
}
);
leftKerningGroup = asterisk;
rightKerningGroup = asterisk;
unicode = 002A;
}
{
color = 3;
glyphname = comma;
layers = (
{
layerId = "4AEC2A2F-21E0-4005-B5C4-61417F12BD89";
paths = (
{
closed = 1;
nodes = (
"65 -65 OFFCURVE",
"108 -6 OFFCURVE",
"132 94 CURVE",
"121 104 LINE",
"25 92 LINE",
"13 60 OFFCURVE",
"9 24 OFFCURVE",
"9 0 CURVE",
"76 -6 LINE",
"64 4 LINE",
"56 -36 OFFCURVE",
"26 -76 OFFCURVE",
"-18 -108 CURVE",
"-11 -117 LINE"
);
}
);
width = 224;
},
{
layerId = "B4D6250A-EC24-4DD5-8C49-5E627D155568";
paths = (
{
closed = 1;
nodes = (
"75 -68 OFFCURVE",
"119 0 OFFCURVE",
"143 112 CURVE",
"127 126 LINE",
"7 110 LINE",
"-5 79 OFFCURVE",
"-11 31 OFFCURVE",
"-9 -4 CURVE",
"76 -8 LINE",
"60 8 LINE",
"52 -32 OFFCURVE",
"28 -72 OFFCURVE",
"-16 -104 CURVE",
"-5 -120 LINE"
);
}
);
width = 230;
},
{
associatedMasterId = "4AEC2A2F-21E0-4005-B5C4-61417F12BD89";
layerId = "CBD7FE5B-B189-42F1-8AFA-BA6F90FA5798";
name = "7 apr 22, 22:10";
paths = (
{
closed = 1;
nodes = (
"0 41 OFFCURVE",
"8 24 OFFCURVE",
"8 7 CURVE SMOOTH",
"8 -36 OFFCURVE",
"-43 -80 OFFCURVE",
"-82 -114 CURVE",
"-77 -120 LINE",
"-55 -102 OFFCURVE",
"80 29 OFFCURVE",
"81 35 CURVE",
"81 68 OFFCURVE",
"73 89 OFFCURVE",
"50 89 CURVE",
"-25 41 LINE"
);
}
);
width = 147;
},
{
associatedMasterId = "B4D6250A-EC24-4DD5-8C49-5E627D155568";
layerId = "C0C18C96-02DE-4D95-9C55-579D3E456830";
name = "12 apr 22, 22:58";
paths = (
{
closed = 1;
nodes = (
"8 39 OFFCURVE",
"19 15 OFFCURVE",
"19 -7 CURVE SMOOTH",
"19 -65 OFFCURVE",
"-46 -125 OFFCURVE",
"-98 -171 CURVE",
"-88 -182 LINE",
"-57 -157 OFFCURVE",
"124 20 OFFCURVE",
"126 27 CURVE",
"126 71 OFFCURVE",
"114 101 OFFCURVE",
"79 101 CURVE",
"-23 36 LINE"
);
}
);
width = 158;
}
);
leftKerningGroup = period;
leftMetricsKey = period;
rightKerningGroup = period;
rightMetricsKey = period;
unicode = 002C;
}
{
color = 5;
glyphname = hyphen;
layers = (
{
layerId = "4AEC2A2F-21E0-4005-B5C4-61417F12BD89";
paths = (
{
closed = 1;
nodes = (
"327 264 LINE",
"333 296 LINE",
"59 296 LINE",
"53 264 LINE"
);
}
);
width = 354;
},
{
layerId = "B4D6250A-EC24-4DD5-8C49-5E627D155568";
paths = (
{
closed = 1;
nodes = (
"345 246 LINE",
"355 294 LINE",
"47 294 LINE",
"37 246 LINE"
);
}
);
width = 373;
}
);
leftKerningGroup = hyphen;
rightKerningGroup = hyphen;
unicode = 002D;
}
{
color = 5;
glyphname = period;
layers = (
{
layerId = "4AEC2A2F-21E0-4005-B5C4-61417F12BD89";
paths = (
{
closed = 1;
nodes = (
"136 98 LINE",
"126 106 LINE",
"25 94 LINE",
"15 62 OFFCURVE",
"9 22 OFFCURVE",
"9 -2 CURVE",
"95 -8 LINE"
);
}
);
width = 226;
},
{
layerId = "B4D6250A-EC24-4DD5-8C49-5E627D155568";
paths = (
{
closed = 1;
nodes = (
"152 114 LINE",
"136 128 LINE",
"8 112 LINE",
"-4 81 OFFCURVE",
"-10 31 OFFCURVE",
"-8 -4 CURVE",
"110 -10 LINE"
);
}
);
width = 236;
},
{
associatedMasterId = "4AEC2A2F-21E0-4005-B5C4-61417F12BD89";
layerId = "52AC93C2-8A0A-42D1-9DEB-7F2CEE47FE7B";
name = "30 mar 22, 22:26";
paths = (
{
closed = 1;
nodes = (
"71 -9 OFFCURVE",
"99 20 OFFCURVE",
"103 52 CURVE SMOOTH",
"106 76 OFFCURVE",
"96 94 OFFCURVE",
"74 94 CURVE SMOOTH",
"47 94 OFFCURVE",
"18 65 OFFCURVE",
"15 34 CURVE SMOOTH",
"12 9 OFFCURVE",
"25 -9 OFFCURVE",
"43 -9 CURVE SMOOTH"
);
}
);
width = 225;
},
{
associatedMasterId = "B4D6250A-EC24-4DD5-8C49-5E627D155568";
layerId = "CE15F01A-1749-47B1-8FF8-C4B6671709D9";
name = "12 apr 22, 22:42";
paths = (
{
closed = 1;
nodes = (
"85 -25 OFFCURVE",
"126 17 OFFCURVE",
"132 64 CURVE SMOOTH",
"136 99 OFFCURVE",
"122 125 OFFCURVE",
"89 125 CURVE SMOOTH",
"50 125 OFFCURVE",
"8 83 OFFCURVE",
"3 38 CURVE SMOOTH",
"-1 1 OFFCURVE",
"18 -25 OFFCURVE",
"44 -25 CURVE SMOOTH"
);
}
);
width = 245;
}
);
leftKerningGroup = period;
rightKerningGroup = period;
unicode = 002E;
}
{
glyphname = plus;
layers = (
{
layerId = "4AEC2A2F-21E0-4005-B5C4-61417F12BD89";
paths = (
{
closed = 1;
nodes = (
"411 217 LINE",
"422 255 LINE",
"46 255 LINE",
"35 217 LINE"
);
},
{
closed = 1;
nodes = (
"194 44 LINE",
"304 426 LINE",
"262 426 LINE",
"152 44 LINE"
);
}
);
width = 457;
},
{
layerId = "B4D6250A-EC24-4DD5-8C49-5E627D155568";
paths = (
{
closed = 1;
nodes = (
"405 207 LINE",
"422 265 LINE",
"46 265 LINE",
"29 207 LINE"
);
},
{
closed = 1;
nodes = (
"206 44 LINE",
"316 426 LINE",
"244 426 LINE",
"134 44 LINE"
);
}
);
width = 457;
}
);
leftKerningGroup = plus;
rightKerningGroup = plus;
unicode = 002B;
}
{
color = 3;
glyphname = slash;
layers = (
{
layerId = "4AEC2A2F-21E0-4005-B5C4-61417F12BD89";
paths = (
{
closed = 1;
nodes = (
"-164 -250 LINE",
"533 750 LINE",
"502 750 LINE",
"-196 -250 LINE"
);
}
);
width = 424;
},
{
layerId = "B4D6250A-EC24-4DD5-8C49-5E627D155568";
paths = (
{
closed = 1;
nodes = (
"-163 -250 LINE",
"534 750 LINE",
"495 750 LINE",
"-203 -250 LINE"
);
}
);
width = 424;
}
);
leftKerningGroup = slash;
rightKerningGroup = slash;
unicode = 002F;
}
{
glyphname = greater;
layers = (
{
layerId = "4AEC2A2F-21E0-4005-B5C4-61417F12BD89";
paths = (
{
closed = 1;
nodes = (
"69 94 LINE",
"391 226 LINE",
"396 242 LINE",
"112 399 LINE",
"92 372 LINE",
"338 239 LINE",
"57 126 LINE"
);
}
);
width = 444;
},
{
background = {
paths = (
{
closed = 1;
nodes = (
"354 222 LINE",
"354 238 LINE",
"24 399 LINE",
"8 363 LINE",
"290 231 LINE",
"6 109 LINE",
"22 73 LINE"
);
}
);
};
layerId = "B4D6250A-EC24-4DD5-8C49-5E627D155568";
paths = (
{
closed = 1;
nodes = (
"56 75 LINE",
"386 210 LINE",
"397 251 LINE",
"102 413 LINE",
"78 368 LINE",
"314 236 LINE",
"38 126 LINE"
);
}
);
width = 437;
}
);
leftKerningGroup = greater;
rightKerningGroup = greater;
unicode = 003E;
}
{
color = 3;
glyphname = question;
layers = (
{
components = (
{
name = period;
transform = "{1, 0, 0, 1, 86, 0}";
}
);
layerId = "4AEC2A2F-21E0-4005-B5C4-61417F12BD89";
paths = (
{
closed = 1;
nodes = (
"188 200 LINE",
"252 348 LINE",
"376 385 OFFCURVE",
"456 464 OFFCURVE",
"456 558 CURVE SMOOTH",
"456 649 OFFCURVE",
"386 714 OFFCURVE",
"288 714 CURVE",
"108 594 LINE",
"116 580 LINE",
"160 608 OFFCURVE",
"198 632 OFFCURVE",
"246 656 CURVE",
"315 656 OFFCURVE",
"360 606 OFFCURVE",
"360 528 CURVE SMOOTH",
"360 440 OFFCURVE",
"296 369 OFFCURVE",
"192 336 CURVE",
"172 200 LINE"
);
}
);
width = 424;
},
{
components = (
{
name = period;
transform = "{1, 0, 0, 1, 88, 0}";
}
);
layerId = "B4D6250A-EC24-4DD5-8C49-5E627D155568";
paths = (
{
closed = 1;
nodes = (
"182 200 LINE",
"266 372 LINE",
"383 397 OFFCURVE",
"466 476 OFFCURVE",
"466 562 CURVE SMOOTH",
"466 651 OFFCURVE",
"383 714 OFFCURVE",
"266 714 CURVE",
"84 598 LINE",
"94 580 LINE",
"138 608 OFFCURVE",
"180 632 OFFCURVE",
"220 648 CURVE",
"276 640 OFFCURVE",
"314 592 OFFCURVE",
"314 520 CURVE SMOOTH",
"314 433 OFFCURVE",
"258 364 OFFCURVE",
"162 336 CURVE",
"158 200 LINE"
);
}
);
width = 372;
}
);
leftKerningGroup = question;
rightKerningGroup = question;
unicode = 003F;
}
{
glyphname = J;
layers = (
{
hints = (
{
origin = "{0, 3}";
type = Corner;
name = _corner.leftSerif.cap;
},
{
origin = "{0, 4}";
scale = "{1.2, 1}";
type = Corner;
name = _corner.rightSerif.cap;
options = 1;
}
);
layerId = "4AEC2A2F-21E0-4005-B5C4-61417F12BD89";
paths = (
{
closed = 1;
nodes = (
"-32 -220 OFFCURVE",
"64 -144 OFFCURVE",
"128 -40 CURVE",
"340 700 LINE",
"242 700 LINE",
"8 -116 LINE SMOOTH",
"-5 -161 OFFCURVE",
"-36 -202 OFFCURVE",
"-72 -220 CURVE",
"-199 -140 LINE",
"-228 -144 LINE",
"-269 -212 LINE",
"-225 -248 OFFCURVE",
"-168 -264 OFFCURVE",
"-132 -264 CURVE"
);
}
);
width = 320;
},
{
hints = (
{
origin = "{0, 3}";
type = Corner;
name = _corner.leftSerif.cap;
},
{
origin = "{0, 4}";
scale = "{1.2, 1}";
type = Corner;
name = _corner.rightSerif.cap;
options = 1;
}
);
layerId = "B4D6250A-EC24-4DD5-8C49-5E627D155568";
paths = (
{
closed = 1;
nodes = (
"-34 -233 OFFCURVE",
"104 -139 OFFCURVE",
"178 -40 CURVE",
"390 700 LINE",
"240 700 LINE",
"6 -116 LINE SMOOTH",
"-5 -154 OFFCURVE",
"-29 -183 OFFCURVE",
"-50 -196 CURVE",
"-178 -104 LINE",
"-222 -112 LINE",
"-278 -208 LINE",
"-232 -245 OFFCURVE",
"-188 -264 OFFCURVE",
"-150 -264 CURVE"
);
}
);
width = 380;
},
{
associatedMasterId = "4AEC2A2F-21E0-4005-B5C4-61417F12BD89";
layerId = "3AECD88F-EA3A-4330-8D44-FEB598468F68";
name = "31 mar 22, 22:02";
paths = (
{
closed = 1;
nodes = (
"49 -205 LINE",
"112 -147 OFFCURVE",
"191 -58 OFFCURVE",
"205 -12 CURVE SMOOTH",
"415 690 LINE",
"399 700 LINE",
"319 700 LINE",
"319 664 OFFCURVE",
"55 -166 OFFCURVE",
"45 -199 CURVE"
);
},
{
closed = 1;
nodes = (
"409 686 LINE",
"399 700 LINE"
);
},
{
closed = 1;
nodes = (
"45 -199 LINE",
"28 -218 OFFCURVE",
"11 -221 OFFCURVE",
"-13 -221 CURVE SMOOTH",
"-35 -221 OFFCURVE",
"-93 -187 OFFCURVE",
"-122 -169 CURVE",
"-214 -201 LINE",
"-161 -235 OFFCURVE",
"-104 -275 OFFCURVE",
"-48 -275 CURVE",
"-16 -255 OFFCURVE",
"18 -231 OFFCURVE",
"49 -205 CURVE"
);
}
);
width = 332;
},
{
anchors = (
{
name = bottom;
position = "{117, 0}";
},
{
name = top;
position = "{331, 700}";
}
);
associatedMasterId = "B4D6250A-EC24-4DD5-8C49-5E627D155568";
background = {
paths = (
{
closed = 1;
nodes = (
"275 0 LINE",
"484 701 LINE",
"330 701 LINE",
"121 0 LINE"
);
},
{
closed = 1;
nodes = (
"43 -183 LINE",
"34 -203 OFFCURVE",
"12 -206 OFFCURVE",
"-1 -206 CURVE SMOOTH",
"-23 -206 OFFCURVE",
"-85 -147 OFFCURVE",
"-114 -129 CURVE",
"-229 -182 LINE",
"-176 -216 OFFCURVE",
"-94 -280 OFFCURVE",
"-38 -280 CURVE",
"-6 -260 OFFCURVE",
"29 -231 OFFCURVE",
"60 -205 CURVE"
);
}
);
};
layerId = "B2DEE47F-3CD3-4F49-916B-87AA61F92A4E";
name = "11 apr 22, 22:16";
paths = (
{
closed = 1;
nodes = (
"66 -205 LINE",
"129 -147 OFFCURVE",
"251 -58 OFFCURVE",
"265 -12 CURVE SMOOTH",
"475 690 LINE",
"459 700 LINE",
"338 700 LINE",
"277 489 OFFCURVE",
"75 -171 OFFCURVE",
"67 -199 CURVE"
);
},
{
closed = 1;
nodes = (
"77 -174 LINE",
"60 -193 OFFCURVE",
"34 -202 OFFCURVE",
"10 -202 CURVE SMOOTH",
"-12 -202 OFFCURVE",
"-76 -152 OFFCURVE",
"-105 -134 CURVE",
"-221 -187 LINE",
"-168 -221 OFFCURVE",
"-87 -280 OFFCURVE",
"-31 -280 CURVE",
"1 -260 OFFCURVE",
"35 -231 OFFCURVE",
"66 -205 CURVE"
);
}
);
width = 416;
}
);
leftKerningGroup = J;
rightKerningGroup = J;
unicode = 004A;
}
{
color = 3;
glyphname = K;
layers = (
{
anchors = (
{
name = bottom;
position = "{284, 0}";
}
);
hints = (
{
origin = "{0, 14}";
type = Corner;
name = _corner.rightSerif.cap;
options = 1;
},
{
origin = "{1, 0}";
type = Corner;
name = _corner.rightSerif.cap;
options = 1;
}
);
layerId = "4AEC2A2F-21E0-4005-B5C4-61417F12BD89";
paths = (
{
closed = 1;
nodes = (
"242 232 OFFCURVE",
"321 408 OFFCURVE",
"425 528 CURVE",
"491 580 OFFCURVE",
"603 620 OFFCURVE",
"673 636 CURVE",
"677 668 LINE",
"577 716 LINE",
"469 700 OFFCURVE",
"303 400 OFFCURVE",
"131 48 CURVE",
"127 48 LINE",
"313 688 LINE",
"297 700 LINE",
"218 700 LINE",
"18 2 LINE",
"118 -4 LINE"
);
},
{
closed = 1;
nodes = (
"513 12 LINE",
"388 380 LINE",
"310 356 LINE",
"308 364 LINE",
"296 360 LINE",
"412 2 LINE",
"467 -16 LINE"
);
}
);
width = 612;
},
{
anchors = (
{
name = bottom;
position = "{308, 0}";
}
);
hints = (
{
origin = "{0, 14}";
type = Corner;
name = _corner.rightSerif.cap;
options = 1;
},
{
origin = "{1, 0}";
type = Corner;
name = _corner.rightSerif.cap;
options = 1;
}
);
layerId = "B4D6250A-EC24-4DD5-8C49-5E627D155568";
paths = (
{
closed = 1;
nodes = (
"296 236 OFFCURVE",
"340 346 OFFCURVE",
"452 510 CURVE",
"524 566 OFFCURVE",
"644 592 OFFCURVE",
"724 608 CURVE",
"732 656 LINE",
"596 718 LINE",
"476 690 OFFCURVE",
"351 400 OFFCURVE",
"186 48 CURVE",
"178 50 LINE",
"360 676 LINE",
"340 700 LINE",
"218 700 LINE",
"18 2 LINE",
"188 -4 LINE"
);
},
{
closed = 1;
nodes = (
"573 12 LINE",
"464 392 LINE",
"372 371 LINE",
"369 383 LINE",
"332 328 LINE",
"421 4 LINE",
"527 -18 LINE"
);
}
);
width = 660;
},
{
associatedMasterId = "4AEC2A2F-21E0-4005-B5C4-61417F12BD89";
layerId = "3A935C0C-FCFD-40AD-9D23-3478A5E740E0";
name = "2 apr 22, 19:57";
paths = (
{
closed = 1;
nodes = (
"98 0 LINE",
"108 23 LINE",
"92 23 LINE",
"350 684 LINE",
"335 700 LINE",
"238 700 LINE",
"6 -3 LINE"
);
},
{
closed = 1;
nodes = (
"105 16 LINE",
"280 400 OFFCURVE",
"518 687 OFFCURVE",
"541 687 CURVE",
"699 713 LINE",
"699 740 LINE SMOOTH",
"699 760 OFFCURVE",
"657 781 OFFCURVE",
"615 780 CURVE",
"569 771 OFFCURVE",
"259 440 OFFCURVE",
"95 16 CURVE"
);
},
{
closed = 1;
nodes = (
"280 260 OFFCURVE",
"377 -26 OFFCURVE",
"440 -26 CURVE",
"595 70 LINE",
"591 76 LINE",
"534 47 LINE",
"460 47 OFFCURVE",
"371 369 OFFCURVE",
"371 383 CURVE",
"355 377 OFFCURVE",
"307 361 OFFCURVE",
"287 361 CURVE",
"280 348 LINE"
);
}
);
width = 613;
},
{
anchors = (
{
name = bottom;
position = "{266, -12}";
},
{
name = top;
position = "{470, 700}";
}
);
associatedMasterId = "B4D6250A-EC24-4DD5-8C49-5E627D155568";
background = {
paths = (
{
closed = 1;
nodes = (
"-29 -205 LINE",
"34 -147 OFFCURVE",
"163 -58 OFFCURVE",
"177 -12 CURVE SMOOTH",
"387 690 LINE",
"371 700 LINE",
"241 700 LINE",
"241 664 OFFCURVE",
"-23 -166 OFFCURVE",
"-33 -199 CURVE"
);
}
);
};
layerId = "75BC9261-86F2-4AF2-9C9A-32F4D46E533B";
name = "12 apr 22, 22:14";
paths = (
{
closed = 1;
nodes = (
"144 0 LINE",
"154 23 LINE",
"138 23 LINE",
"392 689 LINE",
"381 700 LINE",
"241 700 LINE",
"20 0 LINE"
);
},
{
closed = 1;
nodes = (
"151 16 LINE",
"326 400 OFFCURVE",
"547 654 OFFCURVE",
"570 654 CURVE",
"733 680 LINE",
"750 740 LINE SMOOTH",
"756 760 OFFCURVE",
"703 781 OFFCURVE",
"661 780 CURVE",
"615 771 OFFCURVE",
"289 440 OFFCURVE",
"125 16 CURVE"
);
},
{
closed = 1;
nodes = (
"307 249 OFFCURVE",
"404 -37 OFFCURVE",
"467 -37 CURVE",
"646 70 LINE",
"638 84 LINE",
"585 55 LINE",
"511 55 OFFCURVE",
"422 369 OFFCURVE",
"422 383 CURVE",
"406 377 OFFCURVE",
"334 350 OFFCURVE",
"314 350 CURVE",
"307 337 LINE"
);
}
);
width = 639;
}
);
leftKerningGroup = H;
rightKerningGroup = K;
unicode = 004B;
}
{
glyphname = L;
layers = (
{
anchors = (
{
name = bottom;
position = "{268, 0}";
},
{
name = top;
position = "{320, 700}";
},
{
name = topright;
position = "{360, 470}";
}
);
hints = (
{
origin = "{0, 1}";
type = Corner;
name = _corner.leftSerif.cap;
},
{
origin = "{0, 2}";
type = Corner;
name = _corner.rightSerif.cap;
options = 1;
},
{
origin = "{0, 3}";
type = Corner;
name = _corner.leftSerif.cap;
}
);
layerId = "4AEC2A2F-21E0-4005-B5C4-61417F12BD89";
paths = (
{
closed = 1;
nodes = (
"136 0 LINE",
"336 700 LINE",
"238 700 LINE",
"38 0 LINE"
);
},
{
closed = 1;
nodes = (
"464 0 LINE",
"516 188 LINE",
"504 188 LINE",
"380 20 LINE",
"122 20 LINE",
"116 0 LINE"
);
}
);
width = 560;
},
{
anchors = (
{
name = bottom;
position = "{296, 0}";
},
{
name = top;
position = "{380, 700}";
},
{
name = topright;
position = "{428, 490}";
}
);
hints = (
{
origin = "{0, 1}";
type = Corner;
name = _corner.leftSerif.cap;
},
{
origin = "{0, 2}";
type = Corner;
name = _corner.rightSerif.cap;
options = 1;
},
{
origin = "{0, 3}";
type = Corner;
name = _corner.leftSerif.cap;
}
);
layerId = "B4D6250A-EC24-4DD5-8C49-5E627D155568";
paths = (
{
closed = 1;
nodes = (
"190 0 LINE",
"390 700 LINE",
"240 700 LINE",
"40 0 LINE"
);
},
{
closed = 1;
nodes = (
"513 0 LINE",
"576 234 LINE",
"560 238 LINE",
"400 28 LINE",
"178 28 LINE",
"170 0 LINE"
);
}
);
width = 600;
},
{
anchors = (
{
name = bottom;
position = "{126, 0}";
},
{
name = center;
position = "{309, 350}";
},
{
name = top;
position = "{340, 700}";
},
{
name = topright;
position = "{671, 700}";
}
);
associatedMasterId = "B4D6250A-EC24-4DD5-8C49-5E627D155568";
layerId = "522462B5-2A60-4E9B-B8E6-1F7ADF943D11";
name = "11 apr 22, 22:14";
paths = (
{
closed = 1;
nodes = (
"193 0 LINE",
"414 700 LINE",
"260 700 LINE",
"39 0 LINE"
);
},
{
closed = 1;
nodes = (
"-6 0 LINE",
"485 0 LINE",
"494 30 LINE",
"65 37 LINE",
"-5 11 LINE"
);
},
{
closed = 1;
nodes = (
"557 185 LINE",
"532 191 LINE",
"503 154 OFFCURVE",
"387 17 OFFCURVE",
"357 18 CURVE",
"485 0 LINE"
);
}
);
width = 580;
}
);
leftKerningGroup = H;
leftMetricsKey = H;
rightKerningGroup = L;
unicode = 004C;
}
{
glyphname = M;
layers = (
{
hints = (
{
origin = "{0, 0}";
type = Corner;
name = _corner.rightSerif.cap;
options = 1;
},
{
origin = "{0, 14}";
type = Corner;
name = _corner.rightSerif.cap;
options = 1;
},
{
origin = "{0, 15}";
type = Corner;
name = _corner.leftSerif.cap;
},
{
origin = "{0, 8}";
type = Corner;
name = _corner.rightSerif.cap;
options = 1;
},
{
origin = "{0, 9}";
type = Corner;
name = _corner.leftSerif.cap;
},
{
origin = "{0, 7}";
type = Corner;
name = _corner.leftSerif.cap;
}
);
layerId = "4AEC2A2F-21E0-4005-B5C4-61417F12BD89";
paths = (
{
closed = 1;
nodes = (
"54 0 LINE",
"246 676 LINE",
"250 676 LINE",
"296 0 LINE",
"330 0 LINE",
"762 678 LINE",
"766 678 LINE",
"572 0 LINE",
"670 0 LINE",
"870 700 LINE",
"750 700 LINE",
"388 132 LINE",
"384 132 LINE",
"344 700 LINE",
"230 700 LINE",
"30 0 LINE"
);
}
);
width = 838;
},
{
background = {
hints = (
{
origin = "{0, 0}";
type = Corner;
name = _corner.rightSerif.cap;
options = 1;
},
{
origin = "{0, 7}";
type = Corner;
name = _corner.leftSerif.cap;
},
{
origin = "{0, 8}";
type = Corner;
name = _corner.rightSerif.cap;
options = 1;
},
{
origin = "{0, 9}";
type = Corner;
name = _corner.leftSerif.cap;
},
{
origin = "{0, 14}";
type = Corner;
name = _corner.rightSerif.cap;
options = 1;
},
{
origin = "{0, 15}";
type = Corner;
name = _corner.leftSerif.cap;
}
);
paths = (
{
closed = 1;
nodes = (
"94 0 LINE",
"286 676 LINE",
"290 676 LINE",
"336 0 LINE",
"370 0 LINE",
"802 678 LINE",
"806 678 LINE",
"612 0 LINE",
"710 0 LINE",
"910 700 LINE",
"790 700 LINE",
"428 132 LINE",
"424 132 LINE",
"384 700 LINE",
"270 700 LINE",
"70 0 LINE"
);
}
);
};
hints = (
{
origin = "{0, 0}";
type = Corner;
name = _corner.rightSerif.cap;
options = 1;
},
{
origin = "{0, 14}";
type = Corner;
name = _corner.rightSerif.cap;
options = 1;
},
{
origin = "{0, 15}";
type = Corner;
name = _corner.leftSerif.cap;
},
{
origin = "{0, 8}";
type = Corner;
name = _corner.rightSerif.cap;
options = 1;
},
{
origin = "{0, 9}";
type = Corner;
name = _corner.leftSerif.cap;
},
{
origin = "{0, 7}";
type = Corner;
name = _corner.leftSerif.cap;
}
);
layerId = "B4D6250A-EC24-4DD5-8C49-5E627D155568";
paths = (
{
closed = 1;
nodes = (
"56 0 LINE",
"244 660 LINE",
"252 660 LINE",
"304 0 LINE",
"404 0 LINE",
"786 658 LINE",
"794 656 LINE",
"606 0 LINE",
"756 0 LINE",
"956 700 LINE",
"784 700 LINE",
"454 136 LINE",
"446 136 LINE",
"400 700 LINE",
"230 700 LINE",
"30 0 LINE"
);
}
);
width = 932;
},
{
associatedMasterId = "4AEC2A2F-21E0-4005-B5C4-61417F12BD89";
layerId = "DA95A976-2407-4E86-8844-F7D9E8BE47BC";
name = "31 mar 22, 21:36";
paths = (
{
closed = 1;
nodes = (
"334 -2 LINE",
"411 120 LINE",
"417 174 LINE",
"387 704 LINE",
"292 700 LINE",
"273 700 LINE",
"317 -2 LINE"
);
},
{
closed = 1;
nodes = (
"42 0 LINE",
"73 0 LINE",
"286 700 LINE",
"260 700 LINE"
);
},
{
closed = 1;
nodes = (
"322 20 LINE",
"334 -2 LINE",
"811 700 LINE",
"785 700 LINE"
);
},
{
closed = 1;
nodes = (
"681 0 LINE",
"886 700 LINE",
"831 700 LINE",
"786 702 LINE",
"581 0 LINE"
);
}
);
width = 851;
},
{
anchors = (
{
name = bottom;
position = "{364, 0}";
},
{
name = top;
position = "{578, 700}";
}
);
associatedMasterId = "B4D6250A-EC24-4DD5-8C49-5E627D155568";
background = {
paths = (
{
closed = 1;
nodes = (
"709 0 LINE",
"930 700 LINE",
"776 700 LINE",
"555 0 LINE"
);
}
);
};
layerId = "23BFC0A2-9FC2-495D-B01A-6AF4A62599F4";
name = "11 apr 22, 23:13";
paths = (
{
closed = 1;
nodes = (
"334 -2 LINE",
"431 140 LINE",
"455 204 LINE",
"415 704 LINE",
"292 700 LINE",
"273 700 LINE",
"317 -2 LINE"
);
},
{
closed = 1;
nodes = (
"37 0 LINE",
"78 0 LINE",
"291 700 LINE",
"255 700 LINE"
);
},
{
closed = 1;
nodes = (
"322 40 LINE",
"334 -2 LINE",
"820 700 LINE",
"776 702 LINE"
);
},
{
closed = 1;
nodes = (
"712 0 LINE",
"917 700 LINE",
"839 700 LINE",
"776 702 LINE",
"571 0 LINE"
);
}
);
width = 873;
}
);
leftKerningGroup = H;
leftMetricsKey = N;
rightKerningGroup = H;
rightMetricsKey = H;
unicode = 004D;
}
{
glyphname = N;
layers = (
{
anchors = (
{
name = bottom;
position = "{260, 0}";
},
{
name = top;
position = "{452, 700}";
}
);
hints = (
{
origin = "{0, 5}";
type = Corner;
name = _corner.leftSerif.cap;
},
{
origin = "{0, 6}";
type = Corner;
name = _corner.rightSerif.cap;
options = 1;
},
{
origin = "{0, 10}";
type = Corner;
name = _corner.rightSerif.cap;
options = 1;
},
{
origin = "{0, 11}";
type = Corner;
name = _corner.leftSerif.cap;
},
{
origin = "{0, 0}";
type = Corner;
name = _corner.rightSerif.cap;
options = 1;
}
);
layerId = "4AEC2A2F-21E0-4005-B5C4-61417F12BD89";
paths = (
{
closed = 1;
nodes = (
"54 0 LINE",
"244 668 LINE",
"248 668 LINE",
"430 0 LINE",
"482 0 LINE",
"682 700 LINE",
"658 700 LINE",
"498 136 LINE",
"494 136 LINE",
"340 700 LINE",
"230 700 LINE",
"30 0 LINE"
);
}
);
width = 644;
},
{
anchors = (
{
name = bottom;
position = "{304, 0}";
},
{
name = top;
position = "{474, 700}";
}
);
hints = (
{
origin = "{0, 0}";
type = Corner;
name = _corner.rightSerif.cap;
options = 1;
},
{
origin = "{0, 5}";
type = Corner;
name = _corner.leftSerif.cap;
},
{
origin = "{0, 6}";
type = Corner;
name = _corner.rightSerif.cap;
options = 1;
},
{
origin = "{0, 10}";
type = Corner;
name = _corner.rightSerif.cap;
options = 1;
},
{
origin = "{0, 11}";
type = Corner;
name = _corner.leftSerif.cap;
}
);
layerId = "B4D6250A-EC24-4DD5-8C49-5E627D155568";
paths = (
{
closed = 1;
nodes = (
"56 0 LINE",
"244 660 LINE",
"252 660 LINE",
"424 0 LINE",
"538 0 LINE",
"738 700 LINE",
"712 700 LINE",
"554 144 LINE",
"546 144 LINE",
"400 700 LINE",
"230 700 LINE",
"30 0 LINE"
);
}
);
width = 670;
},
{
anchors = (
{
name = bottom;
position = "{268, 0}";
},
{
name = top;
position = "{471, 700}";
}
);
associatedMasterId = "4AEC2A2F-21E0-4005-B5C4-61417F12BD89";
layerId = "D4DD0203-54CC-4B01-A9A7-A8EDE32FF8D8";
name = "31 mar 22, 21:44";
paths = (
{
closed = 1;
nodes = (
"436 0 LINE",
"485 159 LINE",
"354 704 LINE",
"325 701 OFFCURVE",
"306 700 OFFCURVE",
"277 700 CURVE SMOOTH",
"258 700 LINE",
"260 667 LINE",
"416 0 LINE"
);
},
{
closed = 1;
nodes = (
"32 0 LINE",
"63 0 LINE",
"271 700 LINE",
"245 700 LINE"
);
},
{
closed = 1;
nodes = (
"157 700 LINE",
"153 687 LINE",
"241 673 LINE",
"262 700 LINE"
);
},
{
closed = 1;
nodes = (
"458 0 LINE",
"668 700 LINE",
"637 700 LINE",
"432 0 LINE"
);
}
);
width = 610;
},
{
anchors = (
{
name = bottom;
position = "{293, 0}";
},
{
name = top;
position = "{484, 700}";
}
);
associatedMasterId = "B4D6250A-EC24-4DD5-8C49-5E627D155568";
layerId = "97346F7C-440D-44D8-A5C5-6A48F3882351";
name = "11 apr 22, 22:01";
paths = (
{
closed = 1;
nodes = (
"497 0 LINE",
"546 177 LINE",
"425 704 LINE",
"396 701 OFFCURVE",
"317 700 OFFCURVE",
"289 700 CURVE",
"250 695 LINE",
"252 662 LINE",
"438 0 LINE"
);
},
{
closed = 1;
nodes = (
"44 0 LINE",
"85 0 LINE",
"293 700 LINE",
"257 700 LINE"
);
},
{
closed = 1;
nodes = (
"160 700 LINE",
"152 677 LINE",
"249 663 LINE",
"274 700 LINE"
);
},
{
closed = 1;
nodes = (
"500 0 LINE",
"710 700 LINE",
"669 700 LINE",
"464 0 LINE"
);
}
);
width = 670;
}
);
leftKerningGroup = H;
rightKerningGroup = J;
unicode = 004E;
}
{
color = 3;
glyphname = O;
layers = (
{
anchors = (
{
name = top;
position = "{416, 700}";
}
);
layerId = "4AEC2A2F-21E0-4005-B5C4-61417F12BD89";
paths = (
{
closed = 1;
nodes = (
"518 66 OFFCURVE",
"660 284 OFFCURVE",
"660 476 CURVE SMOOTH",
"660 621 OFFCURVE",
"566 714 OFFCURVE",
"424 714 CURVE",
"184 634 OFFCURVE",
"51 420 OFFCURVE",
"51 220 CURVE SMOOTH",
"51 80 OFFCURVE",
"144 -14 OFFCURVE",
"286 -14 CURVE"
);
},
{
closed = 1;
nodes = (
"215 6 OFFCURVE",
"157 109 OFFCURVE",
"157 264 CURVE SMOOTH",
"157 462 OFFCURVE",
"254 626 OFFCURVE",
"406 694 CURVE",
"496 694 OFFCURVE",
"553 596 OFFCURVE",
"553 440 CURVE SMOOTH",
"553 242 OFFCURVE",
"460 74 OFFCURVE",
"308 6 CURVE"
);
}
);
width = 644;
},
{
anchors = (
{
name = top;
position = "{463, 700}";
}
);
layerId = "B4D6250A-EC24-4DD5-8C49-5E627D155568";
paths = (
{
closed = 1;
nodes = (
"497 34 OFFCURVE",
"666 256 OFFCURVE",
"666 476 CURVE SMOOTH",
"666 612 OFFCURVE",
"573 710 OFFCURVE",
"441 714 CURVE",
"209 662 OFFCURVE",
"44 448 OFFCURVE",
"44 228 CURVE SMOOTH",
"44 88 OFFCURVE",
"133 -10 OFFCURVE",
"265 -14 CURVE"
);
},
{
closed = 1;
nodes = (
"241 38 OFFCURVE",
"208 112 OFFCURVE",
"208 224 CURVE SMOOTH",
"208 432 OFFCURVE",
"293 606 OFFCURVE",
"425 690 CURVE",
"469 666 OFFCURVE",
"501 588 OFFCURVE",
"501 480 CURVE SMOOTH",
"501 272 OFFCURVE",
"417 94 OFFCURVE",
"285 10 CURVE"
);
}
);
width = 648;
},
{
anchors = (
{
name = bottom;
position = "{225, 0}";
},
{
name = center;
position = "{332, 350}";
},
{
name = ogonek;
position = "{441, 10}";
},
{
name = top;
position = "{439, 700}";
},
{
name = topleft;
position = "{192, 700}";
},
{
name = topright;
position = "{685, 700}";
}
);
associatedMasterId = "4AEC2A2F-21E0-4005-B5C4-61417F12BD89";
background = {
paths = (
{
closed = 1;
nodes = (
"172 19 OFFCURVE",
"148 122 OFFCURVE",
"151 190 CURVE",
"151 381 OFFCURVE",
"307 691 OFFCURVE",
"428 691 CURVE",
"472 685 OFFCURVE",
"507 613 OFFCURVE",
"507 537 CURVE SMOOTH",
"507 264 OFFCURVE",
"338 24 OFFCURVE",
"222 13 CURVE"
);
},
{
closed = 1;
nodes = (
"391 6 OFFCURVE",
"617 299 OFFCURVE",
"617 522 CURVE SMOOTH",
"617 632 OFFCURVE",
"584 711 OFFCURVE",
"482 711 CURVE SMOOTH",
"268 711 OFFCURVE",
"44 406 OFFCURVE",
"44 194 CURVE SMOOTH",
"40 77 OFFCURVE",
"100 -7 OFFCURVE",
"170 -7 CURVE"
);
}
);
};
layerId = "283B6EC6-03A9-4FF1-9B5C-69ACCAB06CE6";
name = "31 mar 22, 21:08";
paths = (
{
closed = 1;
nodes = (
"191 20 OFFCURVE",
"154 87 OFFCURVE",
"154 198 CURVE SMOOTH",
"154 424 OFFCURVE",
"356 678 OFFCURVE",
"435 678 CURVE SMOOTH",
"501 678 OFFCURVE",
"546 624 OFFCURVE",
"546 505 CURVE SMOOTH",
"546 207 OFFCURVE",
"330 20 OFFCURVE",
"269 20 CURVE SMOOTH"
);
},
{
closed = 1;
nodes = (
"323 7 OFFCURVE",
"656 210 OFFCURVE",
"656 497 CURVE SMOOTH",
"656 631 OFFCURVE",
"591 709 OFFCURVE",
"486 713 CURVE",
"412 699 OFFCURVE",
"46 521 OFFCURVE",
"46 203 CURVE SMOOTH",
"46 68 OFFCURVE",
"115 -18 OFFCURVE",
"221 -18 CURVE"
);
}
);
width = 593;
},
{
anchors = (
{
name = bottom;
position = "{212, 0}";
},
{
name = center;
position = "{319, 350}";
},
{
name = ogonek;
position = "{361, 10}";
},
{
name = top;
position = "{486, 700}";
},
{
name = topleft;
position = "{141, 700}";
},
{
name = topright;
position = "{711, 700}";
}
);
associatedMasterId = "B4D6250A-EC24-4DD5-8C49-5E627D155568";
background = {
paths = (
{
closed = 1;
nodes = (
"192 19 OFFCURVE",
"168 122 OFFCURVE",
"171 190 CURVE",
"171 381 OFFCURVE",
"327 671 OFFCURVE",
"448 671 CURVE SMOOTH",
"516 671 OFFCURVE",
"527 593 OFFCURVE",
"527 517 CURVE SMOOTH",
"527 244 OFFCURVE",
"358 24 OFFCURVE",
"242 13 CURVE"
);
},
{
closed = 1;
nodes = (
"411 6 OFFCURVE",
"637 279 OFFCURVE",
"637 502 CURVE SMOOTH",
"637 612 OFFCURVE",
"604 691 OFFCURVE",
"502 691 CURVE SMOOTH",
"288 691 OFFCURVE",
"64 406 OFFCURVE",
"64 194 CURVE SMOOTH",
"60 77 OFFCURVE",
"120 -7 OFFCURVE",
"190 -7 CURVE"
);
}
);
};
layerId = "4AD7B118-962D-426B-AD2E-D31E19C857CE";
name = "11 apr 22, 23:36";
paths = (
{
closed = 1;
nodes = (
"251 29 OFFCURVE",
"213 87 OFFCURVE",
"213 198 CURVE SMOOTH",
"213 424 OFFCURVE",
"356 668 OFFCURVE",
"435 668 CURVE SMOOTH",
"461 668 OFFCURVE",
"497 624 OFFCURVE",
"497 505 CURVE SMOOTH",
"497 207 OFFCURVE",
"330 29 OFFCURVE",
"269 29 CURVE SMOOTH"
);
},
{
closed = 1;
nodes = (
"323 7 OFFCURVE",
"676 210 OFFCURVE",
"676 497 CURVE SMOOTH",
"676 631 OFFCURVE",
"591 709 OFFCURVE",
"486 713 CURVE",
"412 699 OFFCURVE",
"34 521 OFFCURVE",
"34 203 CURVE SMOOTH",
"34 68 OFFCURVE",
"115 -18 OFFCURVE",
"221 -18 CURVE"
);
}
);
width = 626;
}
);
leftKerningGroup = O;
rightKerningGroup = O;
rightMetricsKey = "=|+4";
unicode = 004F;
}
{
color = 3;
glyphname = Z;
layers = (
{
anchors = (
{
name = top;
position = "{384, 700}";
}
);
layerId = "4AEC2A2F-21E0-4005-B5C4-61417F12BD89";
paths = (
{
closed = 1;
nodes = (
"466 0 LINE",
"510 208 LINE",
"498 208 LINE",
"378 16 LINE",
"94 16 LINE",
"94 0 LINE",
"622 684 LINE",
"610 700 LINE",
"150 700 LINE",
"114 500 LINE",
"126 500 LINE",
"238 684 LINE",
"518 684 LINE",
"518 700 LINE",
"-10 20 LINE",
"1 0 LINE"
);
}
);
width = 550;
},
{
anchors = (
{
name = top;
position = "{384, 700}";
}
);
layerId = "B4D6250A-EC24-4DD5-8C49-5E627D155568";
paths = (
{
closed = 1;
nodes = (
"481 0 LINE",
"530 232 LINE",
"514 236 LINE",
"368 24 LINE",
"140 24 LINE",
"140 0 LINE",
"626 668 LINE",
"612 700 LINE",
"147 700 LINE",
"108 472 LINE",
"124 468 LINE",
"264 676 LINE",
"468 676 LINE",
"468 692 LINE",
"-12 36 LINE",
"8 0 LINE"
);
}
);
width = 568;
},
{
associatedMasterId = "4AEC2A2F-21E0-4005-B5C4-61417F12BD89";
background = {
paths = (
{
closed = 1;
nodes = (
"56 466 LINE",
"224 700 LINE",
"126 725 LINE",
"33 466 LINE"
);
},
{
closed = 1;
nodes = (
"277 -28 LINE",
"282 -31 LINE",
"362 17 LINE",
"530 127 LINE",
"522 142 LINE",
"344 32 LINE",
"213 32 OFFCURVE",
"223 138 OFFCURVE",
"68 138 CURVE",
"-2 59 LINE"
);
},
{
closed = 1;
nodes = (
"-76 -6 OFFCURVE",
"-55 -6 OFFCURVE",
"-41 -3 CURVE",
"62 120 OFFCURVE",
"84 156 OFFCURVE",
"170 240 CURVE",
"253 240 OFFCURVE",
"592 546 OFFCURVE",
"592 708 CURVE",
"589 711 OFFCURVE",
"542 748 OFFCURVE",
"536 749 CURVE",
"466 666 LINE",
"126 725 LINE",
"128 693 LINE",
"229 702 OFFCURVE",
"425 653 OFFCURVE",
"446 648 CURVE",
"446 584 OFFCURVE",
"190 289 OFFCURVE",
"-13 65 CURVE",
"-34 40 OFFCURVE",
"-64 14 OFFCURVE",
"-89 -4 CURVE"
);
}
);
};
layerId = "1B9AE04E-C4B3-46D6-8229-B18FDF24CBC9";
name = "4 apr 22, 23:11";
paths = (
{
closed = 1;
nodes = (
"614 688 LINE",
"610 700 LINE",
"512 700 LINE",
"-28 14 LINE",
"-20 0 LINE",
"88 0 LINE"
);
},
{
closed = 1;
nodes = (
"181 685 LINE",
"499 684 LINE",
"514 700 LINE",
"186 700 LINE"
);
},
{
closed = 1;
nodes = (
"72 0 LINE",
"404 0 LINE",
"409 15 LINE",
"77 15 LINE"
);
},
{
closed = 1;
nodes = (
"478 203 LINE",
"470 205 LINE",
"315 14 LINE",
"404 0 LINE"
);
},
{
closed = 1;
nodes = (
"126 517 LINE",
"134 515 LINE",
"279 685 LINE",
"184 694 LINE"
);
}
);
width = 548;
},
{
anchors = (
{
name = bottom;
position = "{227, 0}";
},
{
name = center;
position = "{334, 350}";
},
{
name = top;
position = "{441, 700}";
}
);
associatedMasterId = "B4D6250A-EC24-4DD5-8C49-5E627D155568";
layerId = "3362C047-D1BE-4A9B-9FE0-7C741F4DD91F";
name = "12 apr 22, 18:30";
paths = (
{
closed = 1;
nodes = (
"642 688 LINE",
"638 700 LINE",
"484 700 LINE",
"-46 14 LINE",
"-38 0 LINE",
"126 0 LINE"
);
},
{
closed = 1;
nodes = (
"181 671 LINE",
"499 670 LINE",
"514 700 LINE",
"186 700 LINE"
);
},
{
closed = 1;
nodes = (
"72 0 LINE",
"404 0 LINE",
"409 30 LINE",
"77 30 LINE"
);
},
{
closed = 1;
nodes = (
"478 203 LINE",
"460 205 LINE",
"305 13 LINE",
"404 0 LINE"
);
},
{
closed = 1;
nodes = (
"126 517 LINE",
"143 515 LINE",
"288 688 LINE",
"186 700 LINE"
);
}
);
width = 600;
}
);
leftKerningGroup = Z;
rightKerningGroup = Z;
unicode = 005A;
}
{
glyphname = asciicircum;
layers = (
{
layerId = "4AEC2A2F-21E0-4005-B5C4-61417F12BD89";
paths = (
{
closed = 1;
nodes = (
"392 738 LINE",
"482 470 LINE",
"519 480 LINE",
"417 772 LINE",
"377 772 LINE",
"119 493 LINE",
"149 470 LINE"
);
}
);
width = 484;
},
{
background = {
paths = (
{
closed = 1;
nodes = (
"307 772 LINE",
"267 772 LINE",
"87 488 LINE",
"121 470 LINE",
"288 740 LINE",
"453 470 LINE",
"487 488 LINE"
);
}
);
};
layerId = "B4D6250A-EC24-4DD5-8C49-5E627D155568";
paths = (
{
closed = 1;
nodes = (
"397 719 LINE",
"486 466 LINE",
"554 490 LINE",
"446 773 LINE",
"365 773 LINE",
"120 506 LINE",
"171 466 LINE"
);
}
);
width = 519;
}
);
leftKerningGroup = asciicircum;
rightKerningGroup = asciicircum;
unicode = 005E;
}
{
color = 3;
glyphname = backslash;
layers = (
{
layerId = "4AEC2A2F-21E0-4005-B5C4-61417F12BD89";
paths = (
{
closed = 1;
nodes = (
"478 -250 LINE",
"171 750 LINE",
"145 750 LINE",
"451 -250 LINE"
);
}
);
width = 504;
},
{
layerId = "B4D6250A-EC24-4DD5-8C49-5E627D155568";
paths = (
{
closed = 1;
nodes = (
"479 -250 LINE",
"172 750 LINE",
"138 750 LINE",
"444 -250 LINE"
);
}
);
width = 504;
}
);
leftKerningGroup = backslash;
rightKerningGroup = backslash;
unicode = 005C;
}
{
color = 5;
glyphname = bracketleft;
layers = (
{
hints = (
{
origin = "{0, 1}";
type = Corner;
name = _corner.leftSerif.cap;
},
{
origin = "{0, 0}";
type = Corner;
name = _corner.rightSerif.cap;
options = 1;
}
);
layerId = "4AEC2A2F-21E0-4005-B5C4-61417F12BD89";
paths = (
{
closed = 1;
nodes = (
"-18 -250 LINE",
"269 750 LINE",
"177 750 LINE",
"-110 -250 LINE"
);
}
);
width = 234;
},
{
hints = (
{
origin = "{0, 0}";
type = Corner;
name = _corner.rightSerif.cap;
options = 1;
},
{
origin = "{0, 1}";
type = Corner;
name = _corner.leftSerif.cap;
}
);
layerId = "B4D6250A-EC24-4DD5-8C49-5E627D155568";
paths = (
{
closed = 1;
nodes = (
"32 -250 LINE",
"320 750 LINE",
"174 750 LINE",
"-114 -250 LINE"
);
}
);
width = 302;
},
{
associatedMasterId = "4AEC2A2F-21E0-4005-B5C4-61417F12BD89";
layerId = "DCF6E671-5B6D-4452-8B95-11E5D97A7056";
name = "11 apr 22, 19:43";
paths = (
{
closed = 1;
nodes = (
"-123 -250 LINE",
"-31 -250 LINE",
"275 750 LINE",
"183 750 LINE"
);
},
{
closed = 1;
nodes = (
"99 -250 LINE",
"104 -235 LINE",
"-21 -221 LINE",
"-48 -250 LINE"
);
},
{
closed = 1;
nodes = (
"232 718 LINE",
"383 735 LINE",
"388 750 LINE",
"232 750 LINE"
);
}
);
width = 238;
}
);
leftKerningGroup = bracketleft;
rightKerningGroup = bracketleft;
unicode = 005B;
}
{
color = 5;
glyphname = bracketright;
layers = (
{
hints = (
{
origin = "{0, 2}";
type = Corner;
name = _corner.rightSerif.cap;
options = 1;
},
{
origin = "{0, 3}";
type = Corner;
name = _corner.leftSerif.cap;
}
);
layerId = "4AEC2A2F-21E0-4005-B5C4-61417F12BD89";
paths = (
{
closed = 1;
nodes = (
"66 -250 LINE",
"353 750 LINE",
"261 750 LINE",
"-26 -250 LINE"
);
}
);
width = 244;
},
{
hints = (
{
origin = "{0, 2}";
type = Corner;
name = _corner.rightSerif.cap;
options = 1;
},
{
origin = "{0, 3}";
type = Corner;
name = _corner.leftSerif.cap;
}
);
layerId = "B4D6250A-EC24-4DD5-8C49-5E627D155568";
paths = (
{
closed = 1;
nodes = (
"133 -250 LINE",
"419 750 LINE",
"273 750 LINE",
"-13 -250 LINE"
);
}
);
width = 312;
},
{
associatedMasterId = "4AEC2A2F-21E0-4005-B5C4-61417F12BD89";
layerId = "1CBEE0BC-6B87-4947-890B-DB6853C87973";
name = "11 apr 22, 19:45";
paths = (
{
closed = 1;
nodes = (
"-4 -250 LINE",
"88 -250 LINE",
"394 750 LINE",
"302 750 LINE"
);
},
{
closed = 1;
nodes = (
"5 -221 LINE",
"-120 -235 LINE",
"-125 -250 LINE",
"32 -250 LINE"
);
},
{
closed = 1;
nodes = (
"147 750 LINE",
"143 735 LINE",
"303 718 LINE",
"303 750 LINE"
);
}
);
width = 277;
}
);
leftKerningGroup = bracketright;
rightKerningGroup = bracketright;
unicode = 005D;
}
{
color = 5;
glyphname = underscore;
layers = (
{
layerId = "4AEC2A2F-21E0-4005-B5C4-61417F12BD89";
paths = (
{
closed = 1;
nodes = (
"395 -56 LINE",
"399 -30 LINE",
"-33 -30 LINE",
"-37 -56 LINE"
);
}
);
width = 508;
},
{
layerId = "B4D6250A-EC24-4DD5-8C49-5E627D155568";
paths = (
{
closed = 1;
nodes = (
"262 -64 LINE",
"270 -24 LINE",
"-38 -24 LINE",
"-46 -64 LINE"
);
}
);
width = 376;
}
);
leftKerningGroup = underscore;
rightKerningGroup = underscore;
unicode = 005F;
}
{
color = 3;
glyphname = k;
layers = (
{
anchors = (
{
name = bottom;
position = "{180, 0}";
}
);
hints = (
{
origin = "{0, 16}";
type = Corner;
name = _corner.rightSerif;
options = 1;
},
{
origin = "{0, 0}";
type = Corner;
name = _corner.rightSerif;
options = 1;
}
);
layerId = "4AEC2A2F-21E0-4005-B5C4-61417F12BD89";
paths = (
{
closed = 1;
nodes = (
"367 -48 LINE",
"311 180 LINE",
"245 188 LINE",
"245 192 LINE",
"345 224 OFFCURVE",
"449 304 OFFCURVE",
"449 400 CURVE SMOOTH",
"449 450 OFFCURVE",
"420 484 OFFCURVE",
"370 484 CURVE",
"282 460 OFFCURVE",
"172 224 OFFCURVE",
"96 48 CURVE",
"92 48 LINE",
"296 760 LINE",
"280 766 LINE",
"204 736 LINE",
"-6 2 LINE",
"84 -4 LINE",
"160 168 OFFCURVE",
"270 396 OFFCURVE",
"330 436 CURVE",
"349 436 OFFCURVE",
"359 420 OFFCURVE",
"359 392 CURVE SMOOTH",
"359 328 OFFCURVE",
"301 232 OFFCURVE",
"221 184 CURVE",
"271 -36 LINE",
"341 -56 LINE"
);
}
);
width = 460;
},
{
anchors = (
{
name = bottom;
position = "{232, 0}";
}
);
background = {
paths = (
{
closed = 0;
nodes = (
"436 504 LINE",
"508 504 OFFCURVE",
"549 459 OFFCURVE",
"549 392 CURVE SMOOTH",
"549 268 OFFCURVE",
"445 228 OFFCURVE",
"295 198 CURVE"
);
}
);
};
hints = (
{
origin = "{0, 16}";
type = Corner;
name = _corner.rightSerif;
options = 1;
},
{
origin = "{0, 0}";
type = Corner;
name = _corner.rightSerif;
options = 1;
}
);
layerId = "B4D6250A-EC24-4DD5-8C49-5E627D155568";
paths = (
{
closed = 1;
nodes = (
"444 -46 LINE",
"400 196 LINE",
"295 206 LINE",
"295 214 LINE",
"447 250 OFFCURVE",
"532 316 OFFCURVE",
"532 400 CURVE SMOOTH",
"532 460 OFFCURVE",
"488 500 OFFCURVE",
"420 504 CURVE",
"316 456 OFFCURVE",
"227 242 OFFCURVE",
"151 54 CURVE",
"143 56 LINE",
"344 740 LINE",
"288 768 LINE",
"203 736 LINE",
"-5 4 LINE",
"145 -4 LINE",
"213 168 OFFCURVE",
"288 324 OFFCURVE",
"356 396 CURVE",
"373 391 OFFCURVE",
"384 372 OFFCURVE",
"384 348 CURVE SMOOTH",
"384 300 OFFCURVE",
"340 248 OFFCURVE",
"264 208 CURVE",
"296 -24 LINE",
"396 -58 LINE"
);
}
);
width = 544;
},
{
anchors = (
{
name = bottom;
position = "{161, 0}";
},
{
name = top;
position = "{390, 750}";
}
);
associatedMasterId = "4AEC2A2F-21E0-4005-B5C4-61417F12BD89";
background = {
paths = (
{
closed = 1;
nodes = (
"54 24 OFFCURVE",
"84 -8 OFFCURVE",
"96 -12 CURVE",
"126 -1 LINE",
"356 752 LINE",
"350 758 LINE",
"252 724 LINE",
"43 46 LINE"
);
}
);
};
layerId = "E13F0D05-A5DB-4F73-BF3D-F823F8C46563";
name = "31 mar 22, 18:28";
paths = (
{
closed = 1;
nodes = (
"107 0 LINE",
"117 23 LINE",
"167 158 OFFCURVE",
"298 422 OFFCURVE",
"346 446 CURVE",
"361 446 OFFCURVE",
"372 437 OFFCURVE",
"372 394 CURVE SMOOTH",
"372 360 OFFCURVE",
"373 276 OFFCURVE",
"230 181 CURVE",
"230 136 OFFCURVE",
"281 -63 OFFCURVE",
"293 -63 CURVE",
"376 -34 LINE",
"314 174 LINE",
"266 178 LINE",
"376 220 OFFCURVE",
"466 314 OFFCURVE",
"466 400 CURVE SMOOTH",
"466 446 OFFCURVE",
"425 475 OFFCURVE",
"384 475 CURVE",
"359 464 OFFCURVE",
"274 459 OFFCURVE",
"107 23 CURVE",
"101 23 LINE",
"356 752 LINE",
"350 758 LINE",
"252 724 LINE",
"6 0 LINE"
);
}
);
width = 487;
},
{
anchors = (
{
name = bottom;
position = "{226, 0}";
},
{
name = top;
position = "{503, 750}";
}
);
associatedMasterId = "B4D6250A-EC24-4DD5-8C49-5E627D155568";
background = {
paths = (
{
closed = 1;
nodes = (
"24 37 LINE",
"44 9 OFFCURVE",
"55 -9 OFFCURVE",
"75 -15 CURVE",
"166 18 LINE",
"173 40 LINE",
"387 750 LINE",
"377 757 LINE",
"233 718 LINE"
);
},
{
closed = 1;
nodes = (
"170 0 LINE",
"189 51 LINE",
"266 219 OFFCURVE",
"365 387 OFFCURVE",
"392 407 CURVE",
"410 407 OFFCURVE",
"415 392 OFFCURVE",
"415 375 CURVE SMOOTH",
"415 340 OFFCURVE",
"289 93 OFFCURVE",
"289 35 CURVE",
"304 12 OFFCURVE",
"352 -5 OFFCURVE",
"393 -15 CURVE",
"428 18 LINE",
"429 36 OFFCURVE",
"570 348 OFFCURVE",
"570 408 CURVE",
"568 454 OFFCURVE",
"542 484 OFFCURVE",
"452 485 CURVE",
"377 475 OFFCURVE",
"246 235 OFFCURVE",
"169 61 CURVE",
"166 61 LINE",
"393 760 LINE",
"383 767 LINE",
"243 722 LINE",
"7 -7 LINE"
);
}
);
};
layerId = "B5150441-FCB7-41BA-ADE7-99635BCB7EDE";
name = "10 apr 22, 22:33";
paths = (
{
closed = 1;
nodes = (
"149 0 LINE",
"159 23 LINE",
"209 158 OFFCURVE",
"345 438 OFFCURVE",
"393 462 CURVE",
"402 462 OFFCURVE",
"409 447 OFFCURVE",
"409 425 CURVE SMOOTH",
"409 405 OFFCURVE",
"402 276 OFFCURVE",
"259 181 CURVE",
"259 136 OFFCURVE",
"330 -63 OFFCURVE",
"342 -63 CURVE",
"459 -20 LINE",
"385 187 LINE",
"295 178 LINE",
"405 220 OFFCURVE",
"543 345 OFFCURVE",
"543 431 CURVE SMOOTH",
"543 477 OFFCURVE",
"502 506 OFFCURVE",
"429 506 CURVE",
"404 495 OFFCURVE",
"303 459 OFFCURVE",
"136 23 CURVE",
"130 23 LINE",
"393 760 LINE",
"383 767 LINE",
"256 726 LINE",
"-3 0 LINE"
);
}
);
width = 565;
}
);
leftKerningGroup = l;
leftMetricsKey = l;
rightKerningGroup = k;
unicode = 006B;
}
{
glyphname = l;
layers = (
{
anchors = (
{
name = bottom;
position = "{48, 0}";
},
{
name = top;
position = "{252, 750}";
},
{
name = topright;
position = "{214, 470}";
}
);
hints = (
{
origin = "{0, 0}";
scale = "{1.48, 1}";
type = Corner;
name = _corner.rightSerif;
options = 1;
},
{
origin = "{0, 3}";
type = Corner;
name = _corner.rightSerif;
options = 1;
}
);
layerId = "4AEC2A2F-21E0-4005-B5C4-61417F12BD89";
paths = (
{
closed = 1;
nodes = (
"80 0 LINE",
"296 760 LINE",
"280 766 LINE",
"204 736 LINE",
"-4 12 LINE",
"58 -16 LINE"
);
}
);
width = 237;
},
{
anchors = (
{
name = bottom;
position = "{76, 0}";
},
{
name = top;
position = "{280, 750}";
},
{
name = topright;
position = "{273, 490}";
}
);
hints = (
{
origin = "{0, 0}";
scale = "{1.36, 1}";
type = Corner;
name = _corner.rightSerif;
options = 1;
},
{
origin = "{0, 3}";
type = Corner;
name = _corner.rightSerif;
options = 1;
}
);
layerId = "B4D6250A-EC24-4DD5-8C49-5E627D155568";
paths = (
{
closed = 1;
nodes = (
"136 4 LINE",
"344 744 LINE",
"284 768 LINE",
"202 736 LINE",
"0 24 LINE",
"104 -18 LINE"
);
}
);
width = 292;
},
{
anchors = (
{
name = bottom;
position = "{74, 0}";
},
{
name = center;
position = "{189, 375}";
},
{
name = top;
position = "{303, 750}";
},
{
name = topright;
position = "{478, 700}";
}
);
associatedMasterId = "4AEC2A2F-21E0-4005-B5C4-61417F12BD89";
background = {
paths = (
{
closed = 1;
nodes = (
"43 46 LINE",
"61 16 OFFCURVE",
"71 6 OFFCURVE",
"95 -12 CURVE",
"115 -5 LINE",
"259 470 LINE",
"248 475 LINE",
"166 448 LINE"
);
}
);
};
layerId = "FB60FCAA-7F81-4E47-8508-116D469279DE";
name = "29 mar 22, 19:46";
paths = (
{
closed = 1;
nodes = (
"54 24 OFFCURVE",
"84 -8 OFFCURVE",
"96 -12 CURVE",
"127 2 LINE",
"356 752 LINE",
"350 758 LINE",
"252 724 LINE",
"43 46 LINE"
);
}
);
width = 282;
},
{
anchors = (
{
name = bottom;
position = "{83, 0}";
},
{
name = center;
position = "{217, 375}";
},
{
name = top;
position = "{332, 750}";
},
{
name = topright;
position = "{504, 750}";
}
);
associatedMasterId = "B4D6250A-EC24-4DD5-8C49-5E627D155568";
background = {
paths = (
{
closed = 1;
nodes = (
"115 307 LINE",
"129 284 OFFCURVE",
"149 266 OFFCURVE",
"163 255 CURVE",
"250 288 LINE",
"394 750 LINE",
"384 757 LINE",
"240 718 LINE"
);
}
);
};
layerId = "22861A06-21F3-44DE-AC46-6A5B19C19E72";
name = "9 apr 22, 14:25";
paths = (
{
closed = 1;
nodes = (
"31 37 LINE",
"51 9 OFFCURVE",
"62 -9 OFFCURVE",
"82 -15 CURVE",
"174 22 LINE",
"394 750 LINE",
"384 757 LINE",
"236 704 LINE"
);
}
);
width = 324;
}
);
leftKerningGroup = l;
rightKerningGroup = l;
rightMetricsKey = idotless;
unicode = 006C;
}
{
glyphname = m;
layers = (
{
background = {
paths = (
{
closed = 1;
nodes = (
"122 0 LINE",
"131 22 LINE",
"208 190 OFFCURVE",
"321 417 OFFCURVE",
"362 434 CURVE",
"383 434 OFFCURVE",
"393 421 OFFCURVE",
"393 404 CURVE SMOOTH",
"393 369 OFFCURVE",
"259 47 OFFCURVE",
"248 0 CURVE",
"342 0 LINE",
"348 16 LINE",
"465 267 OFFCURVE",
"570 420 OFFCURVE",
"603 434 CURVE",
"621 434 OFFCURVE",
"634 421 OFFCURVE",
"634 404 CURVE SMOOTH",
"634 369 OFFCURVE",
"496 93 OFFCURVE",
"496 35 CURVE",
"507 14 OFFCURVE",
"528 -3 OFFCURVE",
"544 -12 CURVE",
"584 4 LINE",
"584 10 OFFCURVE",
"731 348 OFFCURVE",
"731 408 CURVE SMOOTH",
"731 454 OFFCURVE",
"703 484 OFFCURVE",
"643 485 CURVE",
"576 479 OFFCURVE",
"418 190 OFFCURVE",
"341 16 CURVE",
"337 16 LINE",
"373 116 OFFCURVE",
"480 368 OFFCURVE",
"480 408 CURVE SMOOTH",
"480 454 OFFCURVE",
"462 484 OFFCURVE",
"402 485 CURVE",
"335 479 OFFCURVE",
"199 196 OFFCURVE",
"122 22 CURVE",
"119 22 LINE",
"263 470 LINE",
"250 475 LINE",
"159 445 LINE",
"20 0 LINE"
);
}
);
};
hints = (
{
origin = "{0, 19}";
type = Corner;
name = _corner.rightSerif;
options = 1;
},
{
origin = "{0, 0}";
scale = "{1.48, 1}";
type = Corner;
name = _corner.rightSerif;
options = 1;
}
);
layerId = "4AEC2A2F-21E0-4005-B5C4-61417F12BD89";
paths = (
{
closed = 1;
nodes = (
"594 0 LINE",
"696 356 LINE SMOOTH",
"717 431 OFFCURVE",
"688 484 OFFCURVE",
"624 484 CURVE",
"532 460 OFFCURVE",
"438 224 OFFCURVE",
"362 48 CURVE",
"358 48 LINE",
"448 356 LINE SMOOTH",
"470 431 OFFCURVE",
"440 484 OFFCURVE",
"376 484 CURVE",
"284 460 OFFCURVE",
"190 224 OFFCURVE",
"114 48 CURVE",
"110 48 LINE",
"236 480 LINE",
"218 486 LINE",
"142 456 LINE",
"12 2 LINE",
"102 -4 LINE",
"178 168 OFFCURVE",
"272 392 OFFCURVE",
"336 436 CURVE",
"365 436 OFFCURVE",
"372 398 OFFCURVE",
"356 340 CURVE SMOOTH",
"264 2 LINE",
"350 -4 LINE",
"426 168 OFFCURVE",
"520 396 OFFCURVE",
"584 436 CURVE",
"613 436 OFFCURVE",
"621 398 OFFCURVE",
"604 340 CURVE SMOOTH",
"510 12 LINE",
"572 -16 LINE"
);
}
);
width = 743;
},
{
hints = (
{
origin = "{0, 0}";
scale = "{1.4, 1}";
type = Corner;
name = _corner.rightSerif;
options = 1;
},
{
origin = "{0, 19}";
type = Corner;
name = _corner.rightSerif;
options = 1;
}
);
layerId = "B4D6250A-EC24-4DD5-8C49-5E627D155568";
paths = (
{
closed = 1;
nodes = (
"692 4 LINE",
"784 336 LINE SMOOTH",
"812 438 OFFCURVE",
"772 504 OFFCURVE",
"684 504 CURVE",
"580 456 OFFCURVE",
"512 242 OFFCURVE",
"436 54 CURVE",
"428 56 LINE",
"510 328 LINE SMOOTH",
"542 435 OFFCURVE",
"505 504 OFFCURVE",
"416 504 CURVE",
"312 456 OFFCURVE",
"244 242 OFFCURVE",
"168 54 CURVE",
"160 56 LINE",
"286 480 LINE",
"229 508 LINE",
"145 476 LINE",
"12 4 LINE",
"162 -4 LINE",
"230 168 OFFCURVE",
"280 324 OFFCURVE",
"348 396 CURVE",
"372 388 OFFCURVE",
"380 358 OFFCURVE",
"368 316 CURVE SMOOTH",
"280 4 LINE",
"430 -4 LINE",
"498 168 OFFCURVE",
"548 324 OFFCURVE",
"616 396 CURVE",
"640 388 OFFCURVE",
"648 352 OFFCURVE",
"636 308 CURVE SMOOTH",
"556 20 LINE",
"660 -18 LINE"
);
}
);
width = 844;
},
{
associatedMasterId = "B4D6250A-EC24-4DD5-8C49-5E627D155568";
hints = (
{
origin = "{0, 19}";
type = Corner;
name = _corner.rightSerif;
options = 1;
},
{
origin = "{0, 0}";
scale = "{1.4, 1}";
type = Corner;
name = _corner.rightSerif;
options = 1;
}
);
layerId = "98B30972-070B-433D-8DB4-DFA321CB5E42";
name = "10 apr 22, 13:16";
paths = (
{
closed = 1;
nodes = (
"692 4 LINE",
"784 332 LINE SMOOTH",
"813 437 OFFCURVE",
"777 504 OFFCURVE",
"684 504 CURVE",
"580 456 OFFCURVE",
"516 244 OFFCURVE",
"440 56 CURVE",
"436 56 LINE",
"517 332 LINE SMOOTH",
"548 437 OFFCURVE",
"509 504 OFFCURVE",
"416 504 CURVE",
"312 456 OFFCURVE",
"248 244 OFFCURVE",
"172 56 CURVE",
"168 56 LINE",
"292 478 LINE",
"229 508 LINE",
"145 476 LINE",
"10 4 LINE",
"166 -4 LINE",
"234 168 OFFCURVE",
"280 324 OFFCURVE",
"348 396 CURVE",
"376 384 OFFCURVE",
"379 356 OFFCURVE",
"365 308 CURVE SMOOTH",
"278 4 LINE",
"434 -4 LINE",
"502 168 OFFCURVE",
"548 324 OFFCURVE",
"616 396 CURVE",
"644 384 OFFCURVE",
"646 356 OFFCURVE",
"632 308 CURVE SMOOTH",
"555 36 LINE",
"660 -18 LINE"
);
}
);
width = 844;
},
{
anchors = (
{
name = bottom;
position = "{350, 0}";
},
{
name = top;
position = "{496, 480}";
}
);
associatedMasterId = "B4D6250A-EC24-4DD5-8C49-5E627D155568";
background = {
paths = (
{
closed = 1;
nodes = (
"162 0 LINE",
"181 51 LINE",
"258 219 OFFCURVE",
"357 413 OFFCURVE",
"384 433 CURVE",
"397 433 OFFCURVE",
"407 418 OFFCURVE",
"407 401 CURVE SMOOTH",
"407 366 OFFCURVE",
"281 93 OFFCURVE",
"281 35 CURVE",
"296 12 OFFCURVE",
"323 -4 OFFCURVE",
"376 -14 CURVE",
"411 18 LINE",
"411 34 OFFCURVE",
"552 338 OFFCURVE",
"552 398 CURVE",
"552 449 OFFCURVE",
"524 491 OFFCURVE",
"444 492 CURVE",
"360 492 OFFCURVE",
"238 235 OFFCURVE",
"161 61 CURVE",
"158 61 LINE",
"307 480 LINE",
"297 487 LINE",
"167 448 LINE",
"9 -7 LINE"
);
}
);
};
layerId = "4D6579C7-EBC8-4D2B-8D47-2CF1471ED827";
name = "9 apr 22, 17:46";
paths = (
{
closed = 1;
nodes = (
"162 0 LINE",
"181 51 LINE",
"258 219 OFFCURVE",
"357 427 OFFCURVE",
"384 447 CURVE",
"397 447 OFFCURVE",
"407 432 OFFCURVE",
"407 415 CURVE SMOOTH",
"407 380 OFFCURVE",
"271 58 OFFCURVE",
"253 0 CURVE",
"409 0 LINE",
"407 29 LINE",
"409 61 OFFCURVE",
"556 352 OFFCURVE",
"556 412 CURVE",
"556 463 OFFCURVE",
"523 505 OFFCURVE",
"444 506 CURVE",
"360 506 OFFCURVE",
"238 235 OFFCURVE",
"161 61 CURVE",
"158 61 LINE",
"327 499 LINE",
"317 506 LINE",
"182 461 LINE",
"8 0 LINE"
);
},
{
closed = 1;
nodes = (
"383 0 LINE",
"414 0 LINE",
"491 168 OFFCURVE",
"607 427 OFFCURVE",
"634 447 CURVE",
"647 447 OFFCURVE",
"667 432 OFFCURVE",
"667 415 CURVE SMOOTH",
"667 380 OFFCURVE",
"521 88 OFFCURVE",
"521 30 CURVE",
"532 9 OFFCURVE",
"557 -23 OFFCURVE",
"576 -35 CURVE",
"666 9 LINE",
"666 25 OFFCURVE",
"807 352 OFFCURVE",
"807 412 CURVE",
"807 463 OFFCURVE",
"770 505 OFFCURVE",
"694 506 CURVE",
"610 506 OFFCURVE",
"473 196 OFFCURVE",
"396 22 CURVE",
"360 54 LINE"
);
}
);
width = 817;
}
);
leftKerningGroup = idotless;
leftMetricsKey = idotless;
rightKerningGroup = idotless;
rightMetricsKey = n;
unicode = 006D;
}
{
glyphname = n;
layers = (
{
anchors = (
{
name = bottom;
position = "{200, 0}";
},
{
name = top;
position = "{324, 470}";
}
);
hints = (
{
origin = "{0, 11}";
type = Corner;
name = _corner.rightSerif;
options = 1;
},
{
origin = "{0, 0}";
scale = "{1.48, 1}";
type = Corner;
name = _corner.rightSerif;
options = 1;
}
);
layerId = "4AEC2A2F-21E0-4005-B5C4-61417F12BD89";
paths = (
{
closed = 1;
nodes = (
"358 0 LINE",
"460 356 LINE SMOOTH",
"482 431 OFFCURVE",
"452 484 OFFCURVE",
"388 484 CURVE",
"292 460 OFFCURVE",
"192 224 OFFCURVE",
"116 48 CURVE",
"112 48 LINE",
"236 480 LINE",
"218 486 LINE",
"142 456 LINE",
"12 2 LINE",
"104 -4 LINE",
"180 168 OFFCURVE",
"280 396 OFFCURVE",
"348 436 CURVE",
"377 436 OFFCURVE",
"385 398 OFFCURVE",
"368 340 CURVE SMOOTH",
"274 12 LINE",
"336 -16 LINE"
);
}
);
width = 507;
},
{
anchors = (
{
name = bottom;
position = "{195, 0}";
},
{
name = top;
position = "{339, 470}";
}
);
associatedMasterId = "4AEC2A2F-21E0-4005-B5C4-61417F12BD89";
layerId = "8DB784B0-3971-47CF-A13F-0F38BF765323";
name = "29 mar 22, 19:56";
paths = (
{
closed = 1;
nodes = (
"101 0 LINE",
"110 22 LINE",
"187 190 OFFCURVE",
"306 416 OFFCURVE",
"344 436 CURVE",
"362 436 OFFCURVE",
"375 421 OFFCURVE",
"375 404 CURVE SMOOTH",
"375 369 OFFCURVE",
"259 93 OFFCURVE",
"259 35 CURVE",
"260 12 OFFCURVE",
"281 -3 OFFCURVE",
"297 -12 CURVE",
"336 1 LINE",
"336 8 OFFCURVE",
"472 348 OFFCURVE",
"472 408 CURVE",
"470 454 OFFCURVE",
"444 484 OFFCURVE",
"384 485 CURVE",
"317 479 OFFCURVE",
"178 196 OFFCURVE",
"101 22 CURVE",
"98 22 LINE",
"250 470 LINE",
"239 475 LINE",
"148 445 LINE",
"-1 0 LINE"
);
}
);
width = 511;
},
{
anchors = (
{
name = bottom;
position = "{248, 0}";
},
{
name = top;
position = "{376, 490}";
}
);
hints = (
{
origin = "{0, 11}";
type = Corner;
name = _corner.rightSerif;
options = 1;
},
{
origin = "{0, 0}";
scale = "{1.4, 1}";
type = Corner;
name = _corner.rightSerif;
options = 1;
}
);
layerId = "B4D6250A-EC24-4DD5-8C49-5E627D155568";
paths = (
{
closed = 1;
nodes = (
"441 4 LINE",
"532 332 LINE SMOOTH",
"560 432 OFFCURVE",
"520 504 OFFCURVE",
"428 504 CURVE",
"324 456 OFFCURVE",
"244 242 OFFCURVE",
"168 54 CURVE",
"160 56 LINE",
"288 480 LINE",
"229 508 LINE",
"145 476 LINE",
"12 4 LINE",
"162 -4 LINE",
"230 168 OFFCURVE",
"296 324 OFFCURVE",
"364 396 CURVE",
"392 388 OFFCURVE",
"398 360 OFFCURVE",
"386 316 CURVE SMOOTH",
"305 24 LINE",
"409 -18 LINE"
);
}
);
width = 593;
},
{
associatedMasterId = "B4D6250A-EC24-4DD5-8C49-5E627D155568";
hints = (
{
origin = "{0, 11}";
type = Corner;
name = _corner.rightSerif;
options = 1;
},
{
origin = "{0, 0}";
scale = "{1.4, 1}";
type = Corner;
name = _corner.rightSerif;
options = 1;
}
);
layerId = "55DB4CE7-522E-41F3-B45F-6CA117FE756E";
name = "10 apr 22, 12:23";
paths = (
{
closed = 1;
nodes = (
"441 4 LINE",
"533 332 LINE SMOOTH",
"562 437 OFFCURVE",
"521 504 OFFCURVE",
"428 504 CURVE",
"324 456 OFFCURVE",
"248 244 OFFCURVE",
"172 56 CURVE",
"168 56 LINE",
"292 478 LINE",
"229 508 LINE",
"145 476 LINE",
"10 4 LINE",
"166 -4 LINE",
"234 168 OFFCURVE",
"292 324 OFFCURVE",
"360 396 CURVE",
"388 388 OFFCURVE",
"397 360 OFFCURVE",
"384 316 CURVE SMOOTH",
"304 36 LINE",
"409 -18 LINE"
);
}
);
width = 593;
},
{
anchors = (
{
name = bottom;
position = "{223, 0}";
},
{
name = top;
position = "{369, 480}";
}
);
associatedMasterId = "B4D6250A-EC24-4DD5-8C49-5E627D155568";
background = {
paths = (
{
closed = 1;
nodes = (
"171 0 LINE",
"190 51 LINE",
"267 219 OFFCURVE",
"366 395 OFFCURVE",
"393 415 CURVE",
"411 415 OFFCURVE",
"416 400 OFFCURVE",
"416 383 CURVE SMOOTH",
"416 348 OFFCURVE",
"290 93 OFFCURVE",
"290 35 CURVE",
"301 11 OFFCURVE",
"326 -17 OFFCURVE",
"344 -30 CURVE",
"429 18 LINE",
"430 36 OFFCURVE",
"571 356 OFFCURVE",
"571 416 CURVE",
"569 462 OFFCURVE",
"521 493 OFFCURVE",
"453 493 CURVE",
"377 465 OFFCURVE",
"247 235 OFFCURVE",
"170 61 CURVE",
"167 61 LINE",
"394 760 LINE",
"384 767 LINE",
"244 722 LINE",
"10 0 LINE"
);
}
);
};
layerId = "2821FDFD-507B-429C-95AD-1EBD3AA24D2D";
name = "9 apr 22, 11:59";
paths = (
{
closed = 1;
nodes = (
"170 0 LINE",
"189 51 LINE",
"263 221 OFFCURVE",
"377 408 OFFCURVE",
"404 428 CURVE",
"417 428 OFFCURVE",
"427 413 OFFCURVE",
"427 396 CURVE SMOOTH",
"427 361 OFFCURVE",
"304 93 OFFCURVE",
"304 35 CURVE",
"315 14 OFFCURVE",
"340 -18 OFFCURVE",
"359 -30 CURVE",
"423 11 LINE",
"423 27 OFFCURVE",
"555 333 OFFCURVE",
"555 393 CURVE",
"555 444 OFFCURVE",
"539 505 OFFCURVE",
"464 506 CURVE",
"380 506 OFFCURVE",
"243 237 OFFCURVE",
"169 61 CURVE",
"166 61 LINE",
"327 501 LINE",
"317 508 LINE",
"176 457 LINE",
"26 0 LINE"
);
}
);
width = 604;
}
);
leftKerningGroup = idotless;
leftMetricsKey = idotless;
rightKerningGroup = idotless;
unicode = 006E;
}
{
glyphname = o;
layers = (
{
anchors = (
{
name = ogonek;
position = "{188, 0}";
},
{
name = top;
position = "{276, 470}";
}
);
layerId = "4AEC2A2F-21E0-4005-B5C4-61417F12BD89";
paths = (
{
closed = 1;
nodes = (
"315 40 OFFCURVE",
"426 168 OFFCURVE",
"426 332 CURVE SMOOTH",
"426 424 OFFCURVE",
"372 484 OFFCURVE",
"282 484 CURVE",
"122 432 OFFCURVE",
"10 290 OFFCURVE",
"10 144 CURVE SMOOTH",
"10 60 OFFCURVE",
"61 -14 OFFCURVE",
"152 -14 CURVE"
);
},
{
closed = 1;
nodes = (
"133 10 OFFCURVE",
"101 79 OFFCURVE",
"101 176 CURVE SMOOTH",
"101 297 OFFCURVE",
"166 416 OFFCURVE",
"254 460 CURVE",
"301 460 OFFCURVE",
"334 393 OFFCURVE",
"334 300 CURVE SMOOTH",
"334 169 OFFCURVE",
"267 50 OFFCURVE",
"179 10 CURVE"
);
}
);
width = 446;
},
{
associatedMasterId = "4AEC2A2F-21E0-4005-B5C4-61417F12BD89";
background = {
paths = (
{
closed = 1;
nodes = (
"130 17 OFFCURVE",
"103 64 OFFCURVE",
"104 124 CURVE SMOOTH",
"109 265 OFFCURVE",
"233 443 OFFCURVE",
"283 443 CURVE SMOOTH",
"334 443 OFFCURVE",
"341 410 OFFCURVE",
"339 359 CURVE SMOOTH",
"334 244 OFFCURVE",
"254 12 OFFCURVE",
"151 16 CURVE SMOOTH"
);
},
{
closed = 1;
nodes = (
"230 -15 OFFCURVE",
"432 198 OFFCURVE",
"439 378 CURVE",
"439 456 OFFCURVE",
"364 474 OFFCURVE",
"327 474 CURVE",
"197 443 OFFCURVE",
"12 275 OFFCURVE",
"7 114 CURVE SMOOTH",
"4 45 OFFCURVE",
"65 -15 OFFCURVE",
"104 -15 CURVE"
);
}
);
};
layerId = "4FC1CDCA-2B3E-469F-91C6-4831B60C2FEF";
name = "29 mar 22, 19:37";
paths = (
{
closed = 1;
nodes = (
"130 17 OFFCURVE",
"103 64 OFFCURVE",
"104 124 CURVE SMOOTH",
"109 265 OFFCURVE",
"233 443 OFFCURVE",
"283 443 CURVE SMOOTH",
"334 443 OFFCURVE",
"341 410 OFFCURVE",
"339 359 CURVE SMOOTH",
"334 244 OFFCURVE",
"254 12 OFFCURVE",
"151 16 CURVE SMOOTH"
);
},
{
closed = 1;
nodes = (
"230 -15 OFFCURVE",
"432 198 OFFCURVE",
"439 378 CURVE",
"439 456 OFFCURVE",
"364 474 OFFCURVE",
"327 474 CURVE",
"197 443 OFFCURVE",
"12 275 OFFCURVE",
"7 114 CURVE SMOOTH",
"4 45 OFFCURVE",
"65 -15 OFFCURVE",
"104 -15 CURVE"
);
}
);
width = 420;
},
{
anchors = (
{
name = ogonek;
position = "{224, 0}";
},
{
name = top;
position = "{300, 490}";
}
);
layerId = "B4D6250A-EC24-4DD5-8C49-5E627D155568";
paths = (
{
closed = 1;
nodes = (
"346 20 OFFCURVE",
"476 164 OFFCURVE",
"476 320 CURVE SMOOTH",
"476 424 OFFCURVE",
"412 500 OFFCURVE",
"312 504 CURVE",
"135 469 OFFCURVE",
"10 324 OFFCURVE",
"10 168 CURVE SMOOTH",
"10 60 OFFCURVE",
"72 -10 OFFCURVE",
"172 -14 CURVE"
);
},
{
closed = 1;
nodes = (
"170 22 OFFCURVE",
"157 70 OFFCURVE",
"157 132 CURVE SMOOTH",
"157 270 OFFCURVE",
"213 431 OFFCURVE",
"290 476 CURVE",
"316 469 OFFCURVE",
"328 424 OFFCURVE",
"328 362 CURVE SMOOTH",
"328 221 OFFCURVE",
"274 59 OFFCURVE",
"195 14 CURVE"
);
}
);
width = 494;
},
{
associatedMasterId = "B4D6250A-EC24-4DD5-8C49-5E627D155568";
layerId = "35395BE6-4B2E-4F87-B4C2-460AA2E576C5";
name = "9 apr 22, 19:07";
paths = (
{
closed = 1;
nodes = (
"354 26 OFFCURVE",
"474 168 OFFCURVE",
"474 324 CURVE SMOOTH",
"474 432 OFFCURVE",
"402 504 OFFCURVE",
"302 504 CURVE",
"130 464 OFFCURVE",
"12 328 OFFCURVE",
"12 172 CURVE SMOOTH",
"12 60 OFFCURVE",
"82 -14 OFFCURVE",
"182 -14 CURVE"
);
},
{
closed = 1;
nodes = (
"174 22 OFFCURVE",
"160 80 OFFCURVE",
"160 152 CURVE SMOOTH",
"160 284 OFFCURVE",
"211 430 OFFCURVE",
"282 476 CURVE",
"310 468 OFFCURVE",
"326 416 OFFCURVE",
"326 344 CURVE SMOOTH",
"326 208 OFFCURVE",
"275 60 OFFCURVE",
"202 14 CURVE"
);
}
);
width = 492;
}
);
leftKerningGroup = o;
rightKerningGroup = o;
unicode = 006F;
}
{
glyphname = asciitilde;
layers = (
{
layerId = "4AEC2A2F-21E0-4005-B5C4-61417F12BD89";
paths = (
{
closed = 1;
nodes = (
"63 176 LINE",
"79 225 OFFCURVE",
"109 256 OFFCURVE",
"145 256 CURVE SMOOTH",
"203 256 OFFCURVE",
"226 176 OFFCURVE",
"298 176 CURVE SMOOTH",
"359 176 OFFCURVE",
"411 223 OFFCURVE",
"432 296 CURVE",
"391 296 LINE",
"376 247 OFFCURVE",
"346 216 OFFCURVE",
"309 216 CURVE SMOOTH",
"251 216 OFFCURVE",
"228 296 OFFCURVE",
"156 296 CURVE SMOOTH",
"95 296 OFFCURVE",
"43 249 OFFCURVE",
"22 176 CURVE"
);
}
);
width = 453;
},
{
background = {
paths = (
{
closed = 1;
nodes = (
"38 176 LINE",
"40 225 OFFCURVE",
"64 256 OFFCURVE",
"100 256 CURVE SMOOTH",
"158 256 OFFCURVE",
"204 176 OFFCURVE",
"276 176 CURVE SMOOTH",
"337 176 OFFCURVE",
"376 223 OFFCURVE",
"376 296 CURVE",
"338 296 LINE",
"337 247 OFFCURVE",
"313 216 OFFCURVE",
"276 216 CURVE SMOOTH",
"218 216 OFFCURVE",
"172 296 OFFCURVE",
"100 296 CURVE SMOOTH",
"39 296 OFFCURVE",
"0 249 OFFCURVE",
"0 176 CURVE"
);
}
);
};
layerId = "B4D6250A-EC24-4DD5-8C49-5E627D155568";
paths = (
{
closed = 1;
nodes = (
"77 166 LINE",
"95 225 OFFCURVE",
"120 246 OFFCURVE",
"153 246 CURVE SMOOTH",
"206 246 OFFCURVE",
"247 166 OFFCURVE",
"322 166 CURVE SMOOTH",
"393 166 OFFCURVE",
"446 218 OFFCURVE",
"470 306 CURVE",
"409 306 LINE",
"393 248 OFFCURVE",
"368 226 OFFCURVE",
"333 226 CURVE SMOOTH",
"281 226 OFFCURVE",
"239 306 OFFCURVE",
"164 306 CURVE SMOOTH",
"85 306 OFFCURVE",
"38 248 OFFCURVE",
"16 166 CURVE"
);
}
);
width = 491;
}
);
leftKerningGroup = tildecomb;
rightKerningGroup = tildecomb;
unicode = 007E;
}
{
glyphname = bar;
layers = (
{
layerId = "4AEC2A2F-21E0-4005-B5C4-61417F12BD89";
paths = (
{
closed = 1;
nodes = (
"-21 -250 LINE",
"285 750 LINE",
"243 750 LINE",
"-63 -250 LINE"
);
}
);
width = 213;
},
{
layerId = "B4D6250A-EC24-4DD5-8C49-5E627D155568";
paths = (
{
closed = 1;
nodes = (
"-1 -250 LINE",
"304 750 LINE",
"239 750 LINE",
"-67 -251 LINE"
);
}
);
width = 235;
}
);
leftKerningGroup = bar;
rightKerningGroup = bar;
unicode = 007C;
}
{
color = 3;
glyphname = braceleft;
layers = (
{
layerId = "4AEC2A2F-21E0-4005-B5C4-61417F12BD89";
paths = (
{
closed = 1;
nodes = (
"24 -244 LINE",
"4 -224 OFFCURVE",
"1 -164 OFFCURVE",
"22 -92 CURVE SMOOTH",
"88 138 LINE SMOOTH",
"108 208 OFFCURVE",
"89 260 OFFCURVE",
"40 273 CURVE",
"100 285 OFFCURVE",
"142 329 OFFCURVE",
"168 417 CURVE SMOOTH",
"224 604 LINE SMOOTH",
"246 678 OFFCURVE",
"285 725 OFFCURVE",
"326 740 CURVE",
"322 752 LINE",
"241 735 OFFCURVE",
"160 694 OFFCURVE",
"108 512 CURVE SMOOTH",
"60 345 LINE SMOOTH",
"49 306 OFFCURVE",
"27 293 OFFCURVE",
"-20 287 CURVE",
"-22 275 LINE",
"25 275 OFFCURVE",
"32 248 OFFCURVE",
"24 219 CURVE SMOOTH",
"-58 -68 LINE SMOOTH",
"-83 -156 OFFCURVE",
"-49 -232 OFFCURVE",
"20 -252 CURVE"
);
}
);
width = 212;
},
{
layerId = "B4D6250A-EC24-4DD5-8C49-5E627D155568";
paths = (
{
closed = 1;
nodes = (
"84 -240 LINE",
"64 -220 OFFCURVE",
"61 -164 OFFCURVE",
"82 -92 CURVE SMOOTH",
"148 138 LINE SMOOTH",
"168 208 OFFCURVE",
"149 260 OFFCURVE",
"100 273 CURVE",
"160 285 OFFCURVE",
"202 329 OFFCURVE",
"228 417 CURVE SMOOTH",
"284 604 LINE SMOOTH",
"306 678 OFFCURVE",
"345 721 OFFCURVE",
"386 736 CURVE",
"382 752 LINE",
"252 740 OFFCURVE",
"145 646 OFFCURVE",
"106 512 CURVE SMOOTH",
"62 360 LINE SMOOTH",
"51 323 OFFCURVE",
"19 296 OFFCURVE",
"-22 291 CURVE",
"-24 271 LINE",
"12 271 OFFCURVE",
"29 246 OFFCURVE",
"18 208 CURVE SMOOTH",
"-60 -68 LINE SMOOTH",
"-88 -168 OFFCURVE",
"-34 -240 OFFCURVE",
"78 -252 CURVE"
);
}
);
width = 272;
}
);
leftKerningGroup = braceleft;
rightKerningGroup = braceleft;
unicode = 007B;
}
{
color = 3;
glyphname = braceright;
layers = (
{
background = {
paths = (
{
closed = 0;
nodes = (
"178 145 LINE SMOOTH",
"158 215 OFFCURVE",
"177 267 OFFCURVE",
"226 280 CURVE",
"166 292 OFFCURVE",
"124 336 OFFCURVE",
"98 424 CURVE SMOOTH"
);
},
{
closed = 0;
nodes = (
"206 352 LINE SMOOTH",
"217 313 OFFCURVE",
"239 300 OFFCURVE",
"286 294 CURVE",
"288 282 LINE",
"241 282 OFFCURVE",
"234 255 OFFCURVE",
"242 226 CURVE SMOOTH"
);
}
);
};
layerId = "4AEC2A2F-21E0-4005-B5C4-61417F12BD89";
paths = (
{
closed = 1;
nodes = (
"-19 -235 OFFCURVE",
"61 -195 OFFCURVE",
"114 -12 CURVE SMOOTH",
"170 182 LINE SMOOTH",
"180 218 OFFCURVE",
"200 236 OFFCURVE",
"248 240 CURVE",
"250 252 LINE",
"203 252 OFFCURVE",
"198 279 OFFCURVE",
"206 308 CURVE SMOOTH",
"280 568 LINE SMOOTH",
"305 656 OFFCURVE",
"269 732 OFFCURVE",
"200 752 CURVE",
"196 744 LINE",
"216 724 OFFCURVE",
"221 664 OFFCURVE",
"200 592 CURVE SMOOTH",
"142 389 LINE SMOOTH",
"122 319 OFFCURVE",
"140 267 OFFCURVE",
"189 254 CURVE",
"129 242 OFFCURVE",
"88 198 OFFCURVE",
"62 110 CURVE SMOOTH",
"-2 -104 LINE SMOOTH",
"-24 -178 OFFCURVE",
"-63 -225 OFFCURVE",
"-104 -240 CURVE",
"-100 -252 LINE"
);
}
);
width = 220;
},
{
layerId = "B4D6250A-EC24-4DD5-8C49-5E627D155568";
paths = (
{
closed = 1;
nodes = (
"32 -240 OFFCURVE",
"130 -142 OFFCURVE",
"168 -12 CURVE SMOOTH",
"222 172 LINE SMOOTH",
"233 208 OFFCURVE",
"265 233 OFFCURVE",
"303 236 CURVE",
"305 256 LINE",
"270 256 OFFCURVE",
"254 284 OFFCURVE",
"266 328 CURVE SMOOTH",
"334 568 LINE SMOOTH",
"362 668 OFFCURVE",
"308 740 OFFCURVE",
"194 752 CURVE",
"188 740 LINE",
"208 720 OFFCURVE",
"213 664 OFFCURVE",
"192 592 CURVE SMOOTH",
"134 389 LINE SMOOTH",
"114 319 OFFCURVE",
"132 267 OFFCURVE",
"181 254 CURVE",
"121 242 OFFCURVE",
"80 198 OFFCURVE",
"54 110 CURVE SMOOTH",
"-10 -104 LINE SMOOTH",
"-32 -178 OFFCURVE",
"-71 -225 OFFCURVE",
"-112 -240 CURVE",
"-108 -252 LINE"
);
}
);
width = 280;
},
{
associatedMasterId = "4AEC2A2F-21E0-4005-B5C4-61417F12BD89";
layerId = "20094758-6544-4EE5-8BE4-D70A2CE032AE";
name = "11 apr 22, 21:46";
paths = (
{
closed = 1;
nodes = (
"243 300 OFFCURVE",
"229 309 OFFCURVE",
"229 330 CURVE SMOOTH",
"229 337 OFFCURVE",
"327 648 OFFCURVE",
"327 667 CURVE",
"327 700 OFFCURVE",
"279 750 OFFCURVE",
"238 750 CURVE",
"237 745 LINE",
"246 745 OFFCURVE",
"250 735 OFFCURVE",
"250 721 CURVE SMOOTH",
"250 662 OFFCURVE",
"169 452 OFFCURVE",
"169 405 CURVE SMOOTH",
"169 340 OFFCURVE",
"201 307 OFFCURVE",
"212 289 CURVE",
"182 262 OFFCURVE",
"115 223 OFFCURVE",
"82 147 CURVE",
"44 25 OFFCURVE",
"24 -40 OFFCURVE",
"-13 -162 CURVE SMOOTH",
"-20 -185 OFFCURVE",
"-44 -245 OFFCURVE",
"-66 -245 CURVE",
"-68 -250 LINE",
"-40 -250 OFFCURVE",
"72 -171 OFFCURVE",
"82 -138 CURVE SMOOTH",
"194 228 LINE SMOOTH",
"203 257 OFFCURVE",
"227 280 OFFCURVE",
"264 284 CURVE",
"268 295 LINE"
);
}
);
width = 250;
}
);
leftKerningGroup = braceright;
rightKerningGroup = braceright;
unicode = 007D;
}
{
color = 3;
glyphname = z;
layers = (
{
anchors = (
{
name = top;
position = "{268, 470}";
}
);
hints = (
{
origin = "{0, 2}";
scale = "{1.48, 1}";
type = Corner;
name = _corner.rightSerif;
options = 1;
}
);
layerId = "4AEC2A2F-21E0-4005-B5C4-61417F12BD89";
paths = (
{
closed = 1;
nodes = (
"18 32 LINE",
"247 -16 LINE",
"269 0 LINE",
"297 40 LINE",
"246 80 OFFCURVE",
"166 109 OFFCURVE",
"94 112 CURVE",
"158 184 LINE",
"298 228 OFFCURVE",
"410 350 OFFCURVE",
"434 470 CURVE",
"360 496 LINE",
"292 352 OFFCURVE",
"121 140 OFFCURVE",
"-58 -20 CURVE",
"-50 -28 LINE"
);
},
{
closed = 1;
nodes = (
"182 456 LINE",
"330 420 LINE",
"334 432 LINE",
"104 486 LINE",
"74 441 OFFCURVE",
"56 378 OFFCURVE",
"42 308 CURVE",
"62 300 LINE"
);
}
);
width = 432;
},
{
anchors = (
{
name = top;
position = "{276, 490}";
}
);
hints = (
{
origin = "{0, 2}";
scale = "{1.48, 1}";
type = Corner;
name = _corner.rightSerif;
options = 1;
}
);
layerId = "B4D6250A-EC24-4DD5-8C49-5E627D155568";
paths = (
{
closed = 1;
nodes = (
"18 24 LINE",
"277 -18 LINE",
"302 0 LINE",
"328 48 LINE",
"284 100 OFFCURVE",
"206 138 OFFCURVE",
"130 146 CURVE",
"166 184 LINE",
"334 224 OFFCURVE",
"446 340 OFFCURVE",
"478 480 CURVE",
"350 516 LINE",
"270 340 OFFCURVE",
"126 152 OFFCURVE",
"-62 -16 CURVE",
"-46 -32 LINE"
);
},
{
closed = 1;
nodes = (
"206 464 LINE",
"342 436 LINE",
"346 456 LINE",
"94 508 LINE",
"66 448 OFFCURVE",
"50 384 OFFCURVE",
"42 316 CURVE",
"110 300 LINE"
);
}
);
width = 460;
},
{
anchors = (
{
name = bottom;
position = "{151, 0}";
},
{
name = center;
position = "{223, 235}";
},
{
name = top;
position = "{295, 470}";
}
);
associatedMasterId = "4AEC2A2F-21E0-4005-B5C4-61417F12BD89";
background = {
paths = (
{
closed = 1;
nodes = (
"73 363 LINE",
"166 477 LINE",
"110 482 LINE",
"68 363 LINE"
);
},
{
closed = 1;
nodes = (
"248 -29 LINE",
"249 -31 LINE",
"304 1 LINE",
"417 56 LINE",
"412 66 LINE",
"298 6 LINE",
"270 10 OFFCURVE",
"121 78 OFFCURVE",
"100 102 CURVE",
"28 29 LINE"
);
},
{
closed = 1;
nodes = (
"-10 -12 LINE",
"64 65 OFFCURVE",
"98 121 OFFCURVE",
"157 178 CURVE",
"209 219 OFFCURVE",
"417 394 OFFCURVE",
"447 487 CURVE",
"437 493 LINE",
"429 477 LINE",
"110 482 LINE",
"111 469 LINE",
"180 475 OFFCURVE",
"298 463 OFFCURVE",
"313 459 CURVE",
"313 410 OFFCURVE",
"116 133 OFFCURVE",
"-28 -13 CURVE"
);
}
);
};
layerId = "78776B3B-0063-4175-A5B6-EF4DA126146D";
name = "30 mar 22, 22:34";
paths = (
{
closed = 1;
nodes = (
"-27 -14 OFFCURVE",
"-13 -14 OFFCURVE",
"-4 -12 CURVE",
"30 28 LINE",
"246 -29 LINE",
"249 -31 LINE",
"304 1 LINE",
"417 76 LINE",
"412 86 LINE",
"318 27 LINE",
"231 27 OFFCURVE",
"202 111 OFFCURVE",
"103 115 CURVE",
"163 178 LINE",
"313 229 OFFCURVE",
"403 336 OFFCURVE",
"439 470 CURVE",
"437 472 OFFCURVE",
"392 497 OFFCURVE",
"388 498 CURVE",
"340 441 LINE",
"110 482 LINE",
"47 306 LINE",
"76 306 LINE",
"191 456 LINE",
"327 429 LINE",
"327 386 OFFCURVE",
"153 186 OFFCURVE",
"16 34 CURVE SMOOTH",
"1 17 OFFCURVE",
"-19 0 OFFCURVE",
"-36 -13 CURVE"
);
}
);
width = 446;
},
{
anchors = (
{
name = bottom;
position = "{153, 0}";
},
{
name = center;
position = "{226, 240}";
},
{
name = top;
position = "{298, 495}";
}
);
associatedMasterId = "B4D6250A-EC24-4DD5-8C49-5E627D155568";
background = {
paths = (
{
closed = 1;
nodes = (
"417 99 LINE",
"328 50 LINE",
"241 50 OFFCURVE",
"200 124 OFFCURVE",
"101 128 CURVE",
"160 182 LINE",
"313 233 OFFCURVE",
"442 309 OFFCURVE",
"478 443 CURVE",
"476 445 OFFCURVE",
"376 497 OFFCURVE",
"372 498 CURVE",
"324 441 LINE",
"106 493 LINE",
"49 317 LINE",
"133 303 LINE",
"242 440 LINE",
"305 416 LINE",
"305 373 OFFCURVE",
"135 186 OFFCURVE",
"-2 34 CURVE SMOOTH",
"-17 17 OFFCURVE",
"-37 0 OFFCURVE",
"-54 -13 CURVE",
"-45 -14 OFFCURVE",
"-20 -17 OFFCURVE",
"-11 -15 CURVE",
"23 25 LINE",
"230 -29 LINE",
"233 -31 LINE",
"425 86 LINE"
);
}
);
};
layerId = "0CB598B9-551B-4294-A08A-0B15FE236541";
name = "10 apr 22, 22:58";
paths = (
{
closed = 1;
nodes = (
"417 99 LINE",
"329 58 LINE",
"242 58 OFFCURVE",
"220 132 OFFCURVE",
"121 136 CURVE",
"170 182 LINE",
"323 233 OFFCURVE",
"455 317 OFFCURVE",
"491 451 CURVE",
"489 453 OFFCURVE",
"379 505 OFFCURVE",
"375 506 CURVE",
"327 449 LINE",
"109 501 LINE",
"52 325 LINE",
"145 311 LINE",
"254 448 LINE",
"308 424 LINE",
"308 381 OFFCURVE",
"135 186 OFFCURVE",
"-2 34 CURVE SMOOTH",
"-17 17 OFFCURVE",
"-37 0 OFFCURVE",
"-54 -13 CURVE",
"-45 -14 OFFCURVE",
"-20 -17 OFFCURVE",
"-11 -15 CURVE",
"23 25 LINE",
"230 -29 LINE",
"233 -31 LINE",
"425 86 LINE"
);
}
);
width = 474;
}
);
leftKerningGroup = z;
rightKerningGroup = z;
unicode = 007A;
}
{
glyphname = euro;
layers = (
{
components = (
{
name = C;
transform = "{1, 0, 0, 1, 56, 0}";
}
);
layerId = "4AEC2A2F-21E0-4005-B5C4-61417F12BD89";
paths = (
{
closed = 1;
nodes = (
"498 307 LINE",
"505 330 LINE",
"42 330 LINE",
"35 307 LINE"
);
},
{
closed = 1;
nodes = (
"519 377 LINE",
"525 400 LINE",
"62 400 LINE",
"56 377 LINE"
);
}
);
width = 624;
},
{
components = (
{
name = C;
transform = "{1, 0, 0, 1, 43, 0}";
}
);
layerId = "B4D6250A-EC24-4DD5-8C49-5E627D155568";
paths = (
{
closed = 1;
nodes = (
"523 383 LINE",
"532 413 LINE",
"59 413 LINE",
"50 383 LINE"
);
},
{
closed = 1;
nodes = (
"503 313 LINE",
"512 343 LINE",
"39 343 LINE",
"30 313 LINE"
);
}
);
width = 619;
}
);
leftKerningGroup = euro;
rightKerningGroup = euro;
rightMetricsKey = C;
unicode = 20AC;
}
{
color = 3;
glyphname = exclam;
layers = (
{
components = (
{
name = period;
transform = "{1, 0, 0, 1, 8, 0}";
}
);
layerId = "4AEC2A2F-21E0-4005-B5C4-61417F12BD89";
paths = (
{
closed = 1;
nodes = (
"128 200 LINE",
"178 376 OFFCURVE",
"252 497 OFFCURVE",
"310 700 CURVE",
"206 700 LINE",
"148 501 OFFCURVE",
"159 378 OFFCURVE",
"108 200 CURVE"
);
}
);
width = 268;
},
{
components = (
{
name = period;
transform = "{1, 0, 0, 1, 24, 0}";
}
);
layerId = "B4D6250A-EC24-4DD5-8C49-5E627D155568";
paths = (
{
closed = 1;
nodes = (
"147 200 LINE",
"197 376 OFFCURVE",
"293 497 OFFCURVE",
"351 700 CURVE",
"195 700 LINE",
"137 501 OFFCURVE",
"172 378 OFFCURVE",
"121 200 CURVE"
);
}
);
width = 288;
},
{
associatedMasterId = "4AEC2A2F-21E0-4005-B5C4-61417F12BD89";
layerId = "E0E134C8-C0F6-4B48-AA8D-EF84388A94AC";
name = "10 apr 22, 10:06";
paths = (
{
closed = 1;
nodes = (
"145 166 LINE",
"208 377 OFFCURVE",
"300 535 OFFCURVE",
"359 734 CURVE",
"363 745 OFFCURVE",
"332 753 OFFCURVE",
"312 753 CURVE SMOOTH",
"292 753 OFFCURVE",
"257 745 OFFCURVE",
"253 735 CURVE",
"194 535 OFFCURVE",
"179 377 OFFCURVE",
"116 166 CURVE"
);
},
{
closed = 1;
nodes = (
"106 -9 OFFCURVE",
"134 20 OFFCURVE",
"138 52 CURVE SMOOTH",
"141 76 OFFCURVE",
"131 94 OFFCURVE",
"109 94 CURVE SMOOTH",
"82 94 OFFCURVE",
"53 65 OFFCURVE",
"50 34 CURVE SMOOTH",
"47 9 OFFCURVE",
"60 -9 OFFCURVE",
"78 -9 CURVE SMOOTH"
);
}
);
width = 249;
}
);
leftKerningGroup = exclam;
rightKerningGroup = exclam;
unicode = 0021;
}
{
color = 3;
glyphname = numbersign;
layers = (
{
layerId = "4AEC2A2F-21E0-4005-B5C4-61417F12BD89";
paths = (
{
closed = 1;
nodes = (
"281 -88 LINE",
"693 628 LINE",
"663 628 LINE",
"251 -88 LINE"
);
},
{
closed = 1;
nodes = (
"586 126 LINE",
"590 150 LINE",
"2 150 LINE",
"-2 126 LINE"
);
},
{
closed = 1;
nodes = (
"27 -88 LINE",
"439 628 LINE",
"409 628 LINE",
"-3 -88 LINE"
);
},
{
closed = 1;
nodes = (
"688 386 LINE",
"692 410 LINE",
"96 410 LINE",
"92 386 LINE"
);
}
);
width = 678;
},
{
layerId = "B4D6250A-EC24-4DD5-8C49-5E627D155568";
paths = (
{
closed = 1;
nodes = (
"283 -88 LINE",
"695 628 LINE",
"657 628 LINE",
"245 -88 LINE"
);
},
{
closed = 1;
nodes = (
"580 124 LINE",
"584 152 LINE",
"-4 152 LINE",
"-8 124 LINE"
);
},
{
closed = 1;
nodes = (
"29 -88 LINE",
"441 628 LINE",
"403 628 LINE",
"-9 -88 LINE"
);
},
{
closed = 1;
nodes = (
"682 384 LINE",
"686 412 LINE",
"90 412 LINE",
"86 384 LINE"
);
}
);
width = 672;
}
);
leftKerningGroup = numbersign;
rightKerningGroup = numbersign;
unicode = 0023;
}
{
glyphname = dollar;
layers = (
{
components = (
{
name = S;
}
);
layerId = "4AEC2A2F-21E0-4005-B5C4-61417F12BD89";
paths = (
{
closed = 1;
nodes = (
"133 -106 LINE",
"406 788 LINE",
"383 788 LINE",
"110 -106 LINE"
);
}
);
width = 452;
},
{
components = (
{
name = S;
}
);
layerId = "B4D6250A-EC24-4DD5-8C49-5E627D155568";
paths = (
{
closed = 1;
nodes = (
"149 -106 LINE",
"405 788 LINE",
"370 788 LINE",
"114 -106 LINE"
);
}
);
width = 464;
}
);
leftKerningGroup = dollar;
leftMetricsKey = S;
rightKerningGroup = dollar;
rightMetricsKey = S;
unicode = 0024;
}
{
glyphname = percent;
layers = (
{
layerId = "4AEC2A2F-21E0-4005-B5C4-61417F12BD89";
paths = (
{
closed = 1;
nodes = (
"320 440 OFFCURVE",
"391 520 OFFCURVE",
"391 618 CURVE SMOOTH",
"391 671 OFFCURVE",
"360 712 OFFCURVE",
"301 714 CURVE",
"206 685 OFFCURVE",
"132 601 OFFCURVE",
"132 508 CURVE SMOOTH",
"132 454 OFFCURVE",
"165 409 OFFCURVE",
"221 409 CURVE"
);
},
{
closed = 1;
nodes = (
"211 426 OFFCURVE",
"194 465 OFFCURVE",
"194 520 CURVE SMOOTH",
"194 594 OFFCURVE",
"230 670 OFFCURVE",
"284 697 CURVE",
"310 697 OFFCURVE",
"327 659 OFFCURVE",
"327 607 CURVE SMOOTH",
"327 526 OFFCURVE",
"288 450 OFFCURVE",
"237 425 CURVE"
);
},
{
closed = 1;
nodes = (
"115 -8 LINE",
"605 708 LINE",
"548 708 LINE",
"58 -8 LINE"
);
},
{
closed = 1;
nodes = (
"478 23 OFFCURVE",
"549 103 OFFCURVE",
"549 201 CURVE SMOOTH",
"549 254 OFFCURVE",
"518 295 OFFCURVE",
"459 297 CURVE",
"364 268 OFFCURVE",
"290 184 OFFCURVE",
"290 91 CURVE SMOOTH",
"290 37 OFFCURVE",
"323 -8 OFFCURVE",
"379 -8 CURVE"
);
},
{
closed = 1;
nodes = (
"369 9 OFFCURVE",
"352 48 OFFCURVE",
"352 103 CURVE SMOOTH",
"352 177 OFFCURVE",
"388 253 OFFCURVE",
"442 280 CURVE",
"468 280 OFFCURVE",
"485 242 OFFCURVE",
"485 190 CURVE SMOOTH",
"485 109 OFFCURVE",
"446 33 OFFCURVE",
"395 8 CURVE"
);
}
);
width = 608;
},
{
layerId = "B4D6250A-EC24-4DD5-8C49-5E627D155568";
paths = (
{
closed = 1;
nodes = (
"536 6 OFFCURVE",
"617 95 OFFCURVE",
"617 189 CURVE SMOOTH",
"617 254 OFFCURVE",
"577 299 OFFCURVE",
"516 301 CURVE",
"411 281 OFFCURVE",
"332 193 OFFCURVE",
"332 98 CURVE SMOOTH",
"332 32 OFFCURVE",
"370 -11 OFFCURVE",
"432 -13 CURVE"
);
},
{
closed = 1;
nodes = (
"423 11 OFFCURVE",
"414 29 OFFCURVE",
"414 63 CURVE SMOOTH",
"414 143 OFFCURVE",
"461 260 OFFCURVE",
"503 284 CURVE",
"527 275 OFFCURVE",
"535 260 OFFCURVE",
"535 227 CURVE SMOOTH",
"535 146 OFFCURVE",
"488 28 OFFCURVE",
"445 4 CURVE"
);
},
{
closed = 1;
nodes = (
"171 -8 LINE",
"646 708 LINE",
"579 708 LINE",
"104 -8 LINE"
);
},
{
closed = 1;
nodes = (
"333 419 OFFCURVE",
"414 508 OFFCURVE",
"414 602 CURVE SMOOTH",
"414 667 OFFCURVE",
"374 712 OFFCURVE",
"313 714 CURVE",
"208 694 OFFCURVE",
"129 606 OFFCURVE",
"129 511 CURVE SMOOTH",
"129 445 OFFCURVE",
"167 402 OFFCURVE",
"229 400 CURVE"
);
},
{
closed = 1;
nodes = (
"220 424 OFFCURVE",
"211 442 OFFCURVE",
"211 476 CURVE SMOOTH",
"211 556 OFFCURVE",
"258 673 OFFCURVE",
"300 697 CURVE",
"324 688 OFFCURVE",
"332 673 OFFCURVE",
"332 640 CURVE SMOOTH",
"332 559 OFFCURVE",
"285 441 OFFCURVE",
"242 417 CURVE"
);
}
);
width = 682;
}
);
leftKerningGroup = fraction;
rightKerningGroup = fraction;
unicode = 0025;
}
{
glyphname = ampersand;
layers = (
{
hints = (
{
origin = "{0, 0}";
type = Corner;
name = _corner.rightSerif.cap;
options = 1;
}
);
layerId = "4AEC2A2F-21E0-4005-B5C4-61417F12BD89";
paths = (
{
closed = 1;
nodes = (
"510 12 LINE",
"391 202 OFFCURVE",
"324 437 OFFCURVE",
"318 567 CURVE SMOOTH",
"315 623 OFFCURVE",
"343 649 OFFCURVE",
"381 658 CURVE",
"494 606 LINE",
"523 610 LINE",
"557 670 LINE",
"542 691 OFFCURVE",
"486 714 OFFCURVE",
"449 714 CURVE",
"339 672 OFFCURVE",
"259 606 OFFCURVE",
"217 519 CURVE",
"217 366 OFFCURVE",
"287 177 OFFCURVE",
"384 2 CURVE",
"440 -16 LINE"
);
},
{
closed = 1;
nodes = (
"390 63 OFFCURVE",
"518 207 OFFCURVE",
"593 432 CURVE",
"571 468 OFFCURVE",
"540 496 OFFCURVE",
"508 508 CURVE",
"464 468 LINE",
"464 444 LINE",
"552 372 LINE",
"477 198 OFFCURVE",
"380 94 OFFCURVE",
"224 20 CURVE",
"154 26 OFFCURVE",
"101 93 OFFCURVE",
"101 176 CURVE SMOOTH",
"101 256 OFFCURVE",
"150 331 OFFCURVE",
"264 420 CURVE",
"262 424 LINE",
"117 369 OFFCURVE",
"10 250 OFFCURVE",
"10 144 CURVE SMOOTH",
"10 57 OFFCURVE",
"89 -12 OFFCURVE",
"190 -14 CURVE"
);
}
);
width = 627;
},
{
hints = (
{
origin = "{0, 0}";
type = Corner;
name = _corner.rightSerif.cap;
options = 1;
}
);
layerId = "B4D6250A-EC24-4DD5-8C49-5E627D155568";
paths = (
{
closed = 1;
nodes = (
"579 12 LINE",
"421 224 OFFCURVE",
"333 410 OFFCURVE",
"316 566 CURVE SMOOTH",
"311 612 OFFCURVE",
"335 643 OFFCURVE",
"388 656 CURVE",
"529 577 LINE",
"565 581 LINE",
"594 660 LINE",
"553 692 OFFCURVE",
"502 714 OFFCURVE",
"468 714 CURVE",
"369 694 OFFCURVE",
"246 605 OFFCURVE",
"195 514 CURVE",
"210 366 OFFCURVE",
"317 124 OFFCURVE",
"421 4 CURVE",
"530 -18 LINE"
);
},
{
closed = 1;
nodes = (
"448 90 OFFCURVE",
"595 282 OFFCURVE",
"609 440 CURVE",
"571 491 OFFCURVE",
"527 527 OFFCURVE",
"488 542 CURVE",
"447 482 LINE",
"455 442 LINE",
"564 362 LINE",
"529 230 OFFCURVE",
"370 78 OFFCURVE",
"289 44 CURVE",
"226 52 OFFCURVE",
"161 107 OFFCURVE",
"153 184 CURVE SMOOTH",
"141 299 OFFCURVE",
"181 354 OFFCURVE",
"265 406 CURVE",
"263 420 LINE",
"105 389 OFFCURVE",
"-3 281 OFFCURVE",
"10 160 CURVE SMOOTH",
"21 54 OFFCURVE",
"125 -14 OFFCURVE",
"241 -14 CURVE"
);
}
);
width = 706;
}
);
leftKerningGroup = ampersand;
rightKerningGroup = ampersand;
unicode = 0026;
}
{
color = 3;
glyphname = quotesingle;
layers = (
{
layerId = "4AEC2A2F-21E0-4005-B5C4-61417F12BD89";
paths = (
{
closed = 1;
nodes = (
"202 560 LINE",
"280 744 LINE",
"263 760 LINE",
"180 732 LINE",
"190 560 LINE"
);
}
);
width = 184;
},
{
layerId = "B4D6250A-EC24-4DD5-8C49-5E627D155568";
paths = (
{
closed = 1;
nodes = (
"204 524 LINE",
"296 742 LINE",
"272 764 LINE",
"172 736 LINE",
"188 524 LINE"
);
}
);
width = 200;
}
);
leftKerningGroup = quotesingle;
rightKerningGroup = quotesingle;
unicode = 0027;
}
{
color = 3;
glyphname = parenleft;
layers = (
{
layerId = "4AEC2A2F-21E0-4005-B5C4-61417F12BD89";
paths = (
{
closed = 1;
nodes = (
"190 -248 LINE",
"146 -160 OFFCURVE",
"120 -17 OFFCURVE",
"120 112 CURVE SMOOTH",
"120 366 OFFCURVE",
"230 613 OFFCURVE",
"402 744 CURVE",
"398 752 LINE",
"181 636 OFFCURVE",
"28 387 OFFCURVE",
"28 140 CURVE SMOOTH",
"28 -28 OFFCURVE",
"96 -188 OFFCURVE",
"184 -252 CURVE"
);
}
);
width = 298;
},
{
layerId = "B4D6250A-EC24-4DD5-8C49-5E627D155568";
paths = (
{
closed = 1;
nodes = (
"214 -246 LINE",
"174 -118 OFFCURVE",
"160 -20 OFFCURVE",
"160 76 CURVE SMOOTH",
"160 352 OFFCURVE",
"259 612 OFFCURVE",
"412 740 CURVE",
"404 754 LINE",
"174 637 OFFCURVE",
"12 378 OFFCURVE",
"12 128 CURVE SMOOTH",
"12 -29 OFFCURVE",
"92 -188 OFFCURVE",
"204 -254 CURVE"
);
}
);
width = 312;
},
{
associatedMasterId = "4AEC2A2F-21E0-4005-B5C4-61417F12BD89";
layerId = "4C764352-FC6F-4AF5-808D-F062FFB8815E";
name = "11 apr 22, 20:07";
paths = (
{
closed = 1;
nodes = (
"329 693 OFFCURVE",
"95 406 OFFCURVE",
"35 218 CURVE",
"-43 -35 OFFCURVE",
"103 -223 OFFCURVE",
"206 -250 CURVE",
"217 -233 LINE",
"132 -210 OFFCURVE",
"61 -55 OFFCURVE",
"145 218 CURVE",
"187 356 OFFCURVE",
"337 668 OFFCURVE",
"503 737 CURVE",
"494 750 LINE"
);
}
);
width = 330;
}
);
leftKerningGroup = parenleft;
rightKerningGroup = parenleft;
unicode = 0028;
}
{
color = 3;
glyphname = parenright;
layers = (
{
layerId = "4AEC2A2F-21E0-4005-B5C4-61417F12BD89";
paths = (
{
closed = 1;
nodes = (
"153 -136 OFFCURVE",
"306 117 OFFCURVE",
"306 364 CURVE SMOOTH",
"306 532 OFFCURVE",
"238 688 OFFCURVE",
"150 752 CURVE",
"145 748 LINE",
"189 660 OFFCURVE",
"214 517 OFFCURVE",
"214 388 CURVE SMOOTH",
"214 134 OFFCURVE",
"104 -113 OFFCURVE",
"-68 -244 CURVE",
"-64 -252 LINE"
);
}
);
width = 338;
},
{
layerId = "B4D6250A-EC24-4DD5-8C49-5E627D155568";
paths = (
{
closed = 1;
nodes = (
"197 -137 OFFCURVE",
"359 122 OFFCURVE",
"359 372 CURVE SMOOTH",
"359 529 OFFCURVE",
"279 688 OFFCURVE",
"167 754 CURVE",
"157 746 LINE",
"197 618 OFFCURVE",
"211 520 OFFCURVE",
"211 424 CURVE SMOOTH",
"211 148 OFFCURVE",
"112 -112 OFFCURVE",
"-41 -240 CURVE",
"-33 -254 LINE"
);
}
);
width = 380;
},
{
associatedMasterId = "4AEC2A2F-21E0-4005-B5C4-61417F12BD89";
layerId = "10005094-BD11-44E3-A159-E644CD2FECF9";
name = "11 apr 22, 20:20";
paths = (
{
closed = 1;
nodes = (
"182 740 LINE",
"306 701 OFFCURVE",
"290 516 OFFCURVE",
"248 378 CURVE",
"164 105 OFFCURVE",
"-75 -212 OFFCURVE",
"-174 -235 CURVE",
"-173 -250 LINE",
"-54 -223 OFFCURVE",
"280 125 OFFCURVE",
"358 378 CURVE",
"412 566 OFFCURVE",
"320 723 OFFCURVE",
"191 750 CURVE"
);
}
);
width = 354;
}
);
leftKerningGroup = parenright;
rightKerningGroup = parenright;
unicode = 0029;
}
{
color = 3;
export = 0;
glyphname = caroncomb;
layers = (
{
anchors = (
{
name = _top;
position = "{200, 470}";
}
);
layerId = "4AEC2A2F-21E0-4005-B5C4-61417F12BD89";
paths = (
{
closed = 1;
nodes = (
"212 548 LINE",
"357 739 LINE",
"351 746 LINE",
"222 644 LINE",
"218 644 LINE",
"125 746 LINE",
"117 742 LINE",
"200 548 LINE"
);
}
);
width = 400;
},
{
anchors = (
{
name = _top;
position = "{200, 490}";
}
);
layerId = "B4D6250A-EC24-4DD5-8C49-5E627D155568";
paths = (
{
closed = 1;
nodes = (
"212 548 LINE",
"365 739 LINE",
"359 746 LINE",
"220 660 LINE",
"212 660 LINE",
"105 746 LINE",
"97 742 LINE",
"192 548 LINE"
);
}
);
width = 400;
}
);
leftKerningGroup = caroncomb;
rightKerningGroup = caroncomb;
unicode = 030C;
}
{
color = 3;
export = 0;
glyphname = hungarumlautcomb;
layers = (
{
anchors = (
{
name = _top;
position = "{200, 470}";
}
);
layerId = "4AEC2A2F-21E0-4005-B5C4-61417F12BD89";
paths = (
{
closed = 1;
nodes = (
"420 732 LINE",
"412 744 LINE",
"340 736 LINE",
"236 554 LINE",
"243 548 LINE"
);
},
{
closed = 1;
nodes = (
"310 734 LINE",
"304 746 LINE",
"236 734 LINE",
"148 554 LINE",
"155 548 LINE"
);
}
);
width = 400;
},
{
anchors = (
{
name = _top;
position = "{200, 490}";
}
);
layerId = "B4D6250A-EC24-4DD5-8C49-5E627D155568";
paths = (
{
closed = 1;
nodes = (
"299 724 LINE",
"287 748 LINE",
"191 736 LINE",
"119 554 LINE",
"131 546 LINE"
);
},
{
closed = 1;
nodes = (
"449 718 LINE",
"437 744 LINE",
"343 740 LINE",
"237 556 LINE",
"247 546 LINE"
);
}
);
width = 400;
},
{
anchors = (
{
name = _top;
position = "{200, 470}";
}
);
associatedMasterId = "4AEC2A2F-21E0-4005-B5C4-61417F12BD89";
layerId = "4A638789-0B26-487B-9DA5-302C6C787A9B";
name = "9 apr 22, 14:34";
paths = (
{
closed = 1;
nodes = (
"394 728 LINE",
"394 729 LINE",
"393 729 OFFCURVE",
"381 732 OFFCURVE",
"382 732 CURVE",
"314 728 LINE",
"195 543 LINE",
"203 543 LINE"
);
},
{
closed = 1;
nodes = (
"534 728 LINE",
"534 729 LINE",
"533 729 OFFCURVE",
"521 732 OFFCURVE",
"522 732 CURVE",
"454 728 LINE",
"335 543 LINE",
"343 543 LINE"
);
}
);
width = 400;
}
);
leftKerningGroup = dieresiscomb;
rightKerningGroup = dieresiscomb;
unicode = 030B;
}
{
color = 3;
export = 0;
glyphname = ringcomb;
layers = (
{
anchors = (
{
name = _top;
position = "{200, 470}";
}
);
layerId = "4AEC2A2F-21E0-4005-B5C4-61417F12BD89";
paths = (
{
closed = 1;
nodes = (
"302 551 OFFCURVE",
"332 598 OFFCURVE",
"332 650 CURVE SMOOTH",
"332 702 OFFCURVE",
"294 736 OFFCURVE",
"226 736 CURVE",
"166 716 OFFCURVE",
"127 671 OFFCURVE",
"127 619 CURVE SMOOTH",
"127 567 OFFCURVE",
"166 531 OFFCURVE",
"234 531 CURVE"
);
},
{
closed = 1;
nodes = (
"180 551 OFFCURVE",
"151 582 OFFCURVE",
"151 629 CURVE SMOOTH",
"151 681 OFFCURVE",
"185 716 OFFCURVE",
"232 716 CURVE SMOOTH",
"278 716 OFFCURVE",
"308 686 OFFCURVE",
"308 638 CURVE SMOOTH",
"308 587 OFFCURVE",
"274 551 OFFCURVE",
"226 551 CURVE SMOOTH"
);
}
);
width = 400;
},
{
anchors = (
{
name = _top;
position = "{200, 490}";
}
);
layerId = "B4D6250A-EC24-4DD5-8C49-5E627D155568";
paths = (
{
closed = 1;
nodes = (
"288 552 OFFCURVE",
"318 598 OFFCURVE",
"318 650 CURVE SMOOTH",
"318 702 OFFCURVE",
"280 735 OFFCURVE",
"212 735 CURVE",
"152 715 OFFCURVE",
"113 671 OFFCURVE",
"113 619 CURVE SMOOTH",
"113 567 OFFCURVE",
"152 532 OFFCURVE",
"220 532 CURVE"
);
},
{
closed = 1;
nodes = (
"171 560 OFFCURVE",
"144 587 OFFCURVE",
"144 629 CURVE SMOOTH",
"144 677 OFFCURVE",
"175 708 OFFCURVE",
"218 708 CURVE SMOOTH",
"260 708 OFFCURVE",
"287 681 OFFCURVE",
"287 638 CURVE SMOOTH",
"287 591 OFFCURVE",
"256 560 OFFCURVE",
"212 560 CURVE SMOOTH"
);
}
);
width = 400;
}
);
leftKerningGroup = ringcomb;
rightKerningGroup = ringcomb;
unicode = 030A;
}
{
glyphname = zero;
layers = (
{
layerId = "4AEC2A2F-21E0-4005-B5C4-61417F12BD89";
paths = (
{
closed = 1;
nodes = (
"363 -14 OFFCURVE",
"515 163 OFFCURVE",
"515 332 CURVE SMOOTH",
"515 430 OFFCURVE",
"446 494 OFFCURVE",
"341 494 CURVE SMOOTH",
"160 494 OFFCURVE",
"11 305 OFFCURVE",
"11 155 CURVE SMOOTH",
"11 64 OFFCURVE",
"77 -14 OFFCURVE",
"176 -14 CURVE SMOOTH"
);
},
{
closed = 1;
nodes = (
"113 39 OFFCURVE",
"79 98 OFFCURVE",
"79 163 CURVE SMOOTH",
"79 293 OFFCURVE",
"201 442 OFFCURVE",
"336 442 CURVE SMOOTH",
"412 442 OFFCURVE",
"453 399 OFFCURVE",
"453 327 CURVE SMOOTH",
"453 195 OFFCURVE",
"327 39 OFFCURVE",
"201 39 CURVE SMOOTH"
);
}
);
width = 526;
},
{
layerId = "B4D6250A-EC24-4DD5-8C49-5E627D155568";
paths = (
{
closed = 1;
nodes = (
"326 -14 OFFCURVE",
"509 109 OFFCURVE",
"509 316 CURVE SMOOTH",
"509 394 OFFCURVE",
"462 494 OFFCURVE",
"322 494 CURVE SMOOTH",
"194 494 OFFCURVE",
"8 363 OFFCURVE",
"8 154 CURVE SMOOTH",
"8 83 OFFCURVE",
"58 -14 OFFCURVE",
"198 -14 CURVE SMOOTH"
);
},
{
closed = 1;
nodes = (
"131 69 OFFCURVE",
"96 138 OFFCURVE",
"96 194 CURVE SMOOTH",
"96 307 OFFCURVE",
"207 411 OFFCURVE",
"302 411 CURVE SMOOTH",
"389 411 OFFCURVE",
"421 339 OFFCURVE",
"421 286 CURVE SMOOTH",
"421 152 OFFCURVE",
"305 69 OFFCURVE",
"218 69 CURVE SMOOTH"
);
}
);
width = 507;
}
);
leftKerningGroup = zero;
leftMetricsKey = o;
rightKerningGroup = zero;
unicode = 0030;
}
{
glyphname = one;
layers = (
{
hints = (
{
origin = "{0, 0}";
type = Corner;
name = _corner.rightSerif.cap;
options = 1;
},
{
origin = "{0, 1}";
type = Corner;
name = _corner.leftSerif.cap;
},
{
origin = "{0, 2}";
type = Corner;
name = _corner.rightSerif.cap;
options = 1;
},
{
origin = "{0, 3}";
type = Corner;
name = _corner.leftSerif.cap;
}
);
layerId = "4AEC2A2F-21E0-4005-B5C4-61417F12BD89";
paths = (
{
closed = 1;
nodes = (
"158 0 LINE",
"306 470 LINE",
"208 470 LINE",
"60 0 LINE"
);
}
);
width = 376;
},
{
background = {
anchors = (
{
name = bottom;
position = "{288, 0}";
}
);
components = (
{
name = idotless;
transform = "{1, 0, 0, 1, 61, 0}";
},
{
name = dotaccentcomb;
transform = "{1, 0, 0, 1, 44, 0}";
}
);
};
hints = (
{
origin = "{0, 0}";
type = Corner;
name = _corner.rightSerif.cap;
options = 1;
},
{
origin = "{0, 1}";
type = Corner;
name = _corner.leftSerif.cap;
},
{
origin = "{0, 2}";
type = Corner;
name = _corner.rightSerif.cap;
options = 1;
},
{
origin = "{0, 3}";
type = Corner;
name = _corner.leftSerif.cap;
}
);
layerId = "B4D6250A-EC24-4DD5-8C49-5E627D155568";
paths = (
{
closed = 1;
nodes = (
"218 0 LINE",
"368 480 LINE",
"218 480 LINE",
"68 0 LINE"
);
}
);
width = 423;
}
);
leftKerningGroup = one;
rightKerningGroup = one;
unicode = 0031;
}
{
glyphname = two;
layers = (
{
background = {
paths = (
{
closed = 1;
nodes = (
"147 20 OFFCURVE",
"93 108 OFFCURVE",
"139 256 CURVE SMOOTH",
"168 352 OFFCURVE",
"223 443 OFFCURVE",
"279 443 CURVE SMOOTH",
"314 443 OFFCURVE",
"365 344 OFFCURVE",
"323 206 CURVE SMOOTH",
"303 140 OFFCURVE",
"236 20 OFFCURVE",
"189 20 CURVE SMOOTH"
);
},
{
closed = 1;
nodes = (
"471 391 OFFCURVE",
"422 479 OFFCURVE",
"325 482 CURVE",
"268 477 OFFCURVE",
"83 373 OFFCURVE",
"39 228 CURVE SMOOTH",
"-6 81 OFFCURVE",
"38 -13 OFFCURVE",
"145 -13 CURVE",
"154 -8 OFFCURVE",
"372 69 OFFCURVE",
"426 244 CURVE SMOOTH"
);
}
);
};
layerId = "4AEC2A2F-21E0-4005-B5C4-61417F12BD89";
paths = (
{
closed = 1;
nodes = (
"298 231 OFFCURVE",
"86 94 OFFCURVE",
"23 39 CURVE",
"10 12 LINE",
"150 98 OFFCURVE",
"415 257 OFFCURVE",
"415 376 CURVE SMOOTH",
"415 427 OFFCURVE",
"380 484 OFFCURVE",
"283 484 CURVE",
"245 472 OFFCURVE",
"130 412 OFFCURVE",
"64 362 CURVE",
"71 350 LINE",
"120 382 OFFCURVE",
"181 423 OFFCURVE",
"230 423 CURVE SMOOTH",
"276 423 OFFCURVE",
"298 394 OFFCURVE",
"298 349 CURVE SMOOTH"
);
},
{
closed = 1;
nodes = (
"-26 6 LINE",
"-27 0 LINE",
"320 0 LINE",
"422 117 LINE",
"413 124 LINE",
"368 79 LINE",
"71 50 LINE",
"23 39 LINE"
);
}
);
width = 474;
},
{
layerId = "B4D6250A-EC24-4DD5-8C49-5E627D155568";
paths = (
{
closed = 1;
nodes = (
"267 211 OFFCURVE",
"135 110 OFFCURVE",
"51 49 CURVE",
"40 30 LINE",
"204 115 OFFCURVE",
"439 242 OFFCURVE",
"443 387 CURVE SMOOTH",
"445 443 OFFCURVE",
"396 494 OFFCURVE",
"277 494 CURVE",
"187 480 OFFCURVE",
"110 434 OFFCURVE",
"55 390 CURVE",
"61 375 LINE",
"101 403 OFFCURVE",
"145 415 OFFCURVE",
"183 415 CURVE SMOOTH",
"241 415 OFFCURVE",
"267 382 OFFCURVE",
"267 339 CURVE SMOOTH"
);
},
{
closed = 1;
nodes = (
"-10 6 LINE",
"-11 0 LINE",
"355 0 LINE",
"487 151 LINE",
"476 160 LINE",
"441 123 LINE",
"139 73 LINE",
"51 49 LINE"
);
}
);
width = 467;
}
);
leftKerningGroup = two;
rightKerningGroup = two;
unicode = 0032;
}
{
glyphname = three;
layers = (
{
layerId = "4AEC2A2F-21E0-4005-B5C4-61417F12BD89";
paths = (
{
closed = 1;
nodes = (
"165 -182 OFFCURVE",
"385 -102 OFFCURVE",
"385 82 CURVE SMOOTH",
"385 169 OFFCURVE",
"313 234 OFFCURVE",
"184 221 CURVE",
"109 146 LINE",
"229 165 OFFCURVE",
"296 108 OFFCURVE",
"290 13 CURVE SMOOTH",
"285 -74 OFFCURVE",
"216 -161 OFFCURVE",
"135 -161 CURVE SMOOTH",
"67 -161 OFFCURVE",
"29 -104 OFFCURVE",
"37 -40 CURVE",
"26 -41 LINE",
"-50 -104 LINE",
"-60 -182 OFFCURVE",
"-17 -229 OFFCURVE",
"78 -229 CURVE"
);
},
{
closed = 1;
nodes = (
"471 469 LINE",
"184 470 LINE",
"60 345 LINE",
"74 339 LINE",
"135 396 LINE",
"353 395 LINE",
"84 145 LINE",
"99 134 LINE"
);
}
);
width = 463;
},
{
background = {
paths = (
{
closed = 1;
nodes = (
"228 495 LINE",
"505 495 LINE",
"114 142 LINE",
"82 144 LINE",
"346 385 LINE",
"127 385 LINE",
"76 348 LINE",
"51 350 LINE"
);
},
{
closed = 1;
nodes = (
"7 -7 LINE",
"18 -8 LINE",
"14 -26 OFFCURVE",
"6 -72 OFFCURVE",
"5 -86 CURVE SMOOTH",
"-1 -148 OFFCURVE",
"9 -185 OFFCURVE",
"55 -185 CURVE",
"168 -175 OFFCURVE",
"287 48 OFFCURVE",
"287 157 CURVE SMOOTH",
"287 190 OFFCURVE",
"272 212 OFFCURVE",
"256 212 CURVE SMOOTH",
"238 212 OFFCURVE",
"158 177 OFFCURVE",
"130 156 CURVE",
"130 179 LINE",
"311 265 LINE",
"424 265 OFFCURVE",
"453 208 OFFCURVE",
"453 165 CURVE SMOOTH",
"453 25 OFFCURVE",
"185 -214 OFFCURVE",
"10 -214 CURVE SMOOTH",
"-48 -214 OFFCURVE",
"-124 -202 OFFCURVE",
"-118 -134 CURVE SMOOTH",
"-117 -122 OFFCURVE",
"-113 -109 OFFCURVE",
"-109 -95 CURVE"
);
}
);
};
layerId = "B4D6250A-EC24-4DD5-8C49-5E627D155568";
paths = (
{
closed = 1;
nodes = (
"174 -197 OFFCURVE",
"416 -98 OFFCURVE",
"416 97 CURVE SMOOTH",
"416 158 OFFCURVE",
"366 224 OFFCURVE",
"209 224 CURVE",
"96 123 LINE",
"205 132 OFFCURVE",
"263 83 OFFCURVE",
"263 8 CURVE SMOOTH",
"263 -88 OFFCURVE",
"210 -164 OFFCURVE",
"149 -164 CURVE SMOOTH",
"87 -164 OFFCURVE",
"46 -102 OFFCURVE",
"64 -18 CURVE",
"45 -14 LINE",
"-69 -84 LINE",
"-74 -158 OFFCURVE",
"-34 -234 OFFCURVE",
"71 -234 CURVE"
);
},
{
closed = 1;
nodes = (
"496 480 LINE",
"187 480 LINE",
"31 322 LINE",
"49 307 LINE",
"107 365 LINE",
"324 364 LINE",
"71 127 LINE",
"90 111 LINE"
);
}
);
width = 509;
}
);
leftKerningGroup = three;
rightKerningGroup = three;
unicode = 0033;
}
{
glyphname = four;
layers = (
{
layerId = "4AEC2A2F-21E0-4005-B5C4-61417F12BD89";
paths = (
{
closed = 1;
nodes = (
"204 -5 LINE",
"129 -244 LINE",
"231 -212 LINE",
"242 -199 LINE",
"304 -3 LINE",
"424 -1 LINE",
"430 18 LINE",
"310 16 LINE",
"350 144 LINE",
"340 150 LINE",
"253 134 LINE",
"211 14 LINE",
"39 11 LINE",
"488 484 LINE",
"477 487 LINE",
"359 487 LINE",
"271 363 OFFCURVE",
"91 147 OFFCURVE",
"-71 -10 CURVE"
);
}
);
width = 488;
},
{
layerId = "B4D6250A-EC24-4DD5-8C49-5E627D155568";
paths = (
{
closed = 1;
nodes = (
"274 -5 LINE",
"196 -254 LINE",
"329 -221 LINE",
"338 -214 LINE",
"405 -3 LINE",
"504 -1 LINE",
"512 24 LINE",
"412 22 LINE",
"454 154 LINE",
"435 170 LINE",
"322 147 LINE",
"282 20 LINE",
"122 17 LINE",
"552 479 LINE",
"550 490 LINE",
"391 490 LINE",
"294 356 OFFCURVE",
"122 167 OFFCURVE",
"-41 -10 CURVE"
);
}
);
width = 599;
}
);
leftKerningGroup = four;
rightKerningGroup = four;
unicode = 0034;
}
{
glyphname = five;
layers = (
{
layerId = "4AEC2A2F-21E0-4005-B5C4-61417F12BD89";
paths = (
{
closed = 1;
nodes = (
"147 -191 OFFCURVE",
"348 -107 OFFCURVE",
"348 69 CURVE SMOOTH",
"348 175 OFFCURVE",
"253 229 OFFCURVE",
"122 219 CURVE",
"31 146 LINE",
"166 165 OFFCURVE",
"257 114 OFFCURVE",
"257 6 CURVE SMOOTH",
"257 -70 OFFCURVE",
"212 -170 OFFCURVE",
"112 -170 CURVE SMOOTH",
"50 -170 OFFCURVE",
"7 -115 OFFCURVE",
"7 -47 CURVE",
"-3 -48 LINE",
"-77 -111 LINE",
"-83 -186 OFFCURVE",
"-27 -246 OFFCURVE",
"59 -239 CURVE"
);
},
{
closed = 1;
nodes = (
"47 148 LINE",
"52 160 LINE",
"157 391 LINE",
"364 389 LINE",
"441 466 LINE",
"440 470 LINE",
"154 470 LINE",
"26 145 LINE"
);
}
);
width = 440;
},
{
layerId = "B4D6250A-EC24-4DD5-8C49-5E627D155568";
paths = (
{
closed = 1;
nodes = (
"201 -194 OFFCURVE",
"432 -116 OFFCURVE",
"432 77 CURVE SMOOTH",
"432 166 OFFCURVE",
"363 254 OFFCURVE",
"168 254 CURVE",
"56 141 LINE",
"180 152 OFFCURVE",
"287 91 OFFCURVE",
"287 -6 CURVE SMOOTH",
"287 -105 OFFCURVE",
"229 -164 OFFCURVE",
"174 -164 CURVE SMOOTH",
"112 -164 OFFCURVE",
"69 -102 OFFCURVE",
"83 -18 CURVE",
"64 -14 LINE",
"-46 -84 LINE",
"-49 -158 OFFCURVE",
"-6 -234 OFFCURVE",
"99 -234 CURVE"
);
},
{
closed = 1;
nodes = (
"60 141 LINE",
"86 164 LINE",
"159 365 LINE",
"424 363 LINE",
"509 476 LINE",
"507 480 LINE",
"162 480 LINE",
"47 141 LINE"
);
}
);
width = 542;
}
);
leftKerningGroup = five;
rightKerningGroup = five;
unicode = 0035;
}
{
glyphname = six;
layers = (
{
layerId = "4AEC2A2F-21E0-4005-B5C4-61417F12BD89";
paths = (
{
closed = 1;
nodes = (
"282 4 OFFCURVE",
"507 135 OFFCURVE",
"507 330 CURVE SMOOTH",
"507 411 OFFCURVE",
"464 462 OFFCURVE",
"391 452 CURVE",
"378 446 OFFCURVE",
"243 369 OFFCURVE",
"189 313 CURVE",
"197 305 LINE",
"266 373 OFFCURVE",
"306 380 OFFCURVE",
"321 380 CURVE SMOOTH",
"378 380 OFFCURVE",
"402 327 OFFCURVE",
"401 255 CURVE SMOOTH",
"399 159 OFFCURVE",
"331 29 OFFCURVE",
"243 29 CURVE SMOOTH",
"182 29 OFFCURVE",
"144 108 OFFCURVE",
"147 195 CURVE SMOOTH",
"155 424 OFFCURVE",
"451 701 OFFCURVE",
"617 751 CURVE",
"614 764 LINE",
"339 662 OFFCURVE",
"34 396 OFFCURVE",
"34 175 CURVE SMOOTH",
"34 82 OFFCURVE",
"75 -2 OFFCURVE",
"182 -19 CURVE"
);
}
);
width = 540;
},
{
layerId = "B4D6250A-EC24-4DD5-8C49-5E627D155568";
paths = (
{
closed = 1;
nodes = (
"312 -7 OFFCURVE",
"565 116 OFFCURVE",
"565 331 CURVE SMOOTH",
"565 390 OFFCURVE",
"513 471 OFFCURVE",
"395 446 CURVE",
"383 439 OFFCURVE",
"257 364 OFFCURVE",
"209 295 CURVE",
"224 290 LINE",
"250 322 OFFCURVE",
"286 338 OFFCURVE",
"320 338 CURVE SMOOTH",
"368 338 OFFCURVE",
"411 306 OFFCURVE",
"411 243 CURVE SMOOTH",
"411 108 OFFCURVE",
"352 22 OFFCURVE",
"297 23 CURVE SMOOTH",
"182 25 OFFCURVE",
"186 142 OFFCURVE",
"186 193 CURVE SMOOTH",
"186 408 OFFCURVE",
"455 702 OFFCURVE",
"609 747 CURVE",
"601 767 LINE",
"381 668 OFFCURVE",
"32 407 OFFCURVE",
"32 142 CURVE SMOOTH",
"32 78 OFFCURVE",
"52 -64 OFFCURVE",
"266 -21 CURVE"
);
}
);
width = 584;
}
);
leftKerningGroup = six;
rightKerningGroup = six;
unicode = 0036;
}
{
glyphname = seven;
layers = (
{
layerId = "4AEC2A2F-21E0-4005-B5C4-61417F12BD89";
paths = (
{
closed = 1;
nodes = (
"67 -250 LINE",
"514 470 LINE",
"175 470 LINE",
"34 312 LINE",
"50 302 LINE",
"126 386 LINE",
"438 385 LINE",
"-53 -250 LINE"
);
}
);
width = 474;
},
{
layerId = "B4D6250A-EC24-4DD5-8C49-5E627D155568";
paths = (
{
closed = 1;
nodes = (
"522 480 LINE",
"161 480 LINE",
"13 293 LINE",
"32 281 LINE",
"101 364 LINE",
"416 363 LINE",
"-12 -236 LINE",
"146 -238 LINE"
);
}
);
width = 490;
}
);
leftKerningGroup = seven;
rightKerningGroup = seven;
unicode = 0037;
}
{
glyphname = eight;
layers = (
{
layerId = "4AEC2A2F-21E0-4005-B5C4-61417F12BD89";
paths = (
{
closed = 1;
nodes = (
"296 21 OFFCURVE",
"455 77 OFFCURVE",
"455 214 CURVE SMOOTH",
"455 287 OFFCURVE",
"396 332 OFFCURVE",
"341 380 CURVE",
"410 403 OFFCURVE",
"549 486 OFFCURVE",
"549 594 CURVE SMOOTH",
"549 655 OFFCURVE",
"491 712 OFFCURVE",
"399 712 CURVE",
"310 697 OFFCURVE",
"148 634 OFFCURVE",
"149 489 CURVE SMOOTH",
"149 434 OFFCURVE",
"183 393 OFFCURVE",
"223 355 CURVE",
"155 321 OFFCURVE",
"-1 233 OFFCURVE",
"-1 116 CURVE SMOOTH",
"-1 42 OFFCURVE",
"73 -13 OFFCURVE",
"184 -13 CURVE"
);
},
{
closed = 1;
nodes = (
"96 222 OFFCURVE",
"168 298 OFFCURVE",
"236 343 CURVE",
"291 292 OFFCURVE",
"353 246 OFFCURVE",
"353 178 CURVE SMOOTH",
"353 95 OFFCURVE",
"260 13 OFFCURVE",
"197 13 CURVE SMOOTH",
"121 13 OFFCURVE",
"96 65 OFFCURVE",
"96 125 CURVE SMOOTH"
);
},
{
closed = 1;
nodes = (
"247 624 OFFCURVE",
"328 689 OFFCURVE",
"392 689 CURVE SMOOTH",
"442 689 OFFCURVE",
"460 649 OFFCURVE",
"460 607 CURVE SMOOTH",
"460 507 OFFCURVE",
"385 426 OFFCURVE",
"328 391 CURVE",
"285 429 OFFCURVE",
"247 471 OFFCURVE",
"247 531 CURVE SMOOTH"
);
}
);
width = 508;
},
{
layerId = "B4D6250A-EC24-4DD5-8C49-5E627D155568";
paths = (
{
closed = 1;
nodes = (
"300 -11 OFFCURVE",
"504 57 OFFCURVE",
"504 232 CURVE SMOOTH",
"504 300 OFFCURVE",
"450 342 OFFCURVE",
"389 394 CURVE",
"437 394 OFFCURVE",
"599 475 OFFCURVE",
"599 609 CURVE SMOOTH",
"599 671 OFFCURVE",
"535 712 OFFCURVE",
"442 712 CURVE",
"406 706 OFFCURVE",
"152 662 OFFCURVE",
"152 470 CURVE SMOOTH",
"152 421 OFFCURVE",
"183 374 OFFCURVE",
"221 329 CURVE",
"157 306 OFFCURVE",
"11 234 OFFCURVE",
"11 97 CURVE SMOOTH",
"11 23 OFFCURVE",
"111 -20 OFFCURVE",
"229 -20 CURVE"
);
},
{
closed = 1;
nodes = (
"142 179 OFFCURVE",
"188 275 OFFCURVE",
"232 316 CURVE",
"288 250 OFFCURVE",
"354 186 OFFCURVE",
"354 119 CURVE SMOOTH",
"354 52 OFFCURVE",
"280 3 OFFCURVE",
"225 3 CURVE SMOOTH",
"155 3 OFFCURVE",
"142 72 OFFCURVE",
"142 103 CURVE SMOOTH"
);
},
{
closed = 1;
nodes = (
"297 634 OFFCURVE",
"367 685 OFFCURVE",
"423 685 CURVE SMOOTH",
"480 685 OFFCURVE",
"487 639 OFFCURVE",
"487 617 CURVE SMOOTH",
"487 512 OFFCURVE",
"423 438 OFFCURVE",
"379 403 CURVE",
"350 425 OFFCURVE",
"297 476 OFFCURVE",
"297 537 CURVE SMOOTH"
);
}
);
width = 555;
}
);
leftKerningGroup = eight;
rightKerningGroup = eight;
unicode = 0038;
}
{
glyphname = nine;
layers = (
{
layerId = "4AEC2A2F-21E0-4005-B5C4-61417F12BD89";
paths = (
{
closed = 1;
nodes = (
"148 -216 OFFCURVE",
"470 27 OFFCURVE",
"470 302 CURVE SMOOTH",
"470 401 OFFCURVE",
"432 473 OFFCURVE",
"336 481 CURVE",
"270 466 OFFCURVE",
"31 367 OFFCURVE",
"18 159 CURVE SMOOTH",
"14 95 OFFCURVE",
"50 -3 OFFCURVE",
"148 10 CURVE",
"160 16 OFFCURVE",
"282 93 OFFCURVE",
"335 149 CURVE",
"327 157 LINE",
"259 89 OFFCURVE",
"219 82 OFFCURVE",
"193 82 CURVE SMOOTH",
"138 82 OFFCURVE",
"122 145 OFFCURVE",
"122 197 CURVE SMOOTH",
"122 303 OFFCURVE",
"191 433 OFFCURVE",
"279 433 CURVE SMOOTH",
"347 433 OFFCURVE",
"372 364 OFFCURVE",
"370 277 CURVE SMOOTH",
"364 28 OFFCURVE",
"80 -249 OFFCURVE",
"-85 -289 CURVE",
"-82 -302 LINE"
);
}
);
width = 502;
},
{
layerId = "B4D6250A-EC24-4DD5-8C49-5E627D155568";
paths = (
{
closed = 1;
nodes = (
"205 -194 OFFCURVE",
"554 70 OFFCURVE",
"554 335 CURVE SMOOTH",
"554 399 OFFCURVE",
"534 541 OFFCURVE",
"320 498 CURVE",
"274 484 OFFCURVE",
"21 361 OFFCURVE",
"21 146 CURVE SMOOTH",
"21 87 OFFCURVE",
"73 6 OFFCURVE",
"191 31 CURVE",
"203 38 OFFCURVE",
"329 113 OFFCURVE",
"377 182 CURVE",
"362 187 LINE",
"336 155 OFFCURVE",
"299 139 OFFCURVE",
"265 139 CURVE SMOOTH",
"218 139 OFFCURVE",
"175 171 OFFCURVE",
"175 234 CURVE SMOOTH",
"175 369 OFFCURVE",
"234 455 OFFCURVE",
"289 454 CURVE SMOOTH",
"404 452 OFFCURVE",
"401 335 OFFCURVE",
"401 284 CURVE SMOOTH",
"401 70 OFFCURVE",
"146 -204 OFFCURVE",
"-21 -270 CURVE",
"-15 -290 LINE"
);
}
);
width = 585;
}
);
leftKerningGroup = nine;
rightKerningGroup = nine;
unicode = 0039;
}
{
glyphname = at;
layers = (
{
layerId = "4AEC2A2F-21E0-4005-B5C4-61417F12BD89";
paths = (
{
closed = 1;
nodes = (
"456 -136 OFFCURVE",
"548 -69 OFFCURVE",
"605 -8 CURVE",
"598 -3 LINE",
"528 -61 OFFCURVE",
"451 -109 OFFCURVE",
"353 -144 CURVE",
"172 -144 OFFCURVE",
"98 -9 OFFCURVE",
"98 155 CURVE SMOOTH",
"98 393 OFFCURVE",
"331 621 OFFCURVE",
"530 653 CURVE",
"633 633 OFFCURVE",
"723 541 OFFCURVE",
"723 383 CURVE SMOOTH",
"723 247 OFFCURVE",
"658 120 OFFCURVE",
"502 24 CURVE",
"623 448 LINE",
"585 467 OFFCURVE",
"521 484 OFFCURVE",
"487 484 CURVE",
"328 432 OFFCURVE",
"199 273 OFFCURVE",
"199 128 CURVE SMOOTH",
"199 55 OFFCURVE",
"231 1 OFFCURVE",
"283 -14 CURVE",
"344 30 OFFCURVE",
"395 117 OFFCURVE",
"519 395 CURVE",
"523 395 LINE",
"411 12 LINE",
"473 -18 LINE",
"693 117 OFFCURVE",
"811 271 OFFCURVE",
"811 424 CURVE SMOOTH",
"811 573 OFFCURVE",
"724 694 OFFCURVE",
"557 694 CURVE",
"244 595 OFFCURVE",
"15 361 OFFCURVE",
"15 109 CURVE SMOOTH",
"15 -72 OFFCURVE",
"118 -209 OFFCURVE",
"316 -209 CURVE"
);
},
{
closed = 1;
nodes = (
"300 71 OFFCURVE",
"289 107 OFFCURVE",
"289 180 CURVE SMOOTH",
"289 304 OFFCURVE",
"344 404 OFFCURVE",
"432 441 CURVE",
"462 441 OFFCURVE",
"480 436 OFFCURVE",
"514 416 CURVE",
"442 238 OFFCURVE",
"365 97 OFFCURVE",
"324 64 CURVE"
);
}
);
width = 805;
},
{
layerId = "B4D6250A-EC24-4DD5-8C49-5E627D155568";
paths = (
{
closed = 1;
nodes = (
"487 -190 OFFCURVE",
"602 -101 OFFCURVE",
"685 -12 CURVE",
"674 -3 LINE",
"581 -80 OFFCURVE",
"500 -147 OFFCURVE",
"446 -170 CURVE",
"235 -170 OFFCURVE",
"124 -27 OFFCURVE",
"124 135 CURVE SMOOTH",
"124 418 OFFCURVE",
"362 613 OFFCURVE",
"566 633 CURVE",
"677 615 OFFCURVE",
"788 534 OFFCURVE",
"788 380 CURVE SMOOTH",
"788 260 OFFCURVE",
"718 138 OFFCURVE",
"581 39 CURVE",
"695 448 LINE",
"647 476 OFFCURVE",
"581 496 OFFCURVE",
"521 504 CURVE",
"353 452 OFFCURVE",
"201 304 OFFCURVE",
"201 140 CURVE SMOOTH",
"201 54 OFFCURVE",
"238 -6 OFFCURVE",
"312 -14 CURVE",
"399 49 OFFCURVE",
"459 208 OFFCURVE",
"539 416 CURVE",
"547 414 LINE",
"436 24 LINE",
"539 -18 LINE",
"809 155 OFFCURVE",
"907 289 OFFCURVE",
"907 434 CURVE SMOOTH",
"907 599 OFFCURVE",
"752 714 OFFCURVE",
"593 714 CURVE",
"253 582 OFFCURVE",
"1 367 OFFCURVE",
"1 89 CURVE SMOOTH",
"1 -134 OFFCURVE",
"156 -264 OFFCURVE",
"362 -264 CURVE"
);
},
{
closed = 1;
nodes = (
"348 108 OFFCURVE",
"344 143 OFFCURVE",
"344 184 CURVE SMOOTH",
"344 317 OFFCURVE",
"391 424 OFFCURVE",
"471 464 CURVE",
"493 460 OFFCURVE",
"511 450 OFFCURVE",
"527 436 CURVE",
"487 328 OFFCURVE",
"435 180 OFFCURVE",
"371 96 CURVE"
);
}
);
width = 895;
}
);
leftKerningGroup = at;
leftMetricsKey = O;
rightKerningGroup = at;
rightMetricsKey = O;
unicode = 0040;
}
{
color = 3;
glyphname = A;
layers = (
{
anchors = (
{
name = ogonek;
position = "{470, 0}";
},
{
name = top;
position = "{556, 700}";
}
);
hints = (
{
origin = "{0, 0}";
scale = "{1.48, 1}";
type = Corner;
name = _corner.rightSerif.cap;
options = 1;
},
{
origin = "{0, 3}";
scale = "{1.24, 1}";
type = Corner;
name = _corner.rightSerif.cap;
options = 1;
},
{
origin = "{0, 4}";
scale = "{0.88, 1}";
type = Corner;
name = _corner.leftSerif.cap;
},
{
origin = "{0, 5}";
scale = "{1.24, 1}";
type = Corner;
name = _corner.rightSerif.cap;
options = 1;
}
);
layerId = "4AEC2A2F-21E0-4005-B5C4-61417F12BD89";
paths = (
{
closed = 1;
nodes = (
"470 0 LINE",
"647 688 LINE",
"631 700 LINE",
"556 700 LINE",
"-28 0 LINE",
"2 0 LINE",
"533 638 LINE",
"537 638 LINE",
"377 16 LINE",
"448 -16 LINE"
);
},
{
closed = 1;
nodes = (
"455 244 LINE",
"459 262 LINE",
"191 262 LINE",
"91 352 LINE",
"67 348 LINE",
"31 296 LINE",
"79 260 OFFCURVE",
"131 244 OFFCURVE",
"179 244 CURVE SMOOTH"
);
}
);
width = 625;
},
{
anchors = (
{
name = ogonek;
position = "{520, 0}";
},
{
name = top;
position = "{552, 700}";
}
);
hints = (
{
origin = "{0, 0}";
scale = "{1.48, 1}";
type = Corner;
name = _corner.rightSerif.cap;
options = 1;
},
{
origin = "{0, 4}";
scale = "{0.88, 1}";
type = Corner;
name = _corner.leftSerif.cap;
},
{
origin = "{0, 5}";
scale = "{1.24, 1}";
type = Corner;
name = _corner.rightSerif.cap;
options = 1;
},
{
origin = "{0, 3}";
scale = "{1.24, 1}";
type = Corner;
name = _corner.rightSerif.cap;
options = 1;
}
);
layerId = "B4D6250A-EC24-4DD5-8C49-5E627D155568";
paths = (
{
closed = 1;
nodes = (
"520 0 LINE",
"680 672 LINE",
"656 700 LINE",
"530 700 LINE",
"-29 0 LINE",
"3 0 LINE",
"518 646 LINE",
"526 644 LINE",
"375 16 LINE",
"496 -18 LINE"
);
},
{
closed = 1;
nodes = (
"448 236 LINE",
"452 262 LINE",
"180 262 LINE",
"102 376 LINE",
"62 372 LINE",
"10 288 LINE",
"58 254 OFFCURVE",
"116 240 OFFCURVE",
"160 236 CURVE"
);
}
);
width = 673;
},
{
anchors = (
{
name = bottom;
position = "{227, 0}";
},
{
name = ogonek;
position = "{397, 8}";
},
{
name = top;
position = "{608, 700}";
}
);
associatedMasterId = "4AEC2A2F-21E0-4005-B5C4-61417F12BD89";
layerId = "61F729AD-9350-46AD-BB27-BCB19F2B1810";
name = "2 apr 22, 18:01";
paths = (
{
closed = 1;
nodes = (
"14 18 LINE",
"193 234 LINE",
"413 229 LINE",
"345 31 LINE",
"360 8 OFFCURVE",
"377 -3 OFFCURVE",
"405 -12 CURVE",
"448 13 LINE",
"659 689 LINE",
"649 700 LINE",
"564 700 LINE",
"177 260 LINE",
"139 273 OFFCURVE",
"117 297 OFFCURVE",
"117 300 CURVE",
"110 303 LINE",
"31 264 LINE",
"31 262 OFFCURVE",
"54 235 OFFCURVE",
"153 235 CURVE SMOOTH",
"155 235 LINE",
"93 163 OFFCURVE",
"33 91 OFFCURVE",
"-20 17 CURVE"
);
},
{
closed = 1;
nodes = (
"557 650 LINE",
"417 245 LINE",
"222 251 OFFCURVE",
"215 252 OFFCURVE",
"208 252 CURVE"
);
}
);
width = 611;
},
{
anchors = (
{
name = bottom;
position = "{267, 0}";
},
{
name = ogonek;
position = "{422, 4}";
},
{
name = top;
position = "{610, 700}";
}
);
associatedMasterId = "B4D6250A-EC24-4DD5-8C49-5E627D155568";
background = {
paths = (
{
closed = 1;
nodes = (
"159 0 LINE",
"159 6 LINE",
"83 18 LINE",
"262 234 LINE",
"489 229 LINE",
"434 31 LINE",
"449 8 OFFCURVE",
"453 -3 OFFCURVE",
"481 -19 CURVE",
"519 -3 LINE",
"622 38 LINE",
"618 46 LINE",
"531 21 LINE",
"705 689 LINE",
"695 702 LINE",
"582 721 LINE",
"580 718 LINE",
"596 712 OFFCURVE",
"605 702 OFFCURVE",
"610 693 CURVE",
"505 547 OFFCURVE",
"371 404 OFFCURVE",
"246 260 CURVE",
"208 273 OFFCURVE",
"186 297 OFFCURVE",
"186 300 CURVE",
"179 303 LINE",
"100 264 LINE",
"100 262 OFFCURVE",
"123 235 OFFCURVE",
"222 235 CURVE SMOOTH",
"224 235 LINE",
"162 163 OFFCURVE",
"102 91 OFFCURVE",
"49 17 CURVE",
"-25 6 LINE",
"-25 0 LINE"
);
},
{
closed = 1;
nodes = (
"606 650 LINE",
"493 245 LINE",
"298 251 LINE SMOOTH",
"291 251 OFFCURVE",
"284 252 OFFCURVE",
"277 252 CURVE"
);
}
);
};
layerId = "063E06B9-EC2C-4D09-BE28-9DAD1B689561";
name = "12 apr 22, 20:26";
paths = (
{
closed = 1;
nodes = (
"19 18 LINE",
"192 230 LINE",
"392 225 LINE",
"325 31 LINE",
"340 8 OFFCURVE",
"364 -14 OFFCURVE",
"392 -30 CURVE",
"499 16 LINE",
"709 689 LINE",
"699 700 LINE",
"609 700 LINE",
"564 700 LINE",
"188 272 LINE",
"150 285 OFFCURVE",
"127 317 OFFCURVE",
"127 320 CURVE",
"120 323 LINE",
"1 264 LINE",
"1 262 OFFCURVE",
"53 232 OFFCURVE",
"152 232 CURVE SMOOTH",
"154 232 LINE",
"92 160 OFFCURVE",
"33 91 OFFCURVE",
"-20 17 CURVE"
);
},
{
closed = 1;
nodes = (
"563 650 LINE",
"537 650 LINE",
"397 255 LINE",
"226 261 OFFCURVE",
"215 262 OFFCURVE",
"208 262 CURVE"
);
}
);
width = 650;
}
);
leftKerningGroup = A;
rightKerningGroup = A;
unicode = 0041;
}
{
color = 3;
glyphname = B;
layers = (
{
hints = (
{
origin = "{0, 14}";
type = Corner;
name = _corner.rightSerif.cap;
options = 1;
},
{
origin = "{0, 15}";
type = Corner;
name = _corner.leftSerif.cap;
}
);
layerId = "4AEC2A2F-21E0-4005-B5C4-61417F12BD89";
paths = (
{
closed = 1;
nodes = (
"304 0 LINE",
"456 36 OFFCURVE",
"560 108 OFFCURVE",
"560 220 CURVE SMOOTH",
"560 312 OFFCURVE",
"488 372 OFFCURVE",
"376 372 CURVE",
"376 376 LINE",
"516 404 OFFCURVE",
"588 480 OFFCURVE",
"588 564 CURVE SMOOTH",
"588 644 OFFCURVE",
"527 700 OFFCURVE",
"440 700 CURVE SMOOTH",
"238 700 LINE",
"38 0 LINE"
);
},
{
closed = 1;
nodes = (
"336 700 LINE",
"308 672 LINE",
"328 678 OFFCURVE",
"356 684 OFFCURVE",
"380 684 CURVE SMOOTH",
"446 684 OFFCURVE",
"488 634 OFFCURVE",
"488 556 CURVE SMOOTH",
"488 472 OFFCURVE",
"430 401 OFFCURVE",
"340 376 CURVE",
"304 376 OFFCURVE",
"258 380 OFFCURVE",
"226 386 CURVE",
"218 356 LINE",
"258 359 OFFCURVE",
"290 360 OFFCURVE",
"336 360 CURVE SMOOTH",
"412 360 OFFCURVE",
"456 301 OFFCURVE",
"456 208 CURVE SMOOTH",
"456 112 OFFCURVE",
"408 44 OFFCURVE",
"324 20 CURVE",
"256 20 OFFCURVE",
"182 36 OFFCURVE",
"133 60 CURVE",
"136 0 LINE"
);
}
);
width = 596;
},
{
hints = (
{
origin = "{0, 14}";
type = Corner;
name = _corner.rightSerif.cap;
options = 1;
},
{
origin = "{0, 15}";
type = Corner;
name = _corner.leftSerif.cap;
}
);
layerId = "B4D6250A-EC24-4DD5-8C49-5E627D155568";
paths = (
{
closed = 1;
nodes = (
"348 0 LINE",
"512 24 OFFCURVE",
"620 100 OFFCURVE",
"620 212 CURVE SMOOTH",
"620 305 OFFCURVE",
"540 368 OFFCURVE",
"415 368 CURVE",
"415 376 LINE",
"563 388 OFFCURVE",
"650 468 OFFCURVE",
"650 564 CURVE SMOOTH",
"650 644 OFFCURVE",
"588 700 OFFCURVE",
"500 700 CURVE SMOOTH",
"240 700 LINE",
"40 0 LINE"
);
},
{
closed = 1;
nodes = (
"390 700 LINE",
"361 668 LINE",
"375 672 OFFCURVE",
"388 674 OFFCURVE",
"400 674 CURVE SMOOTH",
"456 674 OFFCURVE",
"494 626 OFFCURVE",
"494 552 CURVE SMOOTH",
"494 474 OFFCURVE",
"448 406 OFFCURVE",
"376 380 CURVE",
"340 380 OFFCURVE",
"305 384 OFFCURVE",
"269 396 CURVE",
"272 356 LINE",
"298 358 OFFCURVE",
"323 360 OFFCURVE",
"336 360 CURVE SMOOTH",
"414 360 OFFCURVE",
"456 301 OFFCURVE",
"456 208 CURVE SMOOTH",
"456 118 OFFCURVE",
"421 48 OFFCURVE",
"354 28 CURVE",
"298 28 OFFCURVE",
"233 42 OFFCURVE",
"188 64 CURVE",
"190 0 LINE"
);
}
);
width = 660;
},
{
associatedMasterId = "4AEC2A2F-21E0-4005-B5C4-61417F12BD89";
layerId = "264A3564-B1C4-4AA0-AB01-AA2FDC5A84F7";
name = "4 apr 22, 21:43";
paths = (
{
closed = 1;
nodes = (
"339 674 LINE",
"351 682 OFFCURVE",
"377 684 OFFCURVE",
"404 685 CURVE",
"466 684 OFFCURVE",
"511 634 OFFCURVE",
"511 578 CURVE SMOOTH",
"511 478 OFFCURVE",
"462 380 OFFCURVE",
"355 380 CURVE SMOOTH",
"325 380 OFFCURVE",
"282 382 OFFCURVE",
"252 384 CURVE"
);
},
{
closed = 1;
nodes = (
"371 362 LINE",
"510 383 OFFCURVE",
"604 455 OFFCURVE",
"604 584 CURVE SMOOTH",
"604 658 OFFCURVE",
"530 701 OFFCURVE",
"434 701 CURVE",
"249 700 LINE",
"36 0 LINE",
"137 0 LINE",
"249 372 LINE"
);
},
{
closed = 1;
nodes = (
"233 354 LINE",
"247 360 OFFCURVE",
"290 361 OFFCURVE",
"328 361 CURVE SMOOTH",
"420 360 OFFCURVE",
"450 302 OFFCURVE",
"450 238 CURVE SMOOTH",
"450 132 OFFCURVE",
"380 21 OFFCURVE",
"272 21 CURVE SMOOTH",
"244 21 OFFCURVE",
"153 38 OFFCURVE",
"153 81 CURVE SMOOTH",
"153 84 OFFCURVE",
"153 88 OFFCURVE",
"154 91 CURVE",
"127 0 LINE",
"246 0 LINE SMOOTH",
"418 0 OFFCURVE",
"546 80 OFFCURVE",
"546 243 CURVE SMOOTH",
"546 329 OFFCURVE",
"481 380 OFFCURVE",
"359 380 CURVE SMOOTH",
"242 380 LINE"
);
}
);
width = 596;
},
{
anchors = (
{
name = bottom;
position = "{252, 0}";
},
{
name = center;
position = "{359, 350}";
},
{
name = top;
position = "{466, 700}";
}
);
associatedMasterId = "B4D6250A-EC24-4DD5-8C49-5E627D155568";
layerId = "C7A8B56D-799F-481B-AF18-DA4556836984";
name = "12 apr 22, 21:23";
paths = (
{
closed = 1;
nodes = (
"390 674 LINE",
"402 682 OFFCURVE",
"405 684 OFFCURVE",
"432 685 CURVE",
"474 684 OFFCURVE",
"519 634 OFFCURVE",
"519 578 CURVE SMOOTH",
"519 478 OFFCURVE",
"470 380 OFFCURVE",
"383 380 CURVE SMOOTH",
"353 380 OFFCURVE",
"327 379 OFFCURVE",
"297 381 CURVE"
);
},
{
closed = 1;
nodes = (
"399 362 LINE",
"538 383 OFFCURVE",
"652 455 OFFCURVE",
"652 584 CURVE SMOOTH",
"652 658 OFFCURVE",
"578 701 OFFCURVE",
"462 701 CURVE",
"237 700 LINE",
"24 0 LINE",
"188 0 LINE",
"293 368 LINE"
);
},
{
closed = 1;
nodes = (
"261 354 LINE",
"275 360 OFFCURVE",
"318 362 OFFCURVE",
"356 361 CURVE SMOOTH",
"428 360 OFFCURVE",
"458 302 OFFCURVE",
"458 238 CURVE SMOOTH",
"458 132 OFFCURVE",
"388 21 OFFCURVE",
"300 21 CURVE SMOOTH",
"272 21 OFFCURVE",
"181 38 OFFCURVE",
"181 81 CURVE SMOOTH",
"181 84 OFFCURVE",
"181 88 OFFCURVE",
"182 91 CURVE",
"155 0 LINE",
"274 0 LINE SMOOTH",
"446 0 OFFCURVE",
"604 80 OFFCURVE",
"604 243 CURVE SMOOTH",
"604 329 OFFCURVE",
"509 380 OFFCURVE",
"387 380 CURVE SMOOTH",
"270 380 LINE"
);
}
);
width = 644;
}
);
leftKerningGroup = H;
leftMetricsKey = H;
rightKerningGroup = B;
unicode = 0042;
}
{
color = 3;
glyphname = C;
layers = (
{
anchors = (
{
name = bottom;
position = "{260, 0}";
},
{
name = top;
position = "{440, 700}";
}
);
layerId = "B4D6250A-EC24-4DD5-8C49-5E627D155568";
paths = (
{
closed = 1;
nodes = (
"546 146 LINE",
"532 164 LINE",
"476 124 OFFCURVE",
"436 92 OFFCURVE",
"372 60 CURVE",
"260 68 OFFCURVE",
"204 156 OFFCURVE",
"204 272 CURVE SMOOTH",
"204 453 OFFCURVE",
"294 605 OFFCURVE",
"430 692 CURVE",
"490 644 OFFCURVE",
"532 552 OFFCURVE",
"544 428 CURVE",
"560 428 LINE",
"624 632 LINE",
"568 684 OFFCURVE",
"502 714 OFFCURVE",
"444 714 CURVE",
"216 658 OFFCURVE",
"44 452 OFFCURVE",
"44 236 CURVE SMOOTH",
"44 84 OFFCURVE",
"142 -14 OFFCURVE",
"312 -14 CURVE"
);
}
);
width = 576;
},
{
anchors = (
{
name = bottom;
position = "{252, 0}";
},
{
name = top;
position = "{432, 700}";
}
);
layerId = "4AEC2A2F-21E0-4005-B5C4-61417F12BD89";
paths = (
{
closed = 1;
nodes = (
"532 144 LINE",
"522 159 LINE",
"466 119 OFFCURVE",
"410 80 OFFCURVE",
"346 48 CURVE",
"234 48 OFFCURVE",
"154 131 OFFCURVE",
"154 272 CURVE SMOOTH",
"154 464 OFFCURVE",
"258 630 OFFCURVE",
"414 696 CURVE",
"494 672 OFFCURVE",
"548 588 OFFCURVE",
"556 460 CURVE",
"568 460 LINE",
"610 640 LINE",
"558 688 OFFCURVE",
"492 714 OFFCURVE",
"418 714 CURVE",
"178 630 OFFCURVE",
"50 412 OFFCURVE",
"50 216 CURVE SMOOTH",
"50 80 OFFCURVE",
"142 -14 OFFCURVE",
"298 -14 CURVE"
);
}
);
width = 568;
},
{
associatedMasterId = "4AEC2A2F-21E0-4005-B5C4-61417F12BD89";
background = {
anchors = (
{
name = bottom;
position = "{189, 0}";
},
{
name = top;
position = "{473, 700}";
}
);
paths = (
{
closed = 1;
nodes = (
"479 712 LINE",
"479 712 OFFCURVE",
"478 712 OFFCURVE",
"478 712 CURVE",
"246 677 OFFCURVE",
"49 441 OFFCURVE",
"49 214 CURVE SMOOTH",
"49 70 OFFCURVE",
"138 -12 OFFCURVE",
"227 -13 CURVE",
"293 15 OFFCURVE",
"416 143 OFFCURVE",
"467 191 CURVE",
"456 199 LINE",
"412 154 OFFCURVE",
"312 59 OFFCURVE",
"293 59 CURVE SMOOTH",
"241 59 OFFCURVE",
"164 136 OFFCURVE",
"158 238 CURVE SMOOTH",
"148 419 OFFCURVE",
"285 688 OFFCURVE",
"446 688 CURVE"
);
},
{
closed = 1;
nodes = (
"446 688 LINE",
"489 685 OFFCURVE",
"538 639 OFFCURVE",
"538 566 CURVE SMOOTH",
"538 544 OFFCURVE",
"533 521 OFFCURVE",
"524 495 CURVE",
"533 495 LINE",
"623 688 LINE",
"581 705 OFFCURVE",
"523 712 OFFCURVE",
"477 712 CURVE",
"473 711 OFFCURVE",
"468 711 OFFCURVE",
"464 710 CURVE"
);
}
);
};
layerId = "FAEA1312-43EA-47C8-8BB6-6FBA10F4FD8B";
name = "9 apr 22, 21:32";
paths = (
{
closed = 1;
nodes = (
"540 152 LINE",
"532 164 LINE",
"472 116 OFFCURVE",
"415 75 OFFCURVE",
"348 36 CURVE",
"228 36 OFFCURVE",
"150 128 OFFCURVE",
"150 272 CURVE SMOOTH",
"150 464 OFFCURVE",
"252 632 OFFCURVE",
"408 698 CURVE",
"500 682 OFFCURVE",
"562 596 OFFCURVE",
"570 460 CURVE",
"578 460 LINE",
"624 640 LINE",
"572 688 OFFCURVE",
"498 714 OFFCURVE",
"414 714 CURVE",
"174 630 OFFCURVE",
"46 412 OFFCURVE",
"46 216 CURVE SMOOTH",
"46 76 OFFCURVE",
"148 -14 OFFCURVE",
"304 -14 CURVE"
);
}
);
width = 577;
},
{
associatedMasterId = "4AEC2A2F-21E0-4005-B5C4-61417F12BD89";
background = {
anchors = (
{
name = bottom;
position = "{189, 0}";
},
{
name = top;
position = "{473, 700}";
}
);
paths = (
{
closed = 1;
nodes = (
"479 712 LINE",
"479 712 OFFCURVE",
"478 712 OFFCURVE",
"478 712 CURVE",
"246 677 OFFCURVE",
"49 441 OFFCURVE",
"49 214 CURVE SMOOTH",
"49 70 OFFCURVE",
"138 -12 OFFCURVE",
"227 -13 CURVE",
"293 15 OFFCURVE",
"416 143 OFFCURVE",
"467 191 CURVE",
"456 199 LINE",
"412 154 OFFCURVE",
"312 59 OFFCURVE",
"293 59 CURVE SMOOTH",
"241 59 OFFCURVE",
"164 136 OFFCURVE",
"158 238 CURVE SMOOTH",
"148 419 OFFCURVE",
"285 688 OFFCURVE",
"446 688 CURVE"
);
},
{
closed = 1;
nodes = (
"446 688 LINE",
"489 685 OFFCURVE",
"538 639 OFFCURVE",
"538 566 CURVE SMOOTH",
"538 544 OFFCURVE",
"533 521 OFFCURVE",
"524 495 CURVE",
"533 495 LINE",
"623 688 LINE",
"581 705 OFFCURVE",
"523 712 OFFCURVE",
"477 712 CURVE",
"473 711 OFFCURVE",
"468 711 OFFCURVE",
"464 710 CURVE"
);
}
);
};
layerId = "E3C5C2A6-6C1E-46EF-AA27-67EA65C5B35D";
name = "4 apr 22, 09:07";
paths = (
{
closed = 1;
nodes = (
"544 156 LINE",
"533 170 LINE",
"472 118 OFFCURVE",
"407 71 OFFCURVE",
"340 32 CURVE",
"224 32 OFFCURVE",
"149 128 OFFCURVE",
"149 276 CURVE SMOOTH",
"149 468 OFFCURVE",
"250 634 OFFCURVE",
"406 700 CURVE",
"499 688 OFFCURVE",
"566 594 OFFCURVE",
"578 460 CURVE",
"590 460 LINE",
"622 632 LINE",
"562 696 OFFCURVE",
"498 714 OFFCURVE",
"414 714 CURVE",
"174 630 OFFCURVE",
"46 412 OFFCURVE",
"46 216 CURVE SMOOTH",
"46 76 OFFCURVE",
"148 -14 OFFCURVE",
"304 -14 CURVE"
);
}
);
width = 576;
},
{
anchors = (
{
name = bottom;
position = "{190, 0}";
},
{
name = top;
position = "{474, 700}";
}
);
associatedMasterId = "4AEC2A2F-21E0-4005-B5C4-61417F12BD89";
layerId = "5E21AFED-0BAA-4C2A-B2E0-5D556F4B8C49";
name = "2 apr 22, 19:03";
paths = (
{
closed = 1;
nodes = (
"480 712 LINE",
"480 712 OFFCURVE",
"479 712 OFFCURVE",
"479 712 CURVE",
"247 677 OFFCURVE",
"50 441 OFFCURVE",
"50 214 CURVE SMOOTH",
"50 70 OFFCURVE",
"139 -12 OFFCURVE",
"228 -13 CURVE",
"294 15 OFFCURVE",
"417 143 OFFCURVE",
"468 191 CURVE",
"457 199 LINE",
"413 154 OFFCURVE",
"313 59 OFFCURVE",
"294 59 CURVE SMOOTH",
"242 59 OFFCURVE",
"165 136 OFFCURVE",
"159 238 CURVE SMOOTH",
"149 419 OFFCURVE",
"286 688 OFFCURVE",
"447 688 CURVE"
);
},
{
closed = 1;
nodes = (
"447 688 LINE",
"490 685 OFFCURVE",
"539 639 OFFCURVE",
"539 566 CURVE SMOOTH",
"539 544 OFFCURVE",
"534 521 OFFCURVE",
"525 495 CURVE",
"534 495 LINE",
"624 688 LINE",
"582 705 OFFCURVE",
"524 712 OFFCURVE",
"478 712 CURVE",
"474 711 OFFCURVE",
"469 711 OFFCURVE",
"465 710 CURVE"
);
}
);
width = 486;
},
{
anchors = (
{
name = bottom;
position = "{181, 0}";
},
{
name = top;
position = "{485, 701}";
}
);
associatedMasterId = "B4D6250A-EC24-4DD5-8C49-5E627D155568";
layerId = "091CA44E-DB92-466F-8E92-0E7F89D605AB";
name = "12 apr 22, 22:03";
paths = (
{
closed = 1;
nodes = (
"472 712 LINE",
"472 712 OFFCURVE",
"471 712 OFFCURVE",
"471 712 CURVE",
"239 677 OFFCURVE",
"29 411 OFFCURVE",
"29 184 CURVE SMOOTH",
"29 40 OFFCURVE",
"140 -12 OFFCURVE",
"220 -13 CURVE",
"316 15 OFFCURVE",
"439 143 OFFCURVE",
"490 191 CURVE",
"469 209 LINE",
"425 164 OFFCURVE",
"325 69 OFFCURVE",
"306 69 CURVE SMOOTH",
"273 69 OFFCURVE",
"199 136 OFFCURVE",
"193 238 CURVE SMOOTH",
"183 419 OFFCURVE",
"285 668 OFFCURVE",
"439 668 CURVE"
);
},
{
closed = 1;
nodes = (
"439 668 LINE",
"482 665 OFFCURVE",
"548 639 OFFCURVE",
"548 566 CURVE SMOOTH",
"548 544 OFFCURVE",
"546 491 OFFCURVE",
"537 465 CURVE",
"549 465 LINE",
"636 688 LINE",
"594 705 OFFCURVE",
"516 712 OFFCURVE",
"470 712 CURVE",
"466 711 OFFCURVE",
"461 711 OFFCURVE",
"457 710 CURVE"
);
}
);
width = 517;
}
);
leftKerningGroup = O;
leftMetricsKey = O;
rightKerningGroup = C;
unicode = 0043;
}
{
color = 3;
glyphname = D;
layers = (
{
anchors = (
{
name = top;
position = "{436, 700}";
}
);
hints = (
{
origin = "{0, 7}";
type = Corner;
name = _corner.rightSerif.cap;
options = 1;
},
{
origin = "{0, 8}";
type = Corner;
name = _corner.leftSerif.cap;
}
);
layerId = "4AEC2A2F-21E0-4005-B5C4-61417F12BD89";
paths = (
{
closed = 1;
nodes = (
"292 0 LINE",
"512 64 OFFCURVE",
"664 248 OFFCURVE",
"664 440 CURVE SMOOTH",
"664 598 OFFCURVE",
"564 700 OFFCURVE",
"408 700 CURVE SMOOTH",
"238 700 LINE",
"38 0 LINE"
);
},
{
closed = 1;
nodes = (
"336 700 LINE",
"309 674 LINE",
"337 679 OFFCURVE",
"370 682 OFFCURVE",
"400 682 CURVE",
"497 682 OFFCURVE",
"558 589 OFFCURVE",
"558 444 CURVE SMOOTH",
"558 259 OFFCURVE",
"456 84 OFFCURVE",
"308 20 CURVE",
"240 20 OFFCURVE",
"181 32 OFFCURVE",
"132 56 CURVE",
"136 0 LINE"
);
}
);
width = 656;
},
{
anchors = (
{
name = top;
position = "{464, 700}";
}
);
hints = (
{
origin = "{0, 7}";
type = Corner;
name = _corner.rightSerif.cap;
options = 1;
},
{
origin = "{0, 8}";
type = Corner;
name = _corner.leftSerif.cap;
}
);
layerId = "B4D6250A-EC24-4DD5-8C49-5E627D155568";
paths = (
{
closed = 1;
nodes = (
"307 0 LINE",
"539 60 OFFCURVE",
"698 252 OFFCURVE",
"698 468 CURVE SMOOTH",
"698 604 OFFCURVE",
"601 700 OFFCURVE",
"464 700 CURVE SMOOTH",
"240 700 LINE",
"40 0 LINE"
);
},
{
closed = 1;
nodes = (
"390 700 LINE",
"352 656 LINE",
"379 666 OFFCURVE",
"419 673 OFFCURVE",
"448 676 CURVE",
"500 652 OFFCURVE",
"534 576 OFFCURVE",
"534 472 CURVE SMOOTH",
"534 288 OFFCURVE",
"450 113 OFFCURVE",
"323 24 CURVE",
"267 30 OFFCURVE",
"229 40 OFFCURVE",
"189 64 CURVE",
"190 0 LINE"
);
}
);
width = 682;
},
{
associatedMasterId = "4AEC2A2F-21E0-4005-B5C4-61417F12BD89";
layerId = "4182AC19-F03B-4174-B8F2-56B8ACE019A7";
name = "31 mar 22, 22:08";
paths = (
{
closed = 1;
nodes = (
"127 0 LINE",
"218 -1 LINE",
"285 2 OFFCURVE",
"593 127 OFFCURVE",
"670 383 CURVE SMOOTH",
"734 599 OFFCURVE",
"642 709 OFFCURVE",
"424 701 CURVE",
"237 700 LINE",
"24 0 LINE"
);
},
{
closed = 1;
nodes = (
"328 672 LINE",
"350 681 OFFCURVE",
"373 685 OFFCURVE",
"388 685 CURVE SMOOTH",
"552 685 OFFCURVE",
"620 597 OFFCURVE",
"554 372 CURVE SMOOTH",
"491 161 OFFCURVE",
"387 41 OFFCURVE",
"269 41 CURVE SMOOTH",
"218 41 OFFCURVE",
"170 41 OFFCURVE",
"148 70 CURVE"
);
}
);
width = 625;
},
{
anchors = (
{
name = bottom;
position = "{273, 0}";
},
{
name = center;
position = "{380, 350}";
},
{
name = top;
position = "{432, 701}";
}
);
associatedMasterId = "B4D6250A-EC24-4DD5-8C49-5E627D155568";
layerId = "C8AF28E2-13CA-4EE4-B93C-CEAEEB720B77";
name = "12 apr 22, 08:55";
paths = (
{
closed = 1;
nodes = (
"155 0 LINE",
"226 -1 LINE",
"323 2 OFFCURVE",
"629 127 OFFCURVE",
"706 383 CURVE SMOOTH",
"770 599 OFFCURVE",
"680 709 OFFCURVE",
"432 701 CURVE",
"214 700 LINE",
"1 0 LINE"
);
},
{
closed = 1;
nodes = (
"356 662 LINE",
"378 671 OFFCURVE",
"401 675 OFFCURVE",
"416 675 CURVE SMOOTH",
"552 675 OFFCURVE",
"600 597 OFFCURVE",
"534 372 CURVE SMOOTH",
"471 161 OFFCURVE",
"328 51 OFFCURVE",
"297 51 CURVE SMOOTH",
"246 51 OFFCURVE",
"198 51 OFFCURVE",
"176 80 CURVE"
);
}
);
width = 675;
}
);
leftKerningGroup = H;
leftMetricsKey = H;
rightKerningGroup = O;
rightMetricsKey = O;
unicode = 0044;
}
{
color = 1;
glyphname = E;
layers = (
{
anchors = (
{
name = ogonek;
position = "{288, 0}";
},
{
name = top;
position = "{400, 700}";
}
);
background = {
components = (
{
name = C;
transform = "{1, 0, 0, 1, -43, 0}";
}
);
};
layerId = "B4D6250A-EC24-4DD5-8C49-5E627D155568";
paths = (
{
closed = 1;
nodes = (
"504 152 LINE",
"492 170 LINE",
"439 131 OFFCURVE",
"381 90 OFFCURVE",
"324 60 CURVE",
"227 60 OFFCURVE",
"176 109 OFFCURVE",
"176 188 CURVE SMOOTH",
"176 266 OFFCURVE",
"223 352 OFFCURVE",
"316 408 CURVE",
"308 420 LINE",
"132 376 OFFCURVE",
"10 280 OFFCURVE",
"10 160 CURVE SMOOTH",
"10 56 OFFCURVE",
"120 -14 OFFCURVE",
"268 -14 CURVE"
);
},
{
closed = 1;
nodes = (
"416 372 LINE",
"344 417 OFFCURVE",
"288 470 OFFCURVE",
"288 539 CURVE SMOOTH",
"288 603 OFFCURVE",
"329 661 OFFCURVE",
"393 686 CURVE",
"462 635 OFFCURVE",
"507 542 OFFCURVE",
"507 448 CURVE",
"523 448 LINE",
"584 644 LINE",
"535 681 OFFCURVE",
"462 706 OFFCURVE",
"396 710 CURVE",
"241 701 OFFCURVE",
"132 630 OFFCURVE",
"132 540 CURVE SMOOTH",
"132 454 OFFCURVE",
"228 372 OFFCURVE",
"412 356 CURVE"
);
}
);
width = 532;
},
{
anchors = (
{
name = ogonek;
position = "{292, 0}";
},
{
name = top;
position = "{412, 700}";
}
);
layerId = "4AEC2A2F-21E0-4005-B5C4-61417F12BD89";
paths = (
{
closed = 1;
nodes = (
"504 144 LINE",
"494 159 LINE",
"438 119 OFFCURVE",
"380 80 OFFCURVE",
"316 48 CURVE",
"204 48 OFFCURVE",
"134 100 OFFCURVE",
"134 188 CURVE SMOOTH",
"134 276 OFFCURVE",
"188 356 OFFCURVE",
"292 392 CURVE",
"280 408 LINE",
"112 352 OFFCURVE",
"28 260 OFFCURVE",
"28 152 CURVE SMOOTH",
"28 49 OFFCURVE",
"124 -14 OFFCURVE",
"272 -14 CURVE"
);
},
{
closed = 1;
nodes = (
"400 380 LINE",
"304 412 OFFCURVE",
"248 476 OFFCURVE",
"248 552 CURVE SMOOTH",
"248 619 OFFCURVE",
"292 675 OFFCURVE",
"360 696 CURVE",
"440 672 OFFCURVE",
"492 600 OFFCURVE",
"508 476 CURVE",
"520 476 LINE",
"556 640 LINE",
"507 685 OFFCURVE",
"432 714 OFFCURVE",
"364 714 CURVE",
"232 690 OFFCURVE",
"148 624 OFFCURVE",
"148 536 CURVE SMOOTH",
"148 444 OFFCURVE",
"242 380 OFFCURVE",
"398 368 CURVE"
);
}
);
width = 540;
},
{
associatedMasterId = "4AEC2A2F-21E0-4005-B5C4-61417F12BD89";
background = {
anchors = (
{
name = bottom;
position = "{240, -18}";
},
{
name = ogonek;
position = "{241, 0}";
},
{
name = top;
position = "{433, 700}";
},
{
name = topleft;
position = "{194, 700}";
}
);
paths = (
{
closed = 1;
nodes = (
"399 710 LINE",
"272 700 OFFCURVE",
"158 639 OFFCURVE",
"150 550 CURVE SMOOTH",
"147 479 OFFCURVE",
"218 434 OFFCURVE",
"293 403 CURVE",
"175 365 OFFCURVE",
"40 300 OFFCURVE",
"28 166 CURVE",
"42 62 OFFCURVE",
"140 -17 OFFCURVE",
"247 -16 CURVE",
"519 124 LINE",
"511 138 LINE",
"489 127 OFFCURVE",
"315 30 OFFCURVE",
"287 30 CURVE SMOOTH",
"220 30 OFFCURVE",
"139 110 OFFCURVE",
"147 210 CURVE SMOOTH",
"157 322 OFFCURVE",
"205 361 OFFCURVE",
"310 396 CURVE",
"345 383 OFFCURVE",
"380 372 OFFCURVE",
"407 363 CURVE",
"408 373 LINE",
"342 406 OFFCURVE",
"236 472 OFFCURVE",
"236 589 CURVE SMOOTH",
"236 662 OFFCURVE",
"324 695 OFFCURVE",
"389 700 CURVE",
"392 700 OFFCURVE",
"395 700 OFFCURVE",
"399 699 CURVE"
);
},
{
closed = 1;
nodes = (
"399 699 LINE",
"446 692 OFFCURVE",
"484 633 OFFCURVE",
"484 566 CURVE SMOOTH",
"484 544 OFFCURVE",
"479 521 OFFCURVE",
"470 495 CURVE",
"479 495 LINE",
"569 688 LINE",
"527 705 OFFCURVE",
"479 711 OFFCURVE",
"433 711 CURVE SMOOTH",
"422 711 OFFCURVE",
"410 711 OFFCURVE",
"399 710 CURVE"
);
}
);
};
layerId = "86E15AB7-FD6A-49E0-9FE7-C63AB57B35BF";
name = "9 apr 22, 21:44";
paths = (
{
closed = 1;
nodes = (
"510 152 LINE",
"502 164 LINE",
"442 116 OFFCURVE",
"391 79 OFFCURVE",
"324 40 CURVE",
"212 40 OFFCURVE",
"140 98 OFFCURVE",
"140 188 CURVE SMOOTH",
"140 284 OFFCURVE",
"204 365 OFFCURVE",
"304 396 CURVE",
"292 408 LINE",
"128 344 OFFCURVE",
"36 268 OFFCURVE",
"36 152 CURVE SMOOTH",
"36 48 OFFCURVE",
"126 -14 OFFCURVE",
"274 -14 CURVE"
);
},
{
closed = 1;
nodes = (
"460 676 OFFCURVE",
"518 600 OFFCURVE",
"526 480 CURVE",
"534 480 LINE",
"576 652 LINE",
"524 692 OFFCURVE",
"456 714 OFFCURVE",
"372 714 CURVE",
"240 690 OFFCURVE",
"156 620 OFFCURVE",
"156 528 CURVE SMOOTH",
"156 440 OFFCURVE",
"250 384 OFFCURVE",
"406 368 CURVE",
"408 376 LINE",
"308 412 OFFCURVE",
"248 480 OFFCURVE",
"248 552 CURVE SMOOTH",
"248 619 OFFCURVE",
"293 677 OFFCURVE",
"368 700 CURVE"
);
}
);
width = 543;
},
{
anchors = (
{
name = bottom;
position = "{220, -18}";
},
{
name = ogonek;
position = "{221, 0}";
},
{
name = top;
position = "{413, 700}";
},
{
name = topleft;
position = "{174, 700}";
}
);
associatedMasterId = "4AEC2A2F-21E0-4005-B5C4-61417F12BD89";
background = {
paths = (
{
closed = 1;
nodes = (
"186 376 OFFCURVE",
"21 323 OFFCURVE",
"8 174 CURVE",
"22 70 OFFCURVE",
"120 -9 OFFCURVE",
"227 -8 CURVE",
"499 132 LINE",
"491 146 LINE",
"469 135 OFFCURVE",
"295 38 OFFCURVE",
"267 38 CURVE SMOOTH",
"200 38 OFFCURVE",
"119 118 OFFCURVE",
"127 218 CURVE SMOOTH",
"138 339 OFFCURVE",
"193 366 OFFCURVE",
"317 405 CURVE",
"311 415 LINE"
);
},
{
closed = 1;
nodes = (
"125 441 OFFCURVE",
"297 393 OFFCURVE",
"387 363 CURVE",
"388 373 LINE",
"322 406 OFFCURVE",
"216 472 OFFCURVE",
"216 589 CURVE SMOOTH",
"216 662 OFFCURVE",
"304 695 OFFCURVE",
"330 695 CURVE",
"416 667 OFFCURVE",
"470 580 OFFCURVE",
"494 550 CURVE",
"505 580 LINE",
"452 709 LINE",
"413 711 LINE",
"273 711 OFFCURVE",
"139 647 OFFCURVE",
"130 550 CURVE"
);
}
);
};
layerId = "32265FD3-1559-4DB2-8C7E-7FF8ADDC73F8";
name = "4 apr 22, 21:07";
paths = (
{
closed = 1;
nodes = (
"379 710 LINE",
"252 700 OFFCURVE",
"138 639 OFFCURVE",
"130 550 CURVE SMOOTH",
"127 479 OFFCURVE",
"198 434 OFFCURVE",
"273 403 CURVE",
"155 365 OFFCURVE",
"20 300 OFFCURVE",
"8 166 CURVE",
"22 62 OFFCURVE",
"120 -17 OFFCURVE",
"227 -16 CURVE",
"499 124 LINE",
"491 138 LINE",
"469 127 OFFCURVE",
"295 30 OFFCURVE",
"267 30 CURVE SMOOTH",
"200 30 OFFCURVE",
"119 110 OFFCURVE",
"127 210 CURVE SMOOTH",
"137 322 OFFCURVE",
"185 361 OFFCURVE",
"290 396 CURVE",
"325 383 OFFCURVE",
"360 372 OFFCURVE",
"387 363 CURVE",
"388 373 LINE",
"322 406 OFFCURVE",
"216 472 OFFCURVE",
"216 589 CURVE SMOOTH",
"216 662 OFFCURVE",
"304 695 OFFCURVE",
"369 700 CURVE",
"372 700 OFFCURVE",
"375 700 OFFCURVE",
"379 699 CURVE"
);
},
{
closed = 1;
nodes = (
"379 699 LINE",
"426 692 OFFCURVE",
"464 633 OFFCURVE",
"464 566 CURVE SMOOTH",
"464 544 OFFCURVE",
"459 521 OFFCURVE",
"450 495 CURVE",
"459 495 LINE",
"549 688 LINE",
"507 705 OFFCURVE",
"459 711 OFFCURVE",
"413 711 CURVE SMOOTH",
"402 711 OFFCURVE",
"390 711 OFFCURVE",
"379 710 CURVE"
);
}
);
width = 480;
},
{
anchors = (
{
name = ogonek;
position = "{279, 15}";
},
{
name = top;
position = "{422, 700}";
}
);
associatedMasterId = "B4D6250A-EC24-4DD5-8C49-5E627D155568";
layerId = "96D414CD-E3FE-4417-B454-04B49D238FB8";
name = "12 apr 22, 23:46";
paths = (
{
closed = 1;
nodes = (
"17 51 OFFCURVE",
"145 -17 OFFCURVE",
"252 -16 CURVE",
"530 138 LINE",
"520 156 LINE",
"498 145 OFFCURVE",
"324 48 OFFCURVE",
"296 48 CURVE SMOOTH",
"246 48 OFFCURVE",
"197 116 OFFCURVE",
"197 196 CURVE SMOOTH",
"197 308 OFFCURVE",
"279 356 OFFCURVE",
"342 383 CURVE",
"377 370 OFFCURVE",
"399 362 OFFCURVE",
"426 353 CURVE",
"427 383 LINE",
"374 416 OFFCURVE",
"298 472 OFFCURVE",
"298 589 CURVE SMOOTH",
"298 624 OFFCURVE",
"345 686 OFFCURVE",
"397 686 CURVE",
"430 686 OFFCURVE",
"496 639 OFFCURVE",
"496 566 CURVE SMOOTH",
"496 544 OFFCURVE",
"491 521 OFFCURVE",
"482 495 CURVE",
"504 495 LINE",
"594 688 LINE",
"552 705 OFFCURVE",
"494 713 OFFCURVE",
"448 711 CURVE SMOOTH",
"418 710 LINE SMOOTH",
"291 706 OFFCURVE",
"137 639 OFFCURVE",
"129 540 CURVE SMOOTH",
"123 469 OFFCURVE",
"237 424 OFFCURVE",
"312 393 CURVE",
"194 355 OFFCURVE",
"17 291 OFFCURVE",
"17 156 CURVE SMOOTH"
);
}
);
width = 563;
}
);
leftKerningGroup = E;
rightKerningGroup = C;
rightMetricsKey = C;
unicode = 0045;
}
{
glyphname = F;
layers = (
{
hints = (
{
origin = "{0, 0}";
scale = "{1.2, 1}";
type = Corner;
name = _corner.rightSerif.cap;
options = 1;
},
{
origin = "{0, 2}";
type = Corner;
name = _corner.rightSerif.cap;
options = 1;
},
{
origin = "{0, 3}";
type = Corner;
name = _corner.leftSerif.cap;
}
);
layerId = "4AEC2A2F-21E0-4005-B5C4-61417F12BD89";
paths = (
{
closed = 1;
nodes = (
"136 0 LINE",
"336 700 LINE",
"238 700 LINE",
"38 0 LINE"
);
},
{
closed = 1;
nodes = (
"398 191 LINE",
"467 455 LINE",
"455 455 LINE",
"374 345 LINE",
"214 345 LINE",
"210 327 LINE",
"370 327 LINE",
"386 191 LINE"
);
},
{
closed = 1;
nodes = (
"600 498 LINE",
"644 700 LINE",
"316 700 LINE",
"312 682 LINE",
"550 682 LINE",
"588 498 LINE"
);
}
);
width = 532;
},
{
background = {
paths = (
{
closed = 1;
nodes = (
"186 0 LINE",
"398 701 LINE",
"244 701 LINE",
"32 0 LINE"
);
}
);
};
hints = (
{
origin = "{0, 2}";
type = Corner;
name = _corner.rightSerif.cap;
options = 1;
},
{
origin = "{0, 3}";
type = Corner;
name = _corner.leftSerif.cap;
},
{
origin = "{0, 0}";
scale = "{1.2, 1}";
type = Corner;
name = _corner.rightSerif.cap;
options = 1;
}
);
layerId = "B4D6250A-EC24-4DD5-8C49-5E627D155568";
paths = (
{
closed = 1;
nodes = (
"190 0 LINE",
"390 700 LINE",
"240 700 LINE",
"40 0 LINE"
);
},
{
closed = 1;
nodes = (
"448 176 LINE",
"528 476 LINE",
"512 478 LINE",
"413 355 LINE",
"272 355 LINE",
"264 329 LINE",
"409 329 LINE",
"432 176 LINE"
);
},
{
closed = 1;
nodes = (
"630 460 LINE",
"696 700 LINE",
"370 700 LINE",
"364 672 LINE",
"576 672 LINE",
"614 460 LINE"
);
}
);
width = 576;
},
{
associatedMasterId = "4AEC2A2F-21E0-4005-B5C4-61417F12BD89";
layerId = "BFB280A5-524C-4962-8A34-2E2883471E43";
name = "2 apr 22, 17:53";
paths = (
{
closed = 1;
nodes = (
"63 0 LINE",
"163 0 LINE",
"372 700 LINE",
"272 700 LINE"
);
},
{
closed = 1;
nodes = (
"345 681 LINE",
"641 681 LINE",
"647 700 LINE",
"359 700 LINE"
);
},
{
closed = 1;
nodes = (
"238 324 LINE",
"484 324 LINE",
"491 343 LINE",
"253 343 LINE"
);
},
{
closed = 1;
nodes = (
"520 440 LINE",
"514 440 LINE",
"442 343 LINE",
"488 334 LINE"
);
},
{
closed = 1;
nodes = (
"547 689 LINE",
"577 690 OFFCURVE",
"614 553 OFFCURVE",
"620 516 CURVE",
"626 516 LINE",
"666 703 LINE"
);
},
{
closed = 1;
nodes = (
"436 325 LINE",
"450 228 LINE",
"456 228 LINE",
"488 334 LINE"
);
}
);
width = 555;
},
{
anchors = (
{
name = bottom;
position = "{212, 0}";
},
{
name = top;
position = "{426, 700}";
}
);
associatedMasterId = "B4D6250A-EC24-4DD5-8C49-5E627D155568";
background = {
paths = (
{
closed = 1;
nodes = (
"186 0 LINE",
"398 701 LINE",
"244 701 LINE",
"32 0 LINE"
);
}
);
};
layerId = "1188262C-4F27-4C14-A99A-52810233B0A4";
name = "11 apr 22, 22:55";
paths = (
{
closed = 1;
nodes = (
"32 0 LINE",
"186 0 LINE",
"395 700 LINE",
"241 700 LINE"
);
},
{
closed = 1;
nodes = (
"352 665 LINE",
"641 665 LINE",
"647 700 LINE",
"359 700 LINE"
);
},
{
closed = 1;
nodes = (
"238 324 LINE",
"484 324 LINE",
"491 354 LINE",
"253 354 LINE"
);
},
{
closed = 1;
nodes = (
"520 445 LINE",
"504 445 LINE",
"432 343 LINE",
"488 334 LINE"
);
},
{
closed = 1;
nodes = (
"563 689 LINE",
"593 690 OFFCURVE",
"618 523 OFFCURVE",
"624 486 CURVE",
"636 486 LINE",
"676 703 LINE"
);
},
{
closed = 1;
nodes = (
"426 325 LINE",
"440 223 LINE",
"456 223 LINE",
"488 334 LINE"
);
}
);
width = 570;
}
);
leftKerningGroup = H;
leftMetricsKey = H;
rightKerningGroup = F;
unicode = 0046;
}
